<svg width="192" height="268" viewBox="0 0 192 268" fill="none" xmlns="http://www.w3.org/2000/svg">
<path d="M96 192.273C149.019 192.273 192 149.231 192 96.1364C192 43.0418 149.019 0 96 0C42.9807 0 0 43.0418 0 96.1364C0 149.231 42.9807 192.273 96 192.273Z" fill="#A3B18A"/>
<path d="M109.473 74.0745C108.972 73.7423 109.304 73.9281 109.473 74.0745V74.0745Z" fill="#656D4A"/>
<path d="M110.243 73.2974C110.086 73.1735 109.934 73.0384 109.759 72.9426C108.725 72.357 107.426 73.8774 108.438 74.6601C108.595 74.7839 108.759 74.9022 108.922 75.0148C110.086 75.8088 111.182 73.9168 110.024 73.1285L109.979 73.1116L108.657 74.829C108.697 74.8684 108.714 74.874 108.702 74.8459C109.799 75.6962 111.356 74.1589 110.249 73.2974H110.243Z" fill="#656D4A"/>
<path d="M110.918 76.0285C110.918 76.0285 110.918 76.0172 110.912 76.0116C110.85 75.899 110.8 75.7864 110.743 75.6681C110.755 75.7075 110.8 75.8202 110.918 76.0285Z" fill="#656D4A"/>
<path d="M111.969 75.7357C111.924 75.6118 111.874 75.4992 111.817 75.3866C111.8 75.3584 111.789 75.3303 111.772 75.2965C111.744 75.2345 111.71 75.1726 111.682 75.1106C111.615 74.9811 111.519 74.8798 111.401 74.8066C111.294 74.7109 111.171 74.6433 111.03 74.6095L110.738 74.5701C110.586 74.5644 110.445 74.5982 110.316 74.6658C110.226 74.694 110.142 74.739 110.074 74.8066C109.956 74.8854 109.861 74.9868 109.793 75.1106L109.681 75.3697C109.63 75.5611 109.63 75.7582 109.681 75.9497C109.681 75.9665 109.692 75.9778 109.697 75.9947C109.742 76.1073 109.787 76.2199 109.838 76.3269C109.877 76.4114 109.922 76.4902 109.967 76.5747C110.035 76.7042 110.13 76.8056 110.249 76.8788C110.355 76.9745 110.479 77.0421 110.62 77.0758C110.766 77.1209 110.912 77.1265 111.053 77.0927C111.199 77.0871 111.334 77.042 111.457 76.9632L111.677 76.7943C111.812 76.6592 111.907 76.4959 111.958 76.31L111.997 76.0172C111.997 75.8201 111.947 75.6343 111.845 75.4654C111.789 75.3697 111.733 75.2683 111.688 75.167L111.8 75.426C111.8 75.426 111.784 75.3866 111.778 75.364L109.782 76.2087C109.838 76.3213 109.894 76.4395 109.95 76.5522L109.838 76.2931C109.838 76.2931 109.838 76.3044 109.844 76.31C109.877 76.4508 109.945 76.5747 110.04 76.6817C110.119 76.7999 110.22 76.8956 110.344 76.9632C110.468 77.042 110.603 77.0871 110.749 77.0927C110.895 77.1265 111.041 77.1209 111.182 77.0758L111.441 76.9632C111.604 76.8675 111.733 76.738 111.834 76.5691L111.947 76.31C111.997 76.1186 111.997 75.9215 111.947 75.7301L111.969 75.7357Z" fill="#656D4A"/>
<path d="M79.5024 126.402C79.5024 126.402 79.4799 126.391 79.4687 126.391C79.4518 126.386 79.435 126.38 79.4181 126.374C79.7273 126.56 79.7836 126.566 79.7273 126.521C79.6767 126.493 79.6261 126.459 79.5699 126.431C79.5474 126.419 79.5249 126.408 79.5024 126.402Z" fill="#656D4A"/>
<path d="M79.7892 125.344C79.7892 125.344 79.733 125.327 79.7049 125.316C79.5587 125.271 79.4125 125.265 79.2719 125.299C79.1257 125.304 78.9907 125.349 78.867 125.428L78.6478 125.597C78.5409 125.699 78.4678 125.811 78.4228 125.946C78.3722 126.031 78.3497 126.121 78.3497 126.222C78.316 126.369 78.3216 126.515 78.3666 126.656L78.4791 126.915C78.5747 127.078 78.704 127.208 78.8727 127.309C78.9345 127.348 79.002 127.382 79.0638 127.422C79.1819 127.484 79.3056 127.534 79.4237 127.585C79.4293 127.585 79.4406 127.591 79.4462 127.596C79.5418 127.619 79.643 127.636 79.7442 127.636C80.031 127.636 80.3121 127.517 80.5202 127.315C80.6551 127.18 80.7507 127.016 80.8013 126.83C80.8519 126.645 80.8519 126.436 80.8013 126.25C80.7732 126.16 80.7395 126.07 80.6889 125.986C80.6889 125.991 80.5764 125.811 80.5033 125.749C80.419 125.682 80.3403 125.614 80.2503 125.558C80.2278 125.547 80.2053 125.53 80.1828 125.518C80.1378 125.496 80.0985 125.473 80.0479 125.451C79.9242 125.372 79.7892 125.327 79.643 125.321C79.4968 125.288 79.3506 125.293 79.21 125.338C79.0695 125.372 78.9458 125.44 78.8389 125.535C78.7209 125.614 78.6253 125.715 78.5578 125.839L78.4453 126.098C78.3947 126.29 78.3947 126.487 78.4453 126.678L78.5578 126.937C78.6534 127.101 78.7827 127.23 78.9514 127.332C78.9908 127.348 79.0301 127.365 79.0638 127.388C79.0807 127.399 79.1032 127.41 79.1201 127.422C79.137 127.433 79.1594 127.439 79.1763 127.455L78.957 127.286C78.957 127.286 78.9683 127.298 78.9739 127.303L78.8052 127.084L78.6927 126.825L78.6534 126.532L78.6927 126.239L78.8052 125.98L78.9739 125.761L79.1932 125.592L79.4518 125.479L79.7442 125.44L80.0366 125.479C80.0366 125.479 80.0141 125.473 80.0085 125.468L80.2672 125.58C80.2334 125.563 80.1941 125.547 80.1603 125.53C80.0985 125.496 80.0366 125.456 79.9691 125.423L79.1257 127.422C79.1538 127.433 79.1819 127.439 79.21 127.45C79.3562 127.495 79.5024 127.5 79.643 127.467C79.7892 127.461 79.9242 127.416 80.0479 127.337C80.1772 127.27 80.2784 127.174 80.3515 127.056C80.4471 126.949 80.5146 126.825 80.5483 126.684L80.5877 126.391C80.5877 126.194 80.5371 126.008 80.4358 125.839L80.2672 125.62C80.1322 125.485 79.9691 125.389 79.7836 125.338L79.7892 125.344Z" fill="#656D4A"/>
<path d="M80.2053 126.802C80.3627 126.949 80.4358 127.005 80.4527 127.011C80.4302 126.994 80.4133 126.971 80.3908 126.954C80.3458 126.915 80.2952 126.876 80.2503 126.836C80.2334 126.825 80.2221 126.819 80.2053 126.808V126.802Z" fill="#656D4A"/>
<path d="M79.4293 127.579C79.4799 127.624 79.5249 127.669 79.5755 127.714C79.5924 127.726 79.6093 127.743 79.6261 127.754C79.7049 127.816 79.7836 127.878 79.8623 127.94C79.8623 127.94 79.8735 127.945 79.8792 127.951C79.8792 127.951 79.8848 127.951 79.8904 127.957C79.9129 127.968 80.1322 128.058 80.1547 128.069L80.4471 128.109C80.5989 128.114 80.7395 128.08 80.8688 128.013C80.9588 127.985 81.0431 127.94 81.1106 127.872C81.2287 127.793 81.3243 127.692 81.3917 127.568L81.5042 127.309L81.5436 127.016C81.5492 126.864 81.5154 126.723 81.448 126.594C81.403 126.459 81.3299 126.341 81.223 126.245C81.2062 126.228 81.1837 126.205 81.1668 126.188C81.15 126.172 81.1275 126.149 81.105 126.132C81.0825 126.115 81.0656 126.098 81.0431 126.082C81.0431 126.082 81.0319 126.07 81.0262 126.07C80.9869 126.042 80.9531 126.014 80.9138 125.986C80.88 125.952 80.8407 125.924 80.8013 125.901C80.8013 125.901 80.7957 125.901 80.7901 125.896C80.7788 125.89 80.7676 125.879 80.7563 125.873C80.6326 125.794 80.4977 125.749 80.3515 125.744C80.2053 125.71 80.0591 125.715 79.9185 125.761C79.778 125.794 79.6543 125.862 79.5474 125.958C79.4293 126.036 79.3337 126.138 79.2663 126.262L79.1538 126.521C79.1032 126.712 79.1032 126.909 79.1538 127.101L79.2663 127.36C79.3619 127.523 79.4912 127.653 79.6599 127.754C79.6767 127.765 79.688 127.771 79.7049 127.782L79.4856 127.613C79.5193 127.641 79.5587 127.669 79.5924 127.698C79.6261 127.726 79.6543 127.76 79.688 127.788L80.7507 125.958L81.0094 126.07C81.0094 126.07 80.9813 126.053 80.97 126.042L81.1893 126.211C81.1162 126.155 81.0487 126.093 80.9869 126.031C80.8857 125.924 80.7732 125.851 80.6383 125.806C80.5089 125.738 80.3684 125.704 80.2165 125.71C80.0647 125.704 79.9242 125.738 79.7948 125.806C79.6599 125.851 79.5418 125.924 79.4462 126.031L79.2775 126.25C79.1763 126.419 79.1313 126.605 79.1257 126.802L79.1651 127.095C79.2157 127.281 79.3113 127.439 79.4462 127.579H79.4293Z" fill="#656D4A"/>
<path d="M105.43 212.876C105.43 212.876 105.47 212.917 105.493 212.94C105.47 212.917 105.453 212.899 105.43 212.876Z" fill="#656D4A"/>
<path d="M104.659 213.648C104.659 213.648 104.699 213.693 104.721 213.71C104.822 213.817 104.935 213.89 105.07 213.935C105.199 214.002 105.34 214.036 105.492 214.031L105.784 213.991C105.924 213.957 106.048 213.89 106.155 213.794C106.239 213.743 106.301 213.681 106.352 213.597C106.447 213.49 106.515 213.366 106.549 213.225L106.588 212.933C106.588 212.735 106.537 212.55 106.436 212.381C106.38 212.308 106.324 212.234 106.267 212.155C106.267 212.155 106.267 212.155 106.262 212.15C106.262 212.144 106.251 212.139 106.245 212.133C106.234 212.122 106.222 212.11 106.211 212.099C106.11 211.992 105.998 211.919 105.863 211.874C105.733 211.806 105.593 211.773 105.441 211.778C105.289 211.773 105.149 211.806 105.019 211.874C104.884 211.919 104.766 211.992 104.671 212.099L104.502 212.319C104.401 212.488 104.356 212.674 104.35 212.871L104.389 213.163C104.44 213.349 104.536 213.507 104.671 213.648C104.693 213.67 104.71 213.687 104.732 213.71L104.564 213.49C105.137 213.051 105.705 212.606 106.279 212.167C106.256 212.144 106.239 212.122 106.217 212.105C106.116 211.998 106.003 211.925 105.868 211.88C105.739 211.812 105.598 211.778 105.447 211.784C105.295 211.778 105.154 211.812 105.025 211.88C104.89 211.925 104.772 211.998 104.676 212.105L104.508 212.324C104.406 212.493 104.361 212.679 104.356 212.876L104.395 213.169C104.446 213.355 104.541 213.513 104.676 213.653L104.659 213.648Z" fill="#656D4A"/>
<path d="M99.1208 248.948C99.1208 248.948 99.1208 248.937 99.1208 248.925C99.0983 249.004 99.0983 249.055 99.1095 249.077C99.1095 249.06 99.1095 249.038 99.1152 249.021C99.1152 248.987 99.1208 248.97 99.1264 248.942L99.1208 248.948Z" fill="#656D4A"/>
<path d="M100.172 248.661C100.172 248.661 100.172 248.649 100.172 248.638L100.06 248.379C99.9924 248.25 99.8968 248.148 99.7787 248.075C99.7112 248.008 99.6325 247.962 99.5369 247.934C99.4076 247.867 99.267 247.833 99.1152 247.839L98.8228 247.878L98.5641 247.991C98.4348 248.058 98.3336 248.154 98.2605 248.272C98.1649 248.379 98.0974 248.503 98.0637 248.644C98.0637 248.661 98.0525 248.678 98.0525 248.7C98.0525 248.7 98.0525 248.706 98.0525 248.711C98.0525 248.711 98.0525 248.711 98.0525 248.717C98.0412 248.807 98.0243 248.92 98.0131 249.01C98.0131 249.015 98.0131 249.027 98.0131 249.032C98.0131 249.038 98.0131 249.044 98.0131 249.049C98.0131 249.151 98.0412 249.269 98.0525 249.353C98.0525 249.365 98.0524 249.37 98.0581 249.381C98.0918 249.522 98.1593 249.646 98.2549 249.753C98.3336 249.871 98.4348 249.967 98.5585 250.035L98.8172 250.147C98.9634 250.192 99.1096 250.198 99.2501 250.164C99.3513 250.164 99.4413 250.142 99.5257 250.091C99.6606 250.046 99.7787 249.973 99.8743 249.866L100.043 249.646C100.144 249.477 100.189 249.291 100.195 249.094C100.195 249.077 100.195 249.066 100.195 249.049C100.195 249.032 100.195 249.021 100.195 249.004L100.155 249.297C100.172 249.184 100.189 249.072 100.2 248.965C100.206 248.813 100.172 248.672 100.105 248.542C100.06 248.407 99.9867 248.289 99.8799 248.193C99.7787 248.086 99.6662 248.013 99.5313 247.968C99.4019 247.901 99.2614 247.867 99.1096 247.872L98.8172 247.912C98.6316 247.962 98.4742 248.058 98.3336 248.193L98.1649 248.413C98.0637 248.582 98.0187 248.768 98.0131 248.965C98.0131 248.965 98.0131 248.965 98.0131 248.97L98.0525 248.678C98.0356 248.818 98.0131 248.953 98.0018 249.094L100.144 248.801C100.144 248.801 100.139 248.785 100.139 248.773L100.178 249.066C100.178 249.066 100.178 249.027 100.178 249.01L100.139 249.303C100.139 249.303 100.15 249.252 100.155 249.229H98.0525C98.0525 249.229 98.0525 249.241 98.0525 249.252C98.0862 249.393 98.1537 249.517 98.2492 249.624C98.328 249.742 98.4292 249.838 98.5529 249.905C98.6766 249.984 98.8115 250.029 98.9577 250.035C99.1039 250.068 99.2501 250.063 99.3907 250.018L99.6494 249.905C99.8124 249.809 99.9417 249.68 100.043 249.511L100.155 249.252C100.206 249.06 100.206 248.863 100.155 248.672L100.172 248.661Z" fill="#656D4A"/>
<path d="M165.679 73.4101C164.875 66.0449 163.059 58.9049 160.011 52.1422C157.329 46.1847 153.629 40.6833 149.17 35.9083C144.897 31.3303 139.859 27.4169 134.421 24.3199C128.973 21.2172 123.058 18.8692 116.985 17.3207C110.833 15.7496 104.451 14.9557 98.1087 14.9219C91.7211 14.8881 85.2997 15.637 79.092 17.1236C72.8675 18.6158 66.8116 20.9075 61.1662 23.937C55.532 26.9551 50.2915 30.7841 45.7257 35.2663C41.0305 39.8837 37.0158 45.2612 33.9513 51.0948C30.6169 57.4408 28.3227 64.3218 27.0969 71.3773C25.68 79.5365 25.5282 87.8534 26.411 96.0857C27.4793 106.002 29.8522 115.721 33.1416 125.13C35.5538 132.039 38.3934 138.779 40.6594 145.745C42.9985 152.941 45.0115 160.25 46.6028 167.649C47.227 170.549 47.7893 173.466 48.2616 176.394C48.3572 176.985 48.4471 177.576 48.5315 178.162C48.5709 178.426 48.6046 178.686 48.644 178.95C48.644 178.978 48.6496 178.995 48.6552 179.018C48.6777 179.192 48.7002 179.367 48.7227 179.541C48.8464 180.527 48.9588 181.518 49.0432 182.509C49.1725 183.973 48.9813 185.69 49.4143 187.098C49.9147 188.731 51.3598 189.868 52.67 190.843C56.3642 193.579 60.7838 195.454 64.9729 197.296C71.1075 199.993 77.3545 202.442 83.6297 204.79C90.1917 207.251 96.7986 209.599 103.422 211.885C103.76 212.004 104.097 212.116 104.435 212.234C104.463 212.246 104.626 212.313 104.727 212.353C104.806 212.398 104.918 212.46 104.946 212.477C105.019 212.522 105.087 212.567 105.154 212.612C105.182 212.634 105.21 212.657 105.227 212.674C105.289 212.741 105.351 212.803 105.419 212.865C105.317 212.758 105.396 212.831 105.48 212.927C105.497 212.944 105.514 212.966 105.537 212.983C105.514 212.961 105.503 212.95 105.486 212.927C105.52 212.966 105.553 213.012 105.57 213.045C105.632 213.164 105.7 213.282 105.767 213.394C105.829 213.614 105.885 213.834 105.947 214.053C105.79 213.456 105.941 214.143 105.947 214.38C105.947 214.481 105.941 214.583 105.93 214.684C105.925 214.718 105.919 214.751 105.902 214.802C105.88 214.881 105.762 215.224 105.717 215.365C105.643 215.483 105.52 215.709 105.48 215.782C105.396 215.866 105.295 215.962 105.222 216.052C105.205 216.069 105.182 216.097 105.154 216.12C105.036 216.199 104.918 216.272 104.8 216.345C104.693 216.407 104.648 216.441 104.62 216.463C104.603 216.463 104.564 216.463 104.485 216.48C104.451 216.486 104.092 216.576 104.041 216.598C104.024 216.598 104.007 216.598 103.996 216.598C97.091 217.511 90.1298 218.107 83.208 218.879C81.0319 219.121 79.1145 219.707 77.3995 221.131C75.2516 222.916 74.0145 225.85 74.1326 228.632C74.2676 231.757 75.8645 234.499 78.4679 236.211C80.7114 237.68 83.208 238.84 85.6034 240.034C89.5057 241.977 93.526 243.751 97.1022 246.273C97.1247 246.296 97.1472 246.313 97.1866 246.346C97.3215 246.465 97.4565 246.572 97.5858 246.69C97.8838 246.96 98.1593 247.253 98.4349 247.546C98.4461 247.557 98.4517 247.563 98.463 247.574C98.5361 247.681 98.6204 247.788 98.6879 247.901C98.7666 248.024 98.8341 248.154 98.9072 248.278C98.9184 248.3 98.9297 248.329 98.9409 248.351C98.9634 248.469 99.014 248.599 99.0534 248.711C99.0759 248.779 99.0815 248.847 99.0984 248.914C99.0984 248.903 99.0984 248.897 99.104 248.886C99.104 248.875 99.104 248.875 99.1096 248.863C99.1096 248.886 99.104 248.909 99.0984 248.937C99.0984 248.937 99.0984 248.937 99.0984 248.942C99.149 249.094 99.0984 249.122 99.0815 249.072C99.0702 249.196 99.0534 249.342 99.059 249.472C99.059 249.483 99.059 249.494 99.0477 249.505C99.0028 249.657 98.9634 249.809 98.924 249.962C98.9016 250.04 98.8791 250.102 98.8622 250.159C98.7835 250.322 98.7104 250.48 98.626 250.643C98.418 251.026 98.1818 251.386 97.94 251.741C97.8782 251.831 97.8444 251.882 97.822 251.921C97.8107 251.938 97.7938 251.949 97.7713 251.977C97.5914 252.191 97.4171 252.405 97.2315 252.614C96.4162 253.537 95.5278 254.387 94.6056 255.193C91.9516 257.518 89.0165 259.506 86.0138 261.454C84.8274 262.226 84.3326 263.785 85.0748 265.047C85.7664 266.229 87.4702 266.764 88.6622 265.987C94.8362 261.983 110.4 252.338 101.814 243.475C98.9971 240.564 94.9936 238.812 91.4175 237.055C89.1346 235.929 86.8404 234.82 84.5969 233.626C83.3879 232.984 82.134 232.365 81.0038 231.599C81.0038 231.599 80.9363 231.548 80.8801 231.509C80.807 231.441 80.6833 231.334 80.6608 231.306C80.4978 231.143 80.3347 230.974 80.1829 230.8C80.1604 230.743 79.9073 230.383 79.8455 230.276C79.7836 230.169 79.733 230.056 79.6768 229.949C79.6543 229.899 79.6318 229.842 79.615 229.775C79.5362 229.527 79.4856 229.274 79.4125 229.026C79.4069 229.003 79.4013 228.986 79.3957 228.969C79.3844 228.857 79.3732 228.744 79.3732 228.632C79.3619 228.339 79.3788 228.052 79.39 227.759C79.3957 227.612 79.4856 227.308 79.39 227.759C79.4182 227.629 79.4406 227.5 79.4744 227.37C79.5306 227.151 79.6037 226.937 79.6768 226.717C79.6993 226.706 79.8849 226.255 79.9411 226.165C79.9917 226.075 80.1772 225.799 80.2391 225.698C80.2897 225.636 80.3516 225.563 80.3741 225.54C80.5034 225.405 80.6271 225.27 80.7677 225.14C80.8576 225.062 80.9476 224.983 81.0376 224.904C81.0657 224.887 81.0882 224.876 81.1275 224.853C81.3693 224.724 81.5942 224.577 81.836 224.459C81.8473 224.459 81.8529 224.459 81.8698 224.448C82.0272 224.397 82.179 224.347 82.3364 224.301C82.432 224.273 82.8762 224.183 82.91 224.166C83.1068 224.144 83.3036 224.121 83.5004 224.099C87.2284 223.688 90.9508 223.282 94.6787 222.871C97.822 222.528 100.971 222.207 104.114 221.835C106.695 221.531 109.006 220.36 110.265 217.978C111.592 215.467 111.486 212.263 109.788 209.948C107.78 207.217 104.125 206.564 101.094 205.505C97.8276 204.362 94.5663 203.202 91.3162 202.026C84.8668 199.683 78.4454 197.262 72.1027 194.643C67.5482 192.763 62.4988 190.617 57.9949 188.01C57.202 187.554 56.4204 187.07 55.6782 186.546C55.5995 186.49 55.5264 186.439 55.4477 186.377C55.4814 186.411 55.4421 186.383 55.3183 186.282C55.279 186.253 55.2453 186.225 55.2059 186.197C55.2396 186.22 55.2565 186.231 55.2846 186.248C55.2734 186.242 55.2734 186.237 55.2621 186.231C55.0091 186.011 54.7673 185.792 54.5255 185.555C54.5087 185.538 54.4862 185.51 54.4693 185.488C54.4693 185.465 54.4693 185.437 54.4693 185.414C54.4637 185.048 54.4468 184.688 54.4299 184.322C54.1825 179.564 53.3728 174.806 52.4675 170.132C51.1293 163.195 49.3862 156.331 47.3619 149.562C45.0903 141.983 42.2676 134.641 39.4899 127.242C37.6512 122.337 36.0374 117.348 34.7216 112.28C33.5296 107.702 32.5905 103.057 31.9439 98.3719C31.9327 98.2649 31.9102 98.1298 31.8989 98.0453C31.8652 97.7638 31.8314 97.4878 31.7977 97.2063C31.7302 96.6545 31.6684 96.097 31.6121 95.5396C31.5053 94.4809 31.4097 93.4223 31.3366 92.3637C31.1904 90.2521 31.1061 88.1293 31.1061 86.0121C31.1061 84.0187 31.1679 82.0254 31.3029 80.032C31.3704 79.0861 31.4491 78.1344 31.5503 77.1884C31.6009 76.7098 31.6571 76.2256 31.7134 75.7469C31.7359 75.578 31.7583 75.4091 31.7752 75.2401C31.7921 75.1106 31.8146 74.9755 31.8314 74.846C32.3488 71.2647 33.1247 67.7229 34.1818 64.2655C34.6823 62.6157 35.2502 60.9883 35.8799 59.3835C36.0261 59.0062 36.1836 58.6346 36.3354 58.263C36.3354 58.2517 36.341 58.2461 36.3466 58.2404C36.3579 58.2123 36.3691 58.1954 36.386 58.156C36.4816 57.9364 36.5772 57.7168 36.6728 57.4972C37.0045 56.7482 37.3531 56.005 37.713 55.2673C39.1469 52.3505 40.8056 49.5407 42.678 46.8829C43.1447 46.2241 43.6227 45.5822 44.1063 44.9346C44.1231 44.9121 44.14 44.8952 44.1625 44.8614C44.2693 44.7263 44.3818 44.5855 44.4886 44.4504C44.7529 44.1181 45.0228 43.7859 45.2983 43.4593C46.288 42.2712 47.3226 41.1225 48.3965 40.0188C49.4986 38.8814 50.6401 37.789 51.8265 36.7416C52.4001 36.2349 52.9792 35.7393 53.564 35.2551C53.8508 35.0186 54.1319 34.7877 54.4243 34.5625C54.5761 34.4386 54.7336 34.3204 54.8854 34.1965C54.9191 34.1739 54.9472 34.1514 54.9978 34.112C57.4607 32.2538 60.036 30.5589 62.7294 29.0498C64.0732 28.2953 65.4396 27.5914 66.8285 26.9326C67.5369 26.5948 68.2454 26.2738 68.9595 25.9641C69.1001 25.9022 69.2463 25.8402 69.3925 25.7783C69.4206 25.767 69.4431 25.7557 69.4825 25.7445C69.8423 25.5981 70.2078 25.446 70.5677 25.3053C73.4522 24.1622 76.4155 23.2106 79.4238 22.4391C80.8914 22.0619 82.3758 21.7353 83.8659 21.4481C84.6362 21.3017 85.4066 21.1666 86.1769 21.0427C86.5368 20.9864 86.9023 20.9301 87.2677 20.8738C87.4364 20.8512 87.5995 20.8287 87.7682 20.8005C87.83 20.7949 87.8919 20.7837 87.9537 20.778C94.0546 20.001 100.251 19.9503 106.363 20.6485C106.723 20.6879 107.089 20.733 107.448 20.778C107.476 20.778 107.488 20.778 107.51 20.7837C107.713 20.8174 107.921 20.84 108.123 20.8738C108.865 20.9807 109.608 21.1046 110.35 21.2341C111.851 21.5044 113.347 21.8141 114.826 22.1745C117.778 22.8952 120.685 23.7962 123.513 24.8886C123.873 25.0294 124.227 25.1701 124.587 25.3109C124.744 25.3728 124.896 25.4404 125.054 25.5024C125.099 25.5192 125.121 25.5305 125.149 25.5418C125.149 25.5418 125.149 25.5418 125.155 25.5418C125.858 25.8571 126.561 26.1555 127.258 26.4821C128.602 27.1128 129.923 27.7885 131.222 28.5093C133.887 29.9902 136.356 31.7076 138.819 33.4926C138.97 33.6109 139.122 33.7291 139.268 33.8474C139.566 34.0895 139.864 34.3316 140.162 34.5737C140.753 35.0636 141.332 35.5704 141.906 36.0828C143.036 37.102 144.127 38.1663 145.173 39.2699C146.23 40.3848 147.236 41.5392 148.203 42.7329C148.327 42.885 148.451 43.037 148.569 43.1947C148.591 43.2172 148.636 43.2848 148.687 43.3467C148.766 43.4481 148.895 43.617 148.923 43.6564C149.058 43.8309 149.187 44.0111 149.322 44.1913C149.778 44.8107 150.222 45.4358 150.649 46.0721C152.437 48.7186 154 51.5115 155.333 54.4114C155.496 54.7662 155.654 55.1209 155.811 55.4757C155.867 55.6052 155.924 55.7347 155.952 55.7966C156.008 55.9374 156.07 56.0782 156.126 56.2189C156.435 56.9791 156.728 57.7449 157.003 58.5164C157.588 60.1437 158.105 61.7992 158.561 63.4715C159.01 65.1496 159.398 66.8445 159.719 68.5506C159.888 69.4572 160.045 70.3638 160.18 71.276C160.214 71.5069 160.248 71.7377 160.281 71.9686C160.281 71.9686 160.281 71.9686 160.281 71.9742C160.281 72.0024 160.281 72.0136 160.293 72.053C160.354 72.5542 160.416 73.0497 160.467 73.5509C160.883 77.4475 160.995 81.3722 160.849 85.2913C160.776 87.2903 160.636 89.2836 160.439 91.277C160.382 91.8232 160.326 92.3693 160.259 92.9155C160.231 93.1577 160.203 93.3998 160.169 93.6363C160.163 93.6982 160.118 94.0417 160.096 94.2107C160.079 94.3458 160.039 94.6273 160.028 94.7062C160 94.9089 159.972 95.1116 159.938 95.3087H131.503C129.76 95.3087 128.922 96.7051 128.979 98.0566C128.939 98.248 128.917 98.4507 128.917 98.6591V124.083C128.917 124.235 128.917 124.392 128.917 124.544C128.917 124.803 128.905 125.062 128.889 125.316C128.889 125.338 128.883 125.389 128.877 125.445C128.86 125.547 128.838 125.671 128.827 125.727C128.765 126.042 128.681 126.357 128.591 126.662C128.54 126.825 128.484 126.988 128.427 127.151C128.427 127.151 128.427 127.151 128.427 127.157C128.146 127.703 127.876 128.238 127.522 128.739C127.449 128.824 127.382 128.914 127.303 128.998C127.078 129.252 126.842 129.488 126.594 129.719C126.488 129.815 126.375 129.911 126.268 130.006C126.021 130.175 125.773 130.35 125.515 130.502C125.256 130.654 124.992 130.789 124.722 130.919C124.581 130.969 124.441 131.02 124.295 131.071C123.991 131.172 123.676 131.256 123.367 131.324C123.226 131.352 123.091 131.38 122.951 131.403C122.608 131.437 122.27 131.442 121.927 131.442C121.303 131.442 120.679 131.442 120.055 131.442H117.536V78.5624C117.536 77.0195 117.536 75.4823 117.041 73.9845C116.175 71.3661 114.353 69.0405 111.89 67.7567C109.422 66.4672 106.487 66.1012 103.799 66.9064C99.2446 68.2747 96.1238 72.5035 96.0901 77.256C96.0901 77.8135 96.0901 78.3709 96.0901 78.9284V172.407C96.0901 172.537 96.0901 172.672 96.0901 172.801C96.0901 172.852 96.0901 172.897 96.0901 172.959C96.0845 173.263 95.882 174.063 96.1182 173.077C96.062 173.319 96.0339 173.561 95.972 173.804C95.9326 173.944 95.8933 174.085 95.8483 174.226C95.8371 174.265 95.7977 174.361 95.764 174.451C95.764 174.451 95.764 174.451 95.764 174.457C95.7021 174.586 95.629 174.71 95.5615 174.84C95.4603 175.009 95.3535 175.177 95.241 175.341C95.1904 175.397 95.1454 175.453 95.0948 175.51C94.9037 175.718 94.69 175.893 94.4876 176.09C94.4145 176.14 94.347 176.191 94.2739 176.236C94.0883 176.354 93.8915 176.467 93.6947 176.563C93.7341 176.551 93.7791 176.54 93.8297 176.523C93.7566 176.546 93.6779 176.58 93.6048 176.608C93.5204 176.647 93.4305 176.67 93.3799 176.681C93.1606 176.754 92.9356 176.81 92.7051 176.861C92.93 176.822 92.767 176.861 92.5926 176.889C92.5814 176.889 92.5758 176.889 92.5645 176.895C92.4689 176.912 92.3677 176.929 92.2721 176.946C92.3621 176.929 92.4408 176.912 92.5083 176.901C92.4914 176.901 92.4802 176.901 92.4633 176.901C92.2609 176.912 92.0528 176.917 91.8504 176.912C91.7267 176.912 91.603 176.9 91.4849 176.895C91.2319 176.844 90.9789 176.794 90.7258 176.715C90.6527 176.692 90.574 176.664 90.5009 176.641C90.5347 176.664 90.574 176.687 90.619 176.709C90.5684 176.681 90.5178 176.658 90.4616 176.63H90.4503C90.3266 176.585 90.1973 176.506 90.1692 176.484C90.1073 176.45 90.0398 176.422 89.978 176.388C89.7981 176.287 89.635 176.168 89.4663 176.056C89.3482 175.949 89.2245 175.842 89.1064 175.724C89.0558 175.673 89.0052 175.617 88.9602 175.56C88.9265 175.543 88.8253 175.448 88.7466 175.335C88.7353 175.324 88.7297 175.307 88.7185 175.296C88.6847 175.262 88.6566 175.228 88.6285 175.194C88.6566 175.217 88.6791 175.239 88.7016 175.262C88.6622 175.206 88.6285 175.149 88.5947 175.093C88.471 174.896 88.3642 174.693 88.2574 174.485C88.2743 174.536 88.2855 174.586 88.308 174.648C88.2855 174.581 88.263 174.507 88.2349 174.44C88.218 174.406 88.2012 174.372 88.1787 174.338C88.1224 174.226 88.0999 174.113 88.128 174.147C88.128 174.13 88.1168 174.113 88.1112 174.096C88.0437 173.877 87.9875 173.651 87.9425 173.432C87.9425 173.477 87.9425 173.528 87.9481 173.578C87.9481 173.516 87.9369 173.454 87.9313 173.387C87.9313 173.387 87.9313 173.387 87.9313 173.381C87.8975 173.212 87.9031 172.953 87.9144 173.066C87.9144 172.976 87.9088 172.88 87.9088 172.79C87.9088 172.683 87.9088 172.582 87.9088 172.475V131.149C87.9088 129.798 87.9481 128.475 87.712 127.135C87.2396 124.443 85.3166 121.892 82.865 120.682C81.4986 120.006 80.0704 119.634 78.541 119.623C78.018 119.623 77.4951 119.623 76.9722 119.623C76.3143 119.623 75.6564 119.623 75.0042 119.623C74.7511 119.623 74.4981 119.623 74.2451 119.606C74.127 119.6 74.0145 119.589 73.8965 119.578C73.6266 119.527 73.3623 119.477 73.098 119.409C72.8618 119.347 72.6201 119.274 72.3895 119.195C72.2489 119.15 72.114 119.094 71.9734 119.043C71.5348 118.885 72.2714 119.172 72.2771 119.172C71.771 119.065 71.175 118.621 70.7476 118.333C70.5283 118.187 69.9267 117.618 70.6464 118.288C70.4721 118.125 70.2753 117.984 70.0954 117.821C69.8817 117.624 69.6793 117.421 69.4825 117.207C69.2857 116.988 68.7571 116.188 69.3025 117.033C69.027 116.605 68.7234 116.199 68.4816 115.749C68.3523 115.512 68.2567 115.265 68.1273 115.028C68.5997 115.918 68.1555 115.068 68.0599 114.775C67.9137 114.319 67.8125 113.857 67.7225 113.384C67.7113 113.277 67.7 113.164 67.6944 113.052C67.6831 112.843 67.6775 112.635 67.6775 112.432C67.6775 112.072 67.6775 111.712 67.6775 111.346V83.343C67.6775 81.7889 66.3111 80.3023 64.7142 80.3755C63.1061 80.4487 61.751 81.6819 61.751 83.343V111.475C61.751 114.521 62.3301 117.517 64.1857 120.023C65.8557 122.281 68.0261 123.925 70.6801 124.871C72.4345 125.496 74.2844 125.564 76.1288 125.564H78.2542C78.4341 125.564 78.6141 125.564 78.7884 125.564C78.8671 125.564 78.9458 125.575 79.0302 125.58C79.2888 125.637 79.5475 125.699 79.7949 125.783C79.7612 125.761 79.7218 125.738 79.6824 125.716C79.7443 125.755 79.8118 125.783 79.8792 125.811C79.9748 125.851 80.0648 125.901 80.1042 125.93C80.2672 126.02 80.4247 126.115 80.5821 126.217C80.5427 126.177 80.4978 126.138 80.4415 126.082C80.4978 126.138 80.5652 126.189 80.6271 126.245C80.7452 126.318 80.852 126.431 80.8239 126.419C80.987 126.571 81.1388 126.735 81.285 126.904C81.3243 126.966 81.3693 127.028 81.4087 127.09C81.4761 127.196 81.5774 127.337 81.6673 127.484C81.6729 127.506 81.6786 127.529 81.6898 127.557C81.7348 127.698 81.7854 127.838 81.8304 127.979C81.8641 128.097 81.8979 128.221 81.926 128.34C81.9316 128.362 81.9372 128.39 81.9428 128.418C81.9653 129.376 81.9822 130.333 81.9822 131.296V171.067C81.9822 172.711 81.9316 174.361 82.4883 175.943C83.3936 178.517 85.2435 180.775 87.7682 181.889C90.5853 183.134 93.5879 183.117 96.3937 181.833C99.9081 180.223 102.034 176.478 102.045 172.677C102.045 170.588 102.045 168.505 102.045 166.416V84.0244C102.045 81.8283 102.045 79.6266 102.045 77.4306C102.045 77.3686 102.045 77.3123 102.045 77.2504V77.2222C102.045 77.1209 102.045 77.0139 102.05 76.9125C102.05 76.7943 102.067 76.6704 102.073 76.5521C102.073 76.5352 102.079 76.5184 102.084 76.5015C102.18 76.0116 102.354 75.5611 102.506 75.0881C102.202 76.0397 102.472 75.2064 102.613 74.9473C102.731 74.739 102.86 74.5363 102.995 74.3392C102.973 74.3617 102.944 74.3899 102.916 74.418C102.956 74.3786 102.989 74.3392 103.023 74.2942C103.051 74.2491 103.085 74.2041 103.113 74.159C103.181 74.0577 103.259 74.0013 103.254 74.0295C103.377 73.8944 103.507 73.7648 103.642 73.641C103.642 73.6241 103.72 73.534 103.827 73.4608C103.855 73.4439 103.883 73.427 103.912 73.4045C103.951 73.3707 103.99 73.3369 104.03 73.2975C104.002 73.3256 103.979 73.3482 103.951 73.3763C104.17 73.2299 104.39 73.0891 104.62 72.9596C104.867 72.8245 105.638 72.588 104.699 72.8864C104.929 72.8132 105.154 72.7119 105.39 72.6443C105.627 72.5711 105.863 72.5204 106.099 72.4697C106.043 72.4697 105.981 72.4697 105.913 72.4754C105.992 72.4754 106.071 72.4641 106.149 72.4585C106.183 72.4528 106.217 72.4416 106.251 72.436C106.374 72.4078 106.498 72.4191 106.464 72.436C106.481 72.436 106.498 72.436 106.521 72.436C106.729 72.4303 106.931 72.4303 107.139 72.436C107.291 72.4416 107.443 72.4585 107.595 72.4697C108.084 72.4979 107.252 72.4191 107.257 72.4191C107.763 72.3402 108.494 72.7456 108.961 72.8921C108.028 72.5936 108.792 72.8301 109.04 72.9653C109.253 73.0779 109.456 73.2074 109.658 73.3425C109.776 73.4214 109.889 73.5171 110.012 73.5959C109.951 73.5565 109.894 73.5171 109.849 73.4889C109.849 73.4889 109.855 73.4889 109.861 73.4946C110.074 73.686 110.282 73.8887 110.474 74.0971C110.53 74.159 110.586 74.2266 110.637 74.2885C110.76 74.4631 110.878 74.6433 110.985 74.8291C111.03 74.9079 111.075 74.9924 111.115 75.0768C111.103 75.0149 111.176 75.105 111.216 75.2289C111.238 75.2908 111.261 75.3528 111.283 75.4147C111.306 75.4541 111.323 75.4935 111.345 75.5329C111.323 75.4992 111.306 75.4654 111.289 75.4316C111.328 75.5498 111.368 75.6625 111.407 75.7807C111.474 76.0059 111.531 76.2368 111.576 76.4677C111.576 76.417 111.576 76.3663 111.576 76.31C111.576 76.3888 111.587 76.4733 111.598 76.5521C111.598 76.5352 111.598 76.5184 111.592 76.5015C111.592 76.4902 111.592 76.4789 111.587 76.4677C111.604 76.8844 111.621 76.8956 111.621 76.783C111.626 76.935 111.637 77.0871 111.637 77.2391C111.637 77.3179 111.637 77.3911 111.637 77.47V134.415C111.637 136.02 112.998 137.383 114.601 137.383H118.773C120.291 137.383 121.86 137.484 123.367 137.298C126.662 136.887 129.788 135.401 131.897 132.765C133.792 130.389 134.871 127.579 134.883 124.516C134.894 122.269 134.883 120.023 134.883 117.77V106.03C134.883 104.206 134.899 102.381 134.888 100.557H162.199C163.25 100.557 164.543 99.7458 164.729 98.6253C166.101 90.2859 166.641 81.7833 165.719 73.3594L165.679 73.4101ZM98.8791 250.187C98.8003 250.356 98.8285 250.322 98.8791 250.187V250.187ZM99.0984 249.438C99.1265 249.291 99.1827 249.151 99.0984 249.438V249.438ZM105.463 215.838C105.329 216.086 105.39 215.951 105.463 215.838V215.838ZM105.941 214.673C105.958 214.537 105.97 214.543 105.941 214.673V214.673ZM105.12 212.578C105.019 212.505 105.059 212.533 105.12 212.578V212.578ZM81.6673 127.585C81.7292 127.692 81.7742 127.799 81.7854 127.895C81.7854 127.895 81.7179 127.72 81.6673 127.585ZM81.8979 128.469C81.9147 129.004 81.9316 128.717 81.8979 128.469V128.469ZM127.325 129.038C127.325 129.038 127.359 128.993 127.421 128.92C127.393 128.965 127.359 129.01 127.325 129.038Z" fill="#656D4A"/>
<path d="M166.776 73.4101C165.409 61.2192 161.31 49.4449 153.787 39.6697C146.438 30.114 136.378 23.0472 125.161 18.7621C101.657 9.78646 73.3229 13.058 52.8499 27.8504C43.1054 34.889 35.3851 44.4222 30.6619 55.4981C25.6181 67.3287 24.0662 80.4036 25.0558 93.1745C26.0623 106.182 29.5317 118.744 34.0975 130.913C36.4366 137.146 38.8207 143.346 40.7775 149.714C42.7343 156.083 44.4043 162.435 45.765 168.905C46.4454 172.137 47.0414 175.38 47.5137 178.652C47.6993 179.93 47.8624 181.219 47.9579 182.509C48.0704 184.001 47.9242 185.533 48.2672 187.002C48.8295 189.412 50.91 190.955 52.8274 192.295C55.3352 194.041 58.0848 195.404 60.8625 196.665C72.8393 202.099 85.1985 206.654 97.597 211.018C99.1321 211.559 100.673 212.094 102.213 212.629C102.989 212.899 104.063 213.045 104.654 213.653C105.649 214.678 107.094 213.164 106.2 212.105L106.161 212.06L104.614 213.608C104.665 213.665 104.716 213.715 104.766 213.772L106.313 212.223L106.262 212.167C105.418 211.305 103.799 212.465 104.547 213.49C104.732 213.743 104.822 214.053 104.901 214.357L107.004 213.777L106.942 213.558C106.695 212.696 105.75 212.584 105.115 213.073H105.104C104.783 213.332 104.772 213.783 104.822 214.143C104.856 214.391 104.845 214.543 104.761 214.785C104.688 214.994 104.063 215.607 104.485 215.393C104.451 215.41 103.675 215.579 103.996 215.517C103.186 215.675 102.343 215.731 101.527 215.833C98.5585 216.193 95.5897 216.508 92.6151 216.818C89.6406 217.128 86.6661 217.415 83.6972 217.747C81.3468 218.012 79.1033 218.507 77.1634 219.943C73.5759 222.607 72.1084 227.596 73.6378 231.796C75.3584 236.532 80.0423 238.519 84.2482 240.592C86.9472 241.921 89.68 243.193 92.3227 244.629C93.706 245.384 95.0892 246.178 96.3656 247.095C96.9504 247.518 96.1519 246.904 96.5174 247.214C96.7705 247.433 97.0122 247.658 97.2484 247.895C97.6533 248.3 97.9175 248.644 98.0469 249.213C98.2774 250.237 99.9474 250.277 100.15 249.213C100.15 249.196 100.155 249.179 100.161 249.162L98.0188 248.869C98.0075 248.948 98.075 249.46 98.03 249.089L99.4132 248.036L99.3795 248.024C98.6766 247.782 98.03 248.413 97.9963 249.077C97.9232 250.525 96.4668 251.899 95.5222 252.856C94.0771 254.314 92.4746 255.626 90.827 256.848C89.2751 257.997 87.6726 259.078 86.0532 260.137C84.7824 260.964 83.7422 261.961 83.6522 263.566C83.4835 266.471 86.7561 268.346 89.2189 266.944C91.1251 265.858 92.9525 264.529 94.7293 263.245C98.6429 260.418 102.933 257.017 104.766 252.388C106.909 246.983 103.259 242.557 98.8734 239.753C95.421 237.545 91.5636 235.952 87.9087 234.116C85.9126 233.114 83.8096 232.151 81.9372 230.918C80.8801 230.225 80.2447 228.885 80.4809 227.838H78.3779L78.3386 227.483C78.0687 228.857 80.1548 229.448 80.4415 228.063C80.6608 227.032 81.0488 226.126 82.0272 225.613C83.1686 225.017 84.6756 225.079 85.9295 224.943C89.8374 224.515 93.7453 224.082 97.6533 223.66C99.6381 223.446 101.629 223.243 103.614 223.006C105.07 222.832 106.447 222.567 107.769 221.903C110.372 220.585 111.975 217.933 112.228 215.061C112.487 212.122 111.216 209.273 108.843 207.533C106.47 205.793 103.585 205.241 100.915 204.312C93.4867 201.722 86.0813 199.036 78.7546 196.169C74.7568 194.604 70.7645 192.999 66.8397 191.254C63.1286 189.598 59.2825 187.858 55.9875 185.454C55.6726 185.229 55.2003 185.279 54.8854 185.454H54.8798C55.3183 185.516 55.7626 185.572 56.2011 185.628C56.0493 185.51 55.8975 185.392 55.7457 185.279L54.6436 187.166L54.7223 187.216C55.7344 187.909 57.0108 186.287 56.0437 185.499C55.7682 185.274 55.4589 185.015 55.2284 184.739L55.5489 185.51C54.8516 174.795 52.6025 164.265 49.7348 153.926C46.7996 143.363 42.6443 133.289 39.0737 122.945C32.0957 102.758 28.885 80.0827 36.9145 59.6988C38.5339 55.5882 41.2498 50.6499 44.1625 46.6689C47.0752 42.6878 50.7132 38.9771 54.6042 35.8125C62.2964 29.5509 71.6248 25.3728 81.24 23.1317C91.1475 20.823 101.629 20.5978 111.609 22.6024C114.23 23.1261 116.816 23.7962 119.358 24.607C120.578 24.9955 121.781 25.4179 122.979 25.874C124.177 26.3301 124.632 26.5271 125.639 26.972C130.131 28.9766 134.489 31.5161 138.369 34.5568C146.061 40.5875 152.128 48.7523 155.586 57.9138C159.421 68.0663 160.349 77.9767 159.539 88.8162C159.382 90.8997 159.168 92.9831 158.864 95.0553L159.916 94.25H132.195C131.2 94.25 130.261 94.2895 129.411 94.8694C127.966 95.8492 127.815 97.5835 127.803 99.1827C127.786 101.79 127.803 104.397 127.803 107.01V122.928C127.803 125.378 127.646 127.551 125.554 129.179C123.311 130.924 120.167 130.395 117.508 130.395L118.599 131.487V82.549C118.599 79.559 118.975 76.248 117.941 73.3819C116.164 68.4943 111.463 65.2115 106.234 65.4367C101.488 65.645 97.3496 68.8378 95.6965 73.2524C94.78 75.7131 94.9655 78.3258 94.9655 80.9048V169.378C94.9655 170.639 95.1511 172.047 94.9205 173.285C94.7293 174.316 95.927 175.166 96.748 174.35C97.0066 174.091 97.0629 173.742 97.1416 173.404L95.0386 172.824C94.78 174.13 94.3864 174.963 93.1043 175.65C92.0079 176.236 92.7613 177.987 93.9478 177.649L94.0827 177.61L93.5035 175.504C93.1324 175.639 92.7613 175.752 92.379 175.842C90.9789 176.18 91.6086 178.151 92.9581 177.948L93.065 177.931L92.4858 175.825C92.3115 175.87 92.1203 175.893 91.946 175.926L92.5252 178.032L92.7613 177.987C93.959 177.751 93.7003 175.735 92.4689 175.842C91.8673 175.893 91.3219 175.814 90.7539 175.622C89.5675 175.234 88.8478 177.013 89.9105 177.621L90.0286 177.689L91.1307 175.802C90.5347 175.498 89.8655 175.008 89.3595 174.451L87.8132 176L87.8863 176.067C88.7466 176.906 90.3041 175.808 89.6012 174.744C89.4382 174.496 89.292 174.237 89.1514 173.972C88.5723 172.874 86.801 173.629 87.1553 174.817L87.2059 174.98L89.3089 174.4C88.9321 173.308 89.3426 174.958 89.1739 174.186C89.1008 173.854 89.0277 173.516 88.949 173.178C88.6791 171.985 86.7504 172.232 86.8067 173.471V173.618H88.9996C88.9715 173.291 88.9602 173.207 88.9546 173.1L87.5714 174.153H87.5826C88.2461 174.389 88.9827 173.775 88.9659 173.1C88.8309 168.578 88.9602 164.034 88.9602 159.507V145.018C88.9602 140.255 88.9546 135.496 88.9602 130.733C88.9602 128.756 88.9153 126.797 88.1337 124.95C87.4308 123.289 86.3062 121.83 84.878 120.732C83.1911 119.431 81.0825 118.711 78.9627 118.581C77.72 118.508 76.4605 118.57 75.2178 118.564C74.0933 118.564 73.1486 118.333 72.0915 117.973C70.9332 117.579 70.1235 119.443 71.2481 119.972C71.4786 120.079 71.7148 120.169 71.9509 120.259L72.5301 118.153C71.979 117.973 71.473 117.607 71.04 117.23C69.9885 116.318 68.4535 117.815 69.4937 118.778C69.6062 118.885 69.7242 118.987 69.8367 119.094L71.383 117.545C70.7926 117.038 70.3203 116.481 69.803 115.912C68.9708 114.994 67.4357 116.182 68.088 117.235C68.1667 117.359 68.2454 117.483 68.3241 117.607L70.2078 116.503C69.7749 115.845 69.3812 115.208 69.0383 114.499L67.1546 115.602C67.222 115.732 67.2951 115.861 67.3682 115.991C67.9587 117.055 69.7692 116.34 69.3644 115.146C68.9933 114.048 68.7402 113.091 68.7402 111.909C68.7402 110.067 68.7402 108.22 68.7402 106.379V95.0158C68.7402 91.153 68.9595 87.217 68.7402 83.3655C68.594 80.8147 66.3224 78.7538 63.7246 79.4408C62.6113 79.7392 61.6273 80.4881 61.0818 81.5073C60.3284 82.9263 60.6264 84.762 60.6264 86.2992V109.009C60.6264 112.241 60.6095 115.439 61.959 118.446C63.3085 121.453 65.9625 124.015 68.982 125.389C70.6633 126.155 72.4064 126.532 74.2451 126.639C75.9376 126.735 77.8269 126.386 79.4631 126.864C80.6608 127.219 81.3581 125.502 80.3066 124.865L80.1941 124.798L79.092 126.684C79.4013 126.836 79.6993 127.005 79.9917 127.185C81.0432 127.821 82.224 126.329 81.3131 125.468L81.1725 125.333L79.6262 126.881C79.7555 126.994 79.9073 127.106 80.0367 127.213C80.0985 127.264 79.4856 126.6 80.0142 127.219C80.2672 127.517 80.5146 127.731 80.6664 128.086C80.9082 128.638 80.8239 129.297 80.8351 129.888C80.8464 130.783 80.8464 131.679 80.8464 132.574V170.402C80.8464 173.167 80.8857 175.741 82.2577 178.224C84.7262 182.683 90.0173 184.868 94.9318 183.539C99.6831 182.25 102.866 177.948 103.079 173.077C103.349 166.906 103.085 160.667 103.085 154.489V94.8469C103.085 91.2488 103.085 87.6562 103.085 84.0581C103.085 81.2483 102.624 78.1006 103.507 75.409L101.404 74.8291C101.353 74.9755 101.308 75.1219 101.263 75.2739C100.853 76.6647 102.843 77.1152 103.366 75.8539C103.507 75.516 103.681 75.2288 103.883 74.9191C104.575 73.8662 103.034 72.7344 102.168 73.5959L102.09 73.6747L103.636 75.2232C103.777 75.0655 104.266 74.4293 103.495 75.1162C103.653 74.9755 103.9 74.891 104.075 74.7333C104.249 74.5757 104.373 74.3786 104.541 74.2209C104.232 74.5137 104.626 74.2209 104.755 74.1027L103.209 72.5542L103.13 72.633C102.281 73.4945 103.389 75.043 104.451 74.3504C104.755 74.1533 105.053 73.9563 105.396 73.8268C106.678 73.3312 106.183 71.2872 104.817 71.7208C104.665 71.7658 104.513 71.8165 104.361 71.8672L104.941 73.9732C105.407 73.8099 105.857 73.6635 106.341 73.5565C107.538 73.2918 107.28 71.366 106.048 71.4111H105.863V73.6071C106.043 73.5959 106.217 73.5621 106.391 73.5508C106.166 73.5677 105.919 73.5508 106.442 73.5621C106.858 73.5677 107.274 73.579 107.696 73.5959C108.905 73.6466 109.214 71.6645 107.988 71.4505C107.73 71.4055 107.471 71.3829 107.207 71.3548V73.5396C107.701 73.5452 108.168 73.8042 108.624 73.9732L109.203 71.8672C109.051 71.8165 108.905 71.7715 108.753 71.7264C107.387 71.2985 106.892 73.3369 108.174 73.8324C108.624 74.0069 109.017 74.2829 109.411 74.5644L110.513 72.6781L110.35 72.5711C109.326 71.8954 108.078 73.4776 109.028 74.2885C109.608 74.784 110.046 75.9947 110.811 76.1692L110.159 75.6681C110.232 75.8145 110.282 75.9721 110.361 76.1185L112.245 75.0149L112.188 74.9135C111.581 73.8662 109.793 74.5531 110.192 75.7581C110.305 76.1016 110.4 76.4395 110.479 76.7942C110.749 77.9936 112.661 77.7346 112.621 76.5014V76.3438H110.434L110.457 76.5859L112.599 76.2931C112.599 76.2931 112.588 76.2368 112.582 76.2086C112.318 75.0149 110.372 75.2626 110.44 76.5014C110.451 76.7267 110.474 76.9463 110.507 77.1715C110.698 78.4779 112.548 78.0105 112.65 76.8787V76.8224H110.474C110.743 84.9196 110.49 93.0676 110.49 101.17V132.551C110.49 134.122 110.35 135.66 111.384 136.96C112.419 138.261 113.724 138.52 115.242 138.52C117.17 138.52 119.093 138.548 121.022 138.548C127.764 138.548 133.831 134.657 135.507 127.883C136.013 125.845 135.928 123.75 135.928 121.667C135.928 119.403 135.928 117.14 135.928 114.882C135.928 110.124 135.945 105.365 135.934 100.607L134.843 101.7H158.347C160.208 101.7 162.508 102.122 164.167 101.097C165.932 100.01 165.927 97.9214 166.185 96.0744C166.54 93.5631 166.821 91.0404 167.001 88.5065C167.355 83.4781 167.31 78.4272 166.776 73.4101C166.63 72.0249 164.442 72.008 164.594 73.4101C165.072 77.9429 165.162 82.4983 164.909 87.0481C164.78 89.323 164.572 91.5866 164.296 93.8502C164.15 95.044 163.981 96.2378 163.796 97.4259C163.644 98.4 163.559 99.2052 162.463 99.4755C161.513 99.712 160.276 99.5149 159.303 99.5149H134.849C134.258 99.5149 133.758 100.016 133.758 100.607C133.775 108.108 133.764 115.614 133.758 123.114C133.758 126.543 133.128 129.652 130.84 132.332C128.855 134.657 125.897 136.014 122.878 136.296C121.196 136.454 119.493 136.335 117.811 136.335C116.389 136.335 113.954 136.887 113.009 135.485C112.537 134.776 112.689 133.841 112.689 133.03V101.919C112.689 93.5687 112.953 85.173 112.672 76.828C112.621 75.4034 110.62 75.4428 110.49 76.828V76.8843C111.199 76.7886 111.913 76.6929 112.627 76.5915L112.638 76.5071L110.496 76.7999C110.496 76.7999 110.507 76.8562 110.513 76.8843C110.721 78.0893 112.762 77.8247 112.655 76.5915L112.633 76.3494C112.515 74.9698 110.406 74.9248 110.451 76.3494V76.5071C111.171 76.4113 111.885 76.3156 112.599 76.2143C112.52 75.8595 112.425 75.5216 112.312 75.1782L110.316 76.0228L110.372 76.1242C111.081 77.3404 112.931 76.2593 112.256 75.0205C112.025 74.5926 111.919 74.1871 111.368 74.0576L112.02 74.5588C111.654 73.8605 111.182 73.258 110.58 72.74L109.259 74.4574L109.422 74.5644C110.608 75.3471 111.654 73.4833 110.524 72.6781C109.962 72.2726 109.411 71.9742 108.764 71.7264L108.185 73.8324C108.337 73.8774 108.483 73.9281 108.635 73.9732C109.99 74.4067 110.513 72.3458 109.214 71.8672C108.545 71.6194 107.943 71.366 107.218 71.3548C105.79 71.3323 105.846 73.4044 107.218 73.5396C107.252 73.5396 107.578 73.5846 107.42 73.5565L107.713 71.4111C107.51 71.3998 107.308 71.3829 107.105 71.3717C107.032 71.3717 106.268 71.3886 106.582 71.3886C106.717 71.3886 106.054 71.4111 105.88 71.4224C104.496 71.5293 104.463 73.6578 105.88 73.6071H106.065C105.97 72.8864 105.874 72.1713 105.773 71.4505C105.289 71.5575 104.834 71.6983 104.373 71.8672C103.062 72.3346 103.602 74.4067 104.952 73.9732C105.104 73.9225 105.255 73.8774 105.407 73.8268L104.828 71.7208C104.3 71.9235 103.844 72.1544 103.366 72.4641L104.688 74.1815L104.766 74.1027C105.762 73.0947 104.266 71.6251 103.22 72.5542C103.169 72.5992 102.573 73.2299 102.764 73.0497C103.006 72.8188 102.433 73.2749 102.405 73.2974C102.287 73.3988 102.208 73.5565 102.107 73.6691C101.179 74.7164 102.641 76.2143 103.653 75.2176L103.732 75.1388L102.017 73.8155C101.702 74.2941 101.494 74.7502 101.274 75.2739L103.377 75.8539C103.422 75.7075 103.467 75.5554 103.518 75.409C103.945 74.0632 101.848 73.4945 101.415 74.8291C100.678 77.0645 100.915 79.3732 100.915 81.7044C100.915 84.6156 100.915 87.5267 100.915 90.4323V163.707C100.915 166.703 100.976 169.71 100.915 172.705C100.87 174.986 100.082 177.233 98.5248 178.933C94.8249 182.976 87.8919 182.548 84.7431 178.066C83.0843 175.707 83.0393 173.178 83.0393 170.402V141.285C83.0393 137.805 83.0562 134.325 83.0393 130.851C83.0337 129.657 83.163 128.351 82.6907 127.225C82.3702 126.464 81.7179 125.8 81.1781 125.338C80.1266 124.432 78.6028 125.907 79.6318 126.887L79.7724 127.022L81.0938 125.304C80.8014 125.124 80.5034 124.955 80.1941 124.803C78.9402 124.195 77.8719 125.958 79.092 126.69L79.2045 126.757L80.0479 124.758C77.4051 123.981 74.5206 124.803 71.8216 124.111C69.1226 123.418 66.7441 121.706 65.0966 119.499C63.3647 117.173 62.8362 114.347 62.8137 111.503C62.7856 108.192 62.8137 104.881 62.8137 101.57V84.8408C62.8137 84.0468 62.6394 83.0333 63.1342 82.3407C63.8595 81.3158 65.3328 81.2201 66.12 82.2055C67.0084 83.3148 66.5642 85.4827 66.5642 86.8229V107.578C66.5642 109.206 66.5361 110.839 66.5642 112.466C66.5754 113.215 66.6598 113.913 66.8509 114.64C66.9128 114.87 66.9634 115.045 67.0421 115.253C67.0534 115.287 67.3795 116.098 67.2614 115.743L69.2575 114.899C69.1844 114.769 69.117 114.64 69.0439 114.51C68.3747 113.26 66.5473 114.358 67.1602 115.614C67.5032 116.323 67.8968 116.965 68.3298 117.618C69.1001 118.784 70.9782 117.708 70.2134 116.515C70.1347 116.391 70.056 116.267 69.9773 116.143L68.2623 117.466C68.0599 117.241 68.5828 117.9 68.6278 117.956C68.9876 118.378 69.415 118.739 69.8367 119.099C70.8938 120.006 72.4232 118.514 71.383 117.551C71.2705 117.444 71.1525 117.342 71.04 117.235L69.4937 118.784C70.2247 119.415 71.0288 119.966 71.9509 120.27C73.306 120.71 73.8177 118.66 72.5301 118.164C72.502 118.153 72.1983 118.024 72.3501 118.097L71.5067 120.096C73.2723 120.698 74.8299 120.766 76.691 120.766C78.7771 120.766 80.7283 120.817 82.6063 121.853C84.1751 122.72 85.4347 124.161 86.1319 125.811C86.9191 127.669 86.7785 129.713 86.7785 131.69C86.7785 140.637 86.7785 149.585 86.7785 158.532C86.7785 163.386 86.638 168.263 86.7842 173.117L88.1674 172.064H88.1562C87.4927 171.827 86.7561 172.441 86.7729 173.117C86.7729 173.19 86.8404 173.933 86.8179 173.635C86.9304 175.02 89.0614 175.054 88.9996 173.635V173.488C88.2799 173.584 87.5658 173.68 86.846 173.781C86.891 174.006 86.9472 174.226 87.0147 174.445C87.0484 173.86 87.0372 173.792 86.9866 174.248C87.0709 174.49 87.1215 174.749 87.2059 174.997C87.6613 176.315 89.7137 175.78 89.3089 174.417L89.2583 174.254L87.2621 175.099C87.4027 175.363 87.5433 175.622 87.712 175.87L89.4269 174.547L89.3538 174.479C88.3417 173.494 86.8629 174.986 87.8075 176.028C88.2293 176.489 89.4719 177.441 90.0173 177.723C91.26 178.359 92.3509 176.54 91.1194 175.836L91.0014 175.769L90.1579 177.768C90.9114 178.015 91.6649 178.128 92.4521 178.066L92.1597 175.921L91.9235 175.966C90.5347 176.236 91.1363 178.308 92.5027 178.072C92.6826 178.044 92.8682 178.015 93.0425 177.97C94.4426 177.632 93.8128 175.662 92.4633 175.864L92.3565 175.881L92.9356 177.987C93.318 177.892 93.6891 177.785 94.0602 177.649C95.3535 177.165 94.8531 175.149 93.4811 175.543L93.3461 175.583L94.1895 177.582C95.8764 176.675 96.7592 175.29 97.1247 173.449C97.3946 172.08 95.3479 171.489 95.0217 172.869C94.8755 173.308 94.9318 173.302 95.1904 172.852L97.0179 173.916C97.434 171.675 97.1416 169.192 97.1416 166.923V82.4083C97.1416 79.8349 96.8154 77.0307 97.5745 74.5362C98.2212 72.4078 99.6213 70.5045 101.471 69.2713C105.925 66.3039 112.155 67.6665 114.955 72.2388C116.552 74.8459 116.411 77.6783 116.411 80.6232V131.532C116.411 132.124 116.912 132.625 117.502 132.625C119.65 132.625 122 132.917 124.092 132.349C126.184 131.78 127.972 130.339 129.023 128.413C129.968 126.678 129.985 124.905 129.985 122.979V115.034C129.985 109.769 129.929 104.498 129.985 99.2334C129.991 98.4845 129.895 97.3808 130.508 96.8234C131.256 96.1477 132.943 96.4855 133.859 96.4855H159.916C160.343 96.4855 160.9 96.1477 160.967 95.6803C162.446 85.6348 162.446 75.2401 160.107 65.3241C157.768 55.4081 152.842 45.7567 145.605 38.2451C131.003 23.0754 108.938 17.1967 88.4092 19.6856C67.9193 22.1688 48.6102 33.4644 38.3653 51.6973C27.4456 71.1295 28.5139 94.5541 34.3955 115.4C37.4881 126.352 42.1607 136.763 45.5795 147.614C47.3169 153.132 48.8295 158.73 50.1115 164.366C51.4104 170.07 52.58 175.859 53.1254 181.687C53.2435 182.942 53.2098 184.238 53.3672 185.482C53.4572 186.22 53.9464 186.631 54.5086 187.087L55.83 185.369L55.7513 185.319C54.5817 184.513 53.5303 186.389 54.6492 187.205L54.6661 187.216C55.0597 187.532 55.5264 187.644 55.9875 187.385H55.9931C55.6276 187.385 55.2565 187.385 54.891 187.385C57.6912 189.429 60.9188 190.961 64.0507 192.414C67.1996 193.872 70.4102 195.201 73.6209 196.507C80.5933 199.34 87.6557 201.952 94.7406 204.486C97.8782 205.607 101.033 206.643 104.181 207.718C107.015 208.687 109.647 210.326 110.035 213.575C110.423 216.824 108.584 219.56 105.604 220.478C104.013 220.968 102.281 221.019 100.633 221.199C98.6485 221.418 96.658 221.627 94.6731 221.841C90.6865 222.274 86.5649 222.454 82.6176 223.17C80.3178 223.586 78.8053 225.287 78.3329 227.528L80.4359 228.108C80.4921 227.832 80.5427 227.584 80.4753 227.303C80.2222 226.272 78.6085 226.25 78.3723 227.303C77.9112 229.319 78.8109 231.408 80.4471 232.601C81.8023 233.587 83.4048 234.302 84.8892 235.073C86.6548 235.991 88.4373 236.87 90.2254 237.742C93.1324 239.167 96.1463 240.485 98.7891 242.377C100.802 243.818 102.899 245.812 103.214 248.407C103.743 252.704 99.6831 256.482 96.7423 258.977C95.0161 260.441 93.1774 261.758 91.305 263.02C90.186 263.774 86.5368 266.911 85.862 264.163C85.6371 263.234 86.295 262.665 86.9641 262.203C87.8581 261.589 88.7803 261.015 89.6743 260.401C91.2712 259.303 92.84 258.154 94.3357 256.921C96.6074 255.052 100.026 252.36 100.189 249.134L98.806 250.187L98.8397 250.198C99.4526 250.406 100.313 249.832 100.223 249.145C100.2 248.97 100.268 248.481 100.212 248.925C100.364 247.647 98.4348 247.529 98.0694 248.633C98.0637 248.649 98.0581 248.666 98.0581 248.683H100.161C99.7787 246.983 98.2999 245.795 96.9167 244.877C94.6619 243.373 92.244 242.135 89.8149 240.935C87.3858 239.736 84.9398 238.587 82.5389 237.343C80.3516 236.211 78.0012 235.028 76.6067 232.917C73.9246 228.862 75.3753 223.068 79.8005 220.951C82.2577 219.774 85.2604 219.814 87.92 219.538C90.8945 219.228 93.869 218.935 96.8379 218.614C98.4855 218.434 100.139 218.248 101.786 218.046C102.742 217.927 103.979 217.865 104.777 217.601C106.549 217.026 107.19 215.331 106.937 213.614L106.656 214.678H106.667C106.06 214.509 105.452 214.352 104.839 214.188L104.901 214.408C105.289 215.759 107.375 215.191 107.004 213.828C106.869 213.327 106.74 212.865 106.431 212.443L104.716 213.766L104.766 213.822C105.75 214.83 107.291 213.287 106.313 212.274C106.262 212.223 106.211 212.167 106.161 212.111C105.199 211.063 103.715 212.595 104.614 213.659L104.654 213.704L106.2 212.156C105.683 211.621 105.081 211.367 104.395 211.119C102.944 210.601 101.477 210.112 100.021 209.605C96.9448 208.529 93.869 207.437 90.8046 206.328C84.8162 204.16 78.8502 201.924 72.9462 199.531C67.2783 197.234 61.3967 194.976 56.1168 191.856C54.1207 190.674 51.0843 189.08 50.4152 186.664C50.0497 185.347 50.2352 183.911 50.134 182.56C50.0328 181.208 49.8697 179.986 49.6954 178.714C47.9692 166.191 44.6573 153.718 40.4514 141.809C38.2922 135.694 35.8068 129.691 33.7264 123.548C31.6459 117.404 30.1221 111.751 28.9469 105.698C26.5065 93.1239 26.0398 79.9982 29.02 67.4695C31.7864 55.8304 37.5668 45.0416 46.0237 36.5614C63.4884 19.038 90.2591 12.6075 114.134 17.8274C125.858 20.3895 137.008 25.8233 145.769 34.1007C154.433 42.2824 160.248 52.891 163.014 64.4569C163.723 67.4244 164.234 70.4369 164.577 73.4664C164.735 74.8516 166.916 74.8628 166.759 73.4664L166.776 73.4101Z" fill="#656D4A"/>
<path d="M97.9344 249.635L97.8838 249.747C97.6532 250.294 97.7263 250.913 98.2774 251.245C98.7328 251.521 99.5425 251.397 99.7731 250.851L99.8237 250.739C100.054 250.192 99.9811 249.573 99.4301 249.241C98.9746 248.965 98.1649 249.089 97.9344 249.635L97.8838 249.747C97.6532 250.294 97.7263 250.913 98.2774 251.245C98.7328 251.521 99.5425 251.397 99.7731 250.851L99.8237 250.739C100.054 250.192 99.9811 249.573 99.4301 249.241C98.9746 248.965 98.1649 249.089 97.9344 249.635Z" fill="#656D4A"/>
<path d="M100.15 249.731C100.155 249.674 100.172 249.624 100.195 249.567L98.0918 248.987L98.0468 249.151C97.6813 250.513 99.7843 251.093 100.15 249.731L100.195 249.567C100.566 248.182 98.581 247.692 98.0918 248.987C98.0693 249.038 98.058 249.094 98.0468 249.151C97.715 250.519 99.8236 251.099 100.15 249.731Z" fill="#656D4A"/>
<path d="M104.519 215.286L104.446 215.422L106.329 216.525C106.352 216.48 106.374 216.435 106.402 216.39C107.122 215.174 105.233 214.076 104.519 215.286C104.491 215.326 104.463 215.371 104.446 215.422C103.867 216.677 105.627 217.775 106.329 216.525L106.402 216.39C107.094 215.163 105.205 214.059 104.519 215.286Z" fill="#656D4A"/>
<path d="M106.999 214.965L107.015 214.864C107.223 213.49 105.12 212.893 104.912 214.284L104.896 214.385C104.687 215.759 106.79 216.356 106.999 214.965L107.015 214.864C107.223 213.49 105.12 212.893 104.912 214.284L104.896 214.385C104.687 215.759 106.79 216.356 106.999 214.965Z" fill="#656D4A"/>
<path d="M105.671 211.638L105.61 211.593C104.463 210.776 103.372 212.668 104.508 213.479L104.569 213.524C105.716 214.34 106.807 212.448 105.671 211.638L105.61 211.593C104.463 210.776 103.372 212.668 104.508 213.479L104.569 213.524C105.716 214.34 106.807 212.448 105.671 211.638Z" fill="#656D4A"/>
<path d="M80.7226 128.137C80.7451 128.182 80.7676 128.227 80.7901 128.272L80.6776 128.013C80.7001 128.064 80.717 128.12 80.7283 128.176L80.6889 127.883C80.6889 127.883 80.6889 127.889 80.6889 127.895L82.5501 127.123C82.6063 127.196 82.6625 127.27 82.7188 127.343C82.7581 127.427 82.7919 127.517 82.8312 127.602C82.7919 127.501 82.7525 127.399 82.7131 127.292C82.6794 127.151 82.6119 127.028 82.5163 126.921C82.4376 126.802 82.3364 126.707 82.2127 126.639C82.089 126.56 81.9541 126.515 81.8079 126.51C81.6617 126.476 81.5155 126.481 81.3749 126.526L81.1162 126.639C80.9532 126.735 80.8238 126.864 80.7226 127.033L80.6102 127.292C80.5596 127.484 80.5596 127.681 80.6102 127.872C80.6383 127.94 80.6608 128.007 80.6889 128.081C80.7001 128.103 80.7058 128.131 80.717 128.154C80.717 128.159 80.717 128.165 80.7226 128.176C80.7395 128.221 80.7845 128.323 80.7789 128.306C80.8632 128.508 80.8126 128.424 81.0038 128.661L81.2231 128.829L81.4817 128.942L81.7741 128.981C81.9259 128.987 82.0665 128.953 82.1958 128.886C82.2858 128.858 82.3701 128.813 82.4376 128.745C82.522 128.694 82.5838 128.632 82.6344 128.548C82.7019 128.48 82.7469 128.402 82.775 128.306C82.8425 128.176 82.8762 128.036 82.8706 127.883C82.8537 127.737 82.8481 127.585 82.7919 127.444C82.7356 127.303 82.6794 127.157 82.6063 127.022C82.5388 126.892 82.4432 126.791 82.3252 126.718C82.2183 126.622 82.0946 126.555 81.9541 126.521C81.8079 126.476 81.6617 126.47 81.5211 126.504C81.3749 126.51 81.2399 126.555 81.1162 126.633L80.8969 126.802C80.762 126.937 80.6664 127.101 80.6158 127.287L80.5764 127.579C80.5764 127.776 80.627 127.962 80.7283 128.131L80.7226 128.137Z" fill="#656D4A"/>
<path d="M80.807 128.469C80.8182 128.57 80.8295 128.672 80.8238 128.773H83.0055C82.9943 128.672 82.9887 128.57 82.9887 128.469C82.9212 127.067 80.7395 127.061 80.807 128.469C80.807 128.57 80.8126 128.672 80.8238 128.773C80.97 130.153 82.9212 130.203 83.0055 128.773C83.0112 128.672 82.9999 128.57 82.9887 128.469C82.8425 127.084 80.6552 127.067 80.807 128.469Z" fill="#656D4A"/>
<path d="M126.555 128.261L126.774 128.092L127.033 127.979C127.129 127.968 127.224 127.951 127.325 127.94C127.584 128.047 127.843 128.154 128.096 128.261C128.203 128.52 128.309 128.779 128.416 129.032C128.405 129.128 128.388 129.224 128.377 129.325L128.264 129.584C128.264 129.584 128.27 129.578 128.276 129.573L128.107 129.792C128.135 129.753 128.169 129.719 128.197 129.68L126.482 128.356C126.482 128.356 126.454 128.402 126.437 128.424L126.606 128.204C126.606 128.204 126.578 128.244 126.555 128.261C126.448 128.362 126.375 128.475 126.33 128.61C126.263 128.739 126.229 128.88 126.235 129.032C126.229 129.184 126.263 129.325 126.33 129.454C126.375 129.59 126.448 129.708 126.555 129.804L126.774 129.973C126.943 130.074 127.129 130.119 127.325 130.125L127.618 130.085C127.803 130.034 127.961 129.939 128.101 129.804C128.113 129.798 128.118 129.787 128.129 129.775C128.169 129.73 128.203 129.68 128.236 129.635C128.281 129.578 128.326 129.522 128.366 129.46C128.444 129.336 128.489 129.201 128.495 129.055C128.529 128.908 128.523 128.762 128.478 128.621L128.366 128.362C128.298 128.233 128.203 128.131 128.084 128.058C128.017 127.99 127.938 127.945 127.843 127.917C127.713 127.85 127.573 127.816 127.421 127.822L127.129 127.861C126.943 127.912 126.786 128.007 126.645 128.142C126.617 128.176 126.589 128.21 126.561 128.244C126.499 128.323 126.431 128.402 126.375 128.486C126.28 128.638 126.223 128.863 126.223 129.038C126.223 129.325 126.341 129.607 126.544 129.809C126.606 129.882 126.679 129.939 126.763 129.978C126.887 130.057 127.022 130.102 127.168 130.108C127.353 130.13 127.382 130.147 127.601 130.091C127.691 130.057 127.775 130.023 127.86 129.978C127.938 129.933 128.017 129.871 128.084 129.804C128.191 129.702 128.264 129.59 128.309 129.454C128.377 129.325 128.411 129.184 128.405 129.032C128.411 128.88 128.377 128.739 128.309 128.61C128.264 128.475 128.191 128.356 128.084 128.261L127.865 128.092C127.696 127.99 127.511 127.945 127.314 127.94L127.022 127.979C126.836 128.03 126.679 128.126 126.538 128.261H126.555Z" fill="#656D4A"/>
<path d="M55.4601 186.401C55.4601 186.401 55.3808 186.333 55.2958 186.276C55.3128 186.287 55.3185 186.293 55.3298 186.304C55.3751 186.339 55.4148 186.367 55.4601 186.401Z" fill="#656D4A"/>
<path d="M56.2293 185.623C56.2293 185.623 56.2124 185.606 56.2068 185.6C56.2068 185.6 56.1955 185.589 56.1899 185.589C56.1112 185.527 56.0325 185.465 55.9481 185.403C55.9144 185.375 55.8806 185.353 55.8413 185.33C55.7176 185.251 55.5826 185.206 55.4364 185.2C55.2902 185.167 55.144 185.172 55.0035 185.217L54.7448 185.33C54.6155 185.398 54.5143 185.493 54.4412 185.612C54.3737 185.679 54.3287 185.758 54.3006 185.854C54.2331 185.983 54.1994 186.124 54.205 186.276L54.2444 186.569C54.295 186.755 54.3906 186.912 54.5255 187.053C54.5368 187.064 54.548 187.07 54.5593 187.081C54.5986 187.109 54.6324 187.137 54.6717 187.171C54.7111 187.205 54.7504 187.233 54.7898 187.261C54.7898 187.261 54.7954 187.261 54.801 187.267C54.8067 187.267 54.8179 187.278 54.8235 187.284C54.8516 187.306 54.8854 187.329 54.9135 187.351C55.0372 187.43 55.1722 187.475 55.3183 187.481C55.4645 187.515 55.6107 187.509 55.7513 187.464C55.8919 187.43 56.0156 187.363 56.1224 187.267C56.2405 187.188 56.3361 187.087 56.4036 186.963L56.516 186.704C56.5666 186.512 56.5666 186.315 56.516 186.124L56.4036 185.865C56.308 185.702 56.1787 185.572 56.01 185.471C55.965 185.437 55.9256 185.409 55.8806 185.375L56.0999 185.544C56.0999 185.544 56.0774 185.527 56.0662 185.516L54.7448 187.233C54.7842 187.261 54.8292 187.29 54.8685 187.318L54.6492 187.149C54.6492 187.149 54.6773 187.171 54.6942 187.188C54.7954 187.295 54.9079 187.368 55.0428 187.413C55.1722 187.481 55.3127 187.515 55.4645 187.509C55.6164 187.515 55.7569 187.481 55.8863 187.413C56.0212 187.368 56.1393 187.295 56.2349 187.188L56.4036 186.969C56.5048 186.8 56.5498 186.614 56.5554 186.417L56.516 186.124C56.4654 185.938 56.3698 185.78 56.2349 185.64L56.2293 185.623Z" fill="#656D4A"/>
</svg>
