<svg width="132" height="113" viewBox="0 0 132 113" fill="none" xmlns="http://www.w3.org/2000/svg">
<path d="M21.8619 11.1377C21.0674 10.608 21.5915 10.9046 21.8619 11.1377V11.1377Z" fill="#656D4A"/>
<path d="M11.0049 12.4347C10.988 12.4602 10.9711 12.4813 10.9584 12.5068C11.2627 12.2016 11.3684 12.0533 11.3768 12.0151C11.3472 12.049 11.3092 12.0787 11.2796 12.1126C11.1867 12.2143 11.0979 12.3288 11.0049 12.439V12.4347Z" fill="#656D4A"/>
<path d="M23.8778 13.6765C23.8905 13.7401 23.9666 13.9139 24.161 14.2487C24.161 14.2402 24.1525 14.2275 24.1483 14.219C24.0553 14.041 23.9666 13.8588 23.8778 13.6765Z" fill="#656D4A"/>
<path d="M15.9073 9.5315C16.2876 9.51455 16.4525 9.48912 16.4905 9.47217C16.3257 9.48064 16.1566 9.4976 15.9918 9.51031C15.9622 9.51455 15.9369 9.52303 15.9073 9.52726V9.5315Z" fill="#656D4A"/>
<path d="M12.0826 11.2988C12.053 11.3284 12.0234 11.3581 11.9939 11.3878C11.9981 11.4132 12.1333 11.3199 12.4799 10.9724C12.4587 10.9851 12.4376 11.0021 12.4122 11.0148C12.3024 11.108 12.184 11.2013 12.0784 11.2988H12.0826Z" fill="#656D4A"/>
<path d="M9.43702 27.951C9.43702 24.4502 9.43702 20.9452 9.43702 17.4444C9.43702 17.3512 9.43702 17.2537 9.43702 17.1605C9.43702 17.1435 9.43702 17.1308 9.43702 17.1138C9.43702 16.9485 9.43702 16.7832 9.44548 16.618C9.45393 16.4272 9.47083 16.2365 9.48351 16.0458C9.48774 16.0161 9.49196 15.9949 9.50042 15.961C9.65256 15.1812 9.93149 14.4649 10.1724 13.7105C9.69059 15.2278 10.1174 13.897 10.3456 13.4817C10.5316 13.1468 10.7429 12.8247 10.9542 12.5111C10.9162 12.5492 10.8739 12.5916 10.8274 12.634C10.8908 12.5747 10.9458 12.5069 11.0007 12.439C11.0514 12.367 11.0979 12.2949 11.1444 12.2229C11.2543 12.0661 11.3768 11.9686 11.3684 12.0195C11.567 11.8033 11.7741 11.5956 11.9896 11.3964C11.9854 11.371 12.1122 11.2227 12.2812 11.1125C12.3235 11.0828 12.37 11.0531 12.4122 11.0277C12.4756 10.9726 12.5433 10.9218 12.5982 10.8624C12.5559 10.909 12.5137 10.9472 12.4756 10.9853C12.8264 10.7522 13.173 10.5234 13.5406 10.3199C13.9379 10.1038 15.1635 9.72657 13.6674 10.2013C14.0393 10.0826 14.3943 9.92577 14.7662 9.81134C15.1381 9.69691 15.5185 9.61638 15.8988 9.53585C15.8101 9.53585 15.7171 9.54433 15.603 9.54857C15.7298 9.54857 15.8566 9.53162 15.9834 9.5189C16.0383 9.50619 16.0932 9.49347 16.1482 9.48499C16.3426 9.44261 16.5412 9.45533 16.4863 9.48076C16.5158 9.48076 16.5454 9.47652 16.5708 9.47228C16.8962 9.45957 17.2258 9.45957 17.5513 9.47228C17.7964 9.48076 18.0373 9.50619 18.2782 9.52314C19.0515 9.56976 17.7372 9.44685 17.7372 9.44685C18.5444 9.32394 19.7024 9.96392 20.4504 10.2013C18.967 9.72657 20.1842 10.108 20.5772 10.3199C20.9153 10.5022 21.2407 10.7014 21.5577 10.9175C21.7478 11.0447 21.9253 11.193 22.1155 11.3159C22.0141 11.2481 21.9296 11.193 21.8535 11.1421C21.8577 11.1421 21.8619 11.1506 21.8662 11.1549C22.2085 11.4558 22.5339 11.7779 22.8424 12.1169C22.9312 12.2144 23.0157 12.3204 23.1044 12.4221C23.2988 12.7061 23.4848 12.9858 23.6581 13.2825C23.7341 13.4138 23.8018 13.5452 23.8651 13.6809C23.844 13.5834 23.9581 13.7275 24.03 13.9267C24.0638 14.0284 24.1018 14.1259 24.1356 14.2234C24.1694 14.2869 24.2032 14.3505 24.237 14.4098C24.2032 14.3547 24.1737 14.2996 24.1441 14.253C24.2075 14.4395 24.2751 14.6217 24.33 14.8125C24.4357 15.1727 24.5287 15.5372 24.6005 15.9059C24.6005 15.8296 24.5963 15.7449 24.592 15.6516C24.592 15.7788 24.609 15.9102 24.6259 16.0373C24.6259 16.0119 24.6174 15.9865 24.6132 15.961C24.6132 15.9441 24.6047 15.9229 24.6005 15.9059C24.6259 16.5671 24.6512 16.5883 24.6512 16.4145C24.6639 16.6561 24.6723 16.8977 24.6766 17.1435C24.6766 17.2664 24.6766 17.3893 24.6766 17.5122V108.232C24.6766 110.787 26.8361 112.962 29.393 112.962H36.0323C38.4454 112.962 40.9431 113.127 43.3435 112.826C48.584 112.169 53.5582 109.8 56.9095 105.6C59.927 101.815 61.6386 97.3395 61.664 92.4613C61.6809 89.3038 61.6682 86.1506 61.664 82.9931C61.6809 82.849 61.6935 82.7049 61.6935 82.5565C61.6935 80.9799 61.664 79.3694 61.664 77.797V66.5953C61.664 64.5059 61.6682 62.4206 61.6724 60.3312C61.6851 58.0044 61.6978 55.6776 61.6809 53.3508C61.6809 53.2025 61.6809 53.0541 61.6809 52.9058C61.6809 48.9896 61.6935 44.9887 61.6935 41.0768C61.6935 40.6149 61.6935 40.047 61.6935 39.585H112.141C116.127 39.585 80.3859 39.585 84.3711 39.585H101.783C102.932 39.585 104.078 39.5977 105.227 39.585C105.278 39.585 105.324 39.585 105.375 39.585C106.512 39.585 107.708 39.0891 108.511 38.2796C109.28 37.5082 109.859 36.241 109.813 35.1348C109.707 32.7233 107.864 30.6847 105.375 30.6847H87.0548C83.1878 30.6847 119.051 30.6847 115.184 30.6847H60.2947C59.1452 30.6847 57.9999 30.672 56.8504 30.6847C56.7996 30.6847 56.7532 30.6847 56.7024 30.6847C54.302 30.6847 52.265 32.7233 52.265 35.1348V50.7019C52.2438 50.8884 52.2269 51.0791 52.2269 51.2741V91.7789C52.2269 92.0248 52.2269 92.2706 52.2269 92.5164C52.2269 92.9275 52.21 93.3386 52.1804 93.7455C52.1804 93.7836 52.1678 93.8641 52.1593 93.9531C52.134 94.1142 52.1001 94.3134 52.0832 94.3982C51.9818 94.9025 51.855 95.3984 51.7029 95.89C51.6226 96.1528 51.5338 96.4113 51.4409 96.6699C51.4409 96.6699 51.4409 96.6783 51.4366 96.6826C50.9929 97.5514 50.5576 98.4033 49.9913 99.2086C49.8772 99.3442 49.7631 99.4841 49.6447 99.6154C49.2897 100.018 48.9136 100.4 48.5206 100.76C48.3515 100.917 48.174 101.065 48.0008 101.213C47.6077 101.485 47.2147 101.756 46.8005 101.997C46.3906 102.239 45.9638 102.451 45.5369 102.663C45.3129 102.743 45.0889 102.828 44.8607 102.904C44.3747 103.061 43.8803 103.197 43.3816 103.307C43.1618 103.354 42.9378 103.392 42.7181 103.434C42.1771 103.485 41.6319 103.498 41.091 103.502C40.0978 103.502 39.1089 103.502 38.1158 103.502H34.1094V19.2499C34.1094 16.7875 34.1051 14.342 33.3191 11.9559C31.9413 7.78122 29.0464 4.08124 25.1203 2.02993C21.2111 -0.0213807 16.5412 -0.606258 12.2686 0.682168C5.02491 2.86062 0.0549401 9.60367 0 17.1647C0 18.0547 0 18.9405 0 19.8263V27.9129M49.7293 99.5858C49.7039 99.607 49.7842 99.5137 49.8814 99.3951C49.8349 99.4671 49.7842 99.5392 49.7293 99.5858Z" fill="#656D4A"/>
<path d="M88.2254 15.9524C89.4045 16.5373 90.5836 17.1222 91.7669 17.7028C94.5689 19.0887 97.3666 20.4746 100.169 21.8605C103.516 23.5177 106.867 25.1748 110.214 26.832L118.721 31.0406C119.943 31.6424 121.164 32.24 122.381 32.8503C122.808 33.0665 123.21 33.3123 123.59 33.6005L122.821 33.0029C123.303 33.3801 123.729 33.8081 124.106 34.2955L123.51 33.5242C123.86 33.9989 124.152 34.5032 124.38 35.0457L123.996 34.1345C124.228 34.7067 124.384 35.3 124.473 35.9146L124.338 34.9016C124.418 35.5501 124.418 36.1985 124.33 36.847L124.465 35.834C124.376 36.4443 124.211 37.0377 123.979 37.6098L124.363 36.6986C124.131 37.2411 123.839 37.7412 123.484 38.2117L124.08 37.4403C123.704 37.9235 123.277 38.3473 122.795 38.7203L123.565 38.1227C122.36 39.0212 120.83 39.5764 119.478 40.2079C116.853 41.4327 114.225 42.6576 111.6 43.8824C108.333 45.4082 105.067 46.9297 101.8 48.4555C98.9218 49.799 96.0396 51.1426 93.1616 52.4861C91.7543 53.143 90.3131 53.7575 88.9269 54.4611C88.9058 54.4696 88.8847 54.4781 88.8678 54.4908C88.0521 54.8722 87.3506 55.9318 87.1181 56.7709C86.8688 57.6822 86.9787 58.8985 87.5027 59.7123C88.0268 60.526 88.8044 61.2423 89.7764 61.4669C90.8245 61.7085 91.7331 61.5347 92.7094 61.0812C94.142 60.4116 95.5747 59.7462 97.0074 59.0765C100.295 57.5423 103.583 56.0081 106.871 54.4738C110.502 52.7785 114.132 51.0875 117.758 49.3922L125.128 45.9549C125.682 45.6964 126.257 45.4548 126.781 45.137C128.294 44.2257 129.578 42.9416 130.491 41.4285C131.404 39.9155 131.81 38.2922 131.979 36.563C132.051 35.8298 131.979 35.122 131.886 34.393C131.793 33.664 131.679 32.9944 131.425 32.3248C130.808 30.6846 129.946 29.1588 128.632 27.9721C127.719 27.1456 126.73 26.5184 125.644 25.9801C123.442 24.8909 121.236 23.8017 119.034 22.7082C115.535 20.979 112.036 19.2455 108.536 17.5163C105.088 15.8126 101.639 14.1046 98.1949 12.4008C96.2467 11.4387 94.2984 10.4724 92.3501 9.51031L92.0754 9.37468C91.1499 8.91695 90.1652 8.70928 89.1425 8.989C88.2592 9.23058 87.3041 9.91718 86.8688 10.7436C85.9602 12.4644 86.3279 15.02 88.2339 15.9609L88.2254 15.9524Z" fill="#656D4A"/>
</svg>
