<svg width="170" height="70" viewBox="0 0 170 70" fill="none" xmlns="http://www.w3.org/2000/svg">
<g clip-path="url(#clip0_105_169)">
<path d="M28.9847 4.20667C28.683 4.00648 28.8832 4.11892 28.9847 4.20667V4.20667Z" fill="#656D4A"/>
<path d="M17.3266 66.2869C17.1538 66.1909 17.1099 66.1745 17.1264 66.1882C17.1867 66.2183 17.2443 66.2485 17.3046 66.2787C17.3129 66.2787 17.3211 66.2842 17.3293 66.2869H17.3266Z" fill="#656D4A"/>
<path d="M18.654 66.4185C18.6266 66.424 18.5854 66.4295 18.5333 66.4405C18.5498 66.4405 18.5662 66.4377 18.5854 66.435C18.6074 66.4295 18.6293 66.424 18.654 66.4185Z" fill="#656D4A"/>
<path d="M24.8683 4.69757C24.8683 4.69757 24.8573 4.71676 24.8491 4.72499C24.9643 4.60981 25.0054 4.55497 25.0082 4.53851C24.9972 4.55222 24.9835 4.56319 24.9725 4.57416C24.9369 4.61256 24.904 4.65643 24.8683 4.69757Z" fill="#656D4A"/>
<path d="M29.7471 5.1665C29.7526 5.19118 29.78 5.257 29.854 5.38315C29.854 5.3804 29.854 5.37492 29.8513 5.37218C29.8156 5.30362 29.7827 5.23506 29.7498 5.1665H29.7471Z" fill="#656D4A"/>
<path d="M26.7277 3.60061C26.8703 3.59513 26.9333 3.58416 26.9498 3.57867C26.8867 3.58142 26.8236 3.5869 26.7606 3.59513C26.7496 3.59513 26.7386 3.60061 26.7304 3.60061H26.7277Z" fill="#656D4A"/>
<path d="M25.2796 4.26977C25.2796 4.26977 25.2577 4.2917 25.2467 4.30267C25.2467 4.3109 25.2988 4.27799 25.4304 4.14636C25.4222 4.15185 25.414 4.15733 25.4058 4.16282C25.3646 4.19847 25.3208 4.23412 25.2796 4.26977Z" fill="#656D4A"/>
<path d="M16.3969 65.6288C16.4161 65.6397 16.3859 65.5958 16.2406 65.4505C16.2461 65.456 16.2488 65.4642 16.2543 65.4697C16.3037 65.5218 16.3503 65.5739 16.3997 65.6288H16.3969Z" fill="#656D4A"/>
<path d="M44.0678 23.8031C44.0678 22.3497 44.0925 20.8908 44.0678 19.4374C44.0678 19.4127 44.0678 19.3908 44.0678 19.3661C44.0678 18.431 43.2451 17.537 42.2797 17.5781C41.3117 17.622 40.4917 18.3624 40.4917 19.3661V34.6654C40.4917 34.7586 40.4917 34.8519 40.4917 34.9451C40.4917 35.1014 40.4862 35.255 40.4752 35.4086C40.4752 35.4223 40.4697 35.4524 40.467 35.4853C40.456 35.5457 40.4451 35.6225 40.4396 35.6526C40.4012 35.8418 40.3518 36.0311 40.297 36.2175C40.2668 36.3163 40.2339 36.415 40.1982 36.511C40.1982 36.511 40.1982 36.5137 40.1982 36.5164C40.0309 36.8455 39.8664 37.1664 39.6525 37.4708C39.6086 37.5229 39.5675 37.575 39.5209 37.6243C39.3865 37.7752 39.2439 37.9205 39.0958 38.0576C39.0327 38.118 38.9641 38.1728 38.8983 38.2304C38.7502 38.3346 38.6021 38.4361 38.4431 38.5266C38.2868 38.6171 38.1277 38.6993 37.9632 38.7761C37.8781 38.8063 37.7931 38.8392 37.7054 38.8666C37.5216 38.9269 37.3351 38.9763 37.1459 39.0174C37.0636 39.0366 36.9786 39.0503 36.8936 39.064C36.6879 39.0832 36.4823 39.0887 36.2766 39.0887C35.9009 39.0887 35.5251 39.0887 35.1494 39.0887H33.6301V7.26979C33.6301 6.34015 33.6301 5.416 33.3312 4.51652C32.8102 2.9397 31.7132 1.54112 30.2268 0.767793C28.7349 -0.00827798 26.9661 -0.230404 25.348 0.257725C22.6056 1.08042 20.7216 3.62801 20.7024 6.48549C20.7024 6.82005 20.7024 7.15461 20.7024 7.48918V63.742C20.7024 63.8215 20.7024 63.9011 20.7024 63.9779C20.7024 64.0108 20.7024 64.0354 20.7024 64.0738C20.6969 64.2548 20.5762 64.7375 20.7188 64.1424C20.6832 64.2877 20.6667 64.4358 20.6283 64.5812C20.6064 64.6662 20.5817 64.7512 20.5543 64.8362C20.546 64.8581 20.5241 64.9157 20.5049 64.9706C20.5049 64.9706 20.5049 64.9706 20.5049 64.9733C20.4665 65.0501 20.4254 65.1269 20.3815 65.2037C20.3212 65.3079 20.2553 65.4066 20.1895 65.5053C20.1594 65.5382 20.1319 65.5739 20.1018 65.6068C19.9866 65.7302 19.8577 65.8371 19.737 65.9551C19.6931 65.9852 19.652 66.0154 19.6081 66.0428C19.4957 66.1141 19.3778 66.1799 19.2571 66.2403C19.2818 66.232 19.3092 66.2265 19.3394 66.2183C19.2928 66.232 19.2489 66.2512 19.2023 66.2704C19.2105 66.2649 19.2215 66.2622 19.2297 66.2567C19.2379 66.2512 19.2489 66.2457 19.2571 66.243C19.0377 66.3061 19.0158 66.3253 19.0651 66.3143C19.098 66.3033 19.131 66.2951 19.1639 66.2841C19.1255 66.2979 19.0871 66.3116 19.0651 66.3143C18.9308 66.3582 18.7964 66.3938 18.6593 66.424C18.7936 66.3993 18.6949 66.424 18.5907 66.4404C18.5852 66.4404 18.5797 66.4404 18.5742 66.4432C18.5166 66.4542 18.4563 66.4624 18.3987 66.4734C18.4536 66.4624 18.5002 66.4542 18.5386 66.4459C18.5304 66.4459 18.5194 66.4459 18.5112 66.4459C18.3878 66.4542 18.2643 66.4569 18.1437 66.4542C18.0696 66.4542 17.9956 66.4459 17.9215 66.4432C17.768 66.413 17.6171 66.3801 17.4663 66.3335C17.4197 66.3198 17.3758 66.3033 17.3292 66.2896C17.3511 66.3006 17.3731 66.3143 17.4005 66.3308C17.3703 66.3143 17.3374 66.2979 17.3072 66.2841C17.3072 66.2841 17.3018 66.2841 17.299 66.2841C17.225 66.2595 17.1454 66.2101 17.129 66.1964C17.0906 66.1772 17.0522 66.158 17.0138 66.1388C16.9068 66.0785 16.8054 66.0072 16.7039 65.9386C16.6299 65.8728 16.5586 65.807 16.4873 65.7384C16.4571 65.7083 16.4269 65.6726 16.3995 65.6397C16.3803 65.6315 16.3172 65.5711 16.2706 65.5053C16.2651 65.4971 16.2596 65.4889 16.2541 65.4806C16.235 65.4614 16.2185 65.4395 16.1993 65.4203C16.2158 65.4368 16.2295 65.4477 16.2432 65.4614C16.2212 65.4285 16.1993 65.3956 16.1774 65.3627C16.1033 65.2448 16.0375 65.1214 15.9744 64.998C15.9826 65.0282 15.9936 65.0583 16.0046 65.094C15.9936 65.0528 15.9772 65.0117 15.9607 64.9706C15.9497 64.9486 15.9388 64.9294 15.9278 64.9075C15.8949 64.8417 15.8812 64.7731 15.8976 64.7923C15.8949 64.7814 15.8894 64.7731 15.8867 64.7622C15.8455 64.6305 15.8126 64.4962 15.7852 64.3618C15.7852 64.3892 15.7852 64.4194 15.7879 64.4523C15.7879 64.4139 15.7825 64.3755 15.7797 64.3371C15.7797 64.3371 15.7797 64.3344 15.7797 64.3316C15.7605 64.2301 15.7605 64.0738 15.7715 64.1397C15.7715 64.0848 15.766 64.03 15.766 63.9751C15.766 63.912 15.766 63.849 15.766 63.7859V38.9187C15.766 38.1042 15.7907 37.309 15.6481 36.5027C15.3629 34.882 14.2028 33.3463 12.7274 32.6196C11.9047 32.2138 11.0435 31.9916 10.1221 31.9807C9.80671 31.9779 9.49134 31.9807 9.1787 31.9807C8.78379 31.9807 8.38614 31.9807 7.99123 31.9807C7.83766 31.9807 7.68682 31.9807 7.53325 31.9697C7.46194 31.9642 7.39338 31.9587 7.32208 31.9533C7.16028 31.9231 6.99847 31.8929 6.83941 31.849C6.69407 31.8107 6.55146 31.7695 6.4116 31.7202C6.32658 31.6927 6.24431 31.6598 6.16204 31.6297C5.89602 31.5337 6.34029 31.7064 6.34304 31.7092C6.03588 31.6434 5.67937 31.3746 5.42158 31.2046C5.28995 31.1168 4.9252 30.7741 5.36125 31.1772C5.25429 31.0785 5.13637 30.9934 5.02942 30.8947C4.90052 30.7768 4.77711 30.6534 4.65919 30.5245C4.53852 30.3929 4.22314 29.9102 4.54949 30.4176C4.3822 30.1598 4.2012 29.9185 4.05586 29.6442C3.97907 29.5016 3.91873 29.3508 3.84469 29.2109C4.1299 29.7457 3.86114 29.2329 3.80355 29.0574C3.71579 28.7832 3.65272 28.5034 3.60061 28.221C3.59513 28.1552 3.5869 28.0893 3.58416 28.0235C3.57593 27.9001 3.57319 27.774 3.57319 27.6506C3.57319 27.4339 3.57319 27.2146 3.57319 26.9979V10.1492C3.57319 9.21408 2.75046 8.32009 1.78513 8.36123C0.817055 8.4051 -0.00292969 9.14553 -0.00292969 10.1492V27.0774C-0.00292969 28.912 0.345358 30.7137 1.46152 32.222C2.46799 33.5822 3.77613 34.5722 5.37496 35.1398C6.43354 35.5155 7.54696 35.5566 8.65764 35.5566H9.93835C10.0453 35.5566 10.155 35.5566 10.262 35.5594C10.3113 35.5594 10.3579 35.5649 10.4073 35.5676C10.5636 35.6033 10.7172 35.6417 10.8708 35.691C10.8488 35.6773 10.8269 35.6663 10.8022 35.6499C10.8379 35.6718 10.8817 35.691 10.9201 35.7075C10.9119 35.7075 10.9064 35.702 10.8982 35.6992C10.8872 35.6965 10.879 35.6938 10.868 35.691C11.0545 35.8034 11.0902 35.8062 11.0545 35.7788C11.0244 35.7623 10.9942 35.7431 10.964 35.7267C11.0024 35.7459 11.0381 35.7651 11.0545 35.7788C11.1532 35.8336 11.2465 35.8912 11.3425 35.9515C11.3178 35.9296 11.2904 35.9022 11.2575 35.872C11.2931 35.9049 11.3315 35.9378 11.3699 35.968C11.3699 35.968 11.3699 35.968 11.3726 35.968C11.4439 36.0119 11.5098 36.0804 11.4906 36.0749C11.5893 36.1682 11.6798 36.2642 11.7675 36.3656C11.7922 36.404 11.8169 36.4397 11.8416 36.4781C11.8827 36.5411 11.9431 36.6261 11.9952 36.7139C11.9979 36.7249 12.0034 36.7413 12.0089 36.7605C12.0363 36.8455 12.0665 36.9278 12.0939 37.0128C12.1158 37.0841 12.1323 37.1581 12.1487 37.2294C12.1515 37.2459 12.1542 37.2596 12.157 37.2788C12.1707 37.8574 12.1817 38.4333 12.1817 39.0119V62.944C12.1817 63.9312 12.1515 64.9267 12.4861 65.8783C13.0318 67.4277 14.1452 68.7851 15.6673 69.457C17.3676 70.2084 19.1748 70.1974 20.8642 69.4213C22.9813 68.4506 24.2648 66.1991 24.2703 63.912C24.273 62.6561 24.2703 61.4001 24.2703 60.1469V10.5578C24.2703 9.23328 24.2703 7.91149 24.2703 6.58696C24.2703 6.55131 24.2703 6.51566 24.2703 6.48001C24.2703 6.47452 24.2703 6.46904 24.2703 6.46355C24.2703 6.40048 24.2703 6.34015 24.273 6.27708C24.2757 6.20578 24.2812 6.13174 24.2867 6.06044C24.2867 6.04947 24.2894 6.04124 24.2922 6.02753C24.3498 5.73136 24.4567 5.46261 24.5472 5.17741C24.3662 5.75056 24.5253 5.24597 24.6131 5.0924C24.6844 4.96626 24.7639 4.8456 24.8434 4.72494C24.8297 4.73865 24.8132 4.7551 24.7968 4.77155C24.8187 4.74962 24.8407 4.72219 24.8626 4.69751C24.8818 4.67009 24.8983 4.64267 24.9175 4.61524C24.9586 4.55491 25.0052 4.51926 25.0025 4.53846C25.0793 4.45619 25.1561 4.37941 25.2383 4.30262C25.2383 4.29165 25.2849 4.23681 25.348 4.19567C25.3645 4.1847 25.3809 4.17373 25.3974 4.16276C25.4221 4.14357 25.4468 4.12163 25.4687 4.09969C25.4522 4.11614 25.4385 4.1326 25.4221 4.14631C25.5537 4.05856 25.6853 3.9708 25.8252 3.89676C25.976 3.81449 26.4395 3.67189 25.8718 3.85288C26.0117 3.80901 26.1461 3.74868 26.2887 3.70754C26.4313 3.66641 26.5739 3.6335 26.7165 3.60333C26.6836 3.60333 26.6479 3.60608 26.6041 3.60608C26.6507 3.60608 26.7 3.60059 26.7467 3.59511C26.7686 3.58962 26.7878 3.58688 26.8097 3.5814C26.8838 3.56494 26.9578 3.57043 26.9359 3.5814C26.9469 3.5814 26.9578 3.5814 26.9688 3.5814C27.0922 3.57591 27.2156 3.57591 27.3418 3.5814C27.435 3.58414 27.5255 3.59511 27.616 3.60059C27.9094 3.61979 27.4103 3.57043 27.4103 3.57043C27.7147 3.52381 28.1535 3.76513 28.4387 3.85563C27.8765 3.67738 28.3373 3.81998 28.4854 3.8995C28.6115 3.96806 28.7377 4.04484 28.8583 4.12437C28.9296 4.17373 28.9982 4.22858 29.0695 4.2752C29.0311 4.25052 29.0009 4.22858 28.9708 4.20938C28.9708 4.20938 28.9735 4.21213 28.9762 4.21487C29.1051 4.33004 29.2313 4.45071 29.3465 4.57959C29.3794 4.61799 29.4123 4.65638 29.4452 4.69477C29.5192 4.80172 29.5905 4.90867 29.6564 5.0211C29.6838 5.07047 29.7112 5.11983 29.7359 5.17193C29.7277 5.13628 29.7715 5.18838 29.799 5.26517C29.8127 5.30356 29.8264 5.33921 29.8401 5.3776C29.8538 5.40228 29.8648 5.42422 29.8785 5.4489C29.8648 5.42696 29.8538 5.40777 29.8429 5.38857C29.8675 5.45713 29.8922 5.52843 29.9142 5.59973C29.9553 5.73685 29.9882 5.87396 30.0156 6.01108C30.0156 5.98091 30.0156 5.95074 30.0129 5.91509C30.0129 5.96446 30.0211 6.01382 30.0266 6.06044C30.0266 6.04947 30.0239 6.04124 30.0211 6.03027C30.0211 6.02204 30.0184 6.01656 30.0156 6.00833C30.0239 6.25788 30.0348 6.26611 30.0348 6.20029C30.0403 6.29079 30.043 6.38403 30.043 6.47452C30.043 6.52114 30.043 6.56776 30.043 6.61438V40.8822C30.043 41.8475 30.863 42.6702 31.8311 42.6702H34.3459C35.2591 42.6702 36.2053 42.7332 37.1158 42.6181C39.1013 42.3685 40.9853 41.4745 42.2551 39.8895C43.3986 38.4607 44.0459 36.7687 44.0568 34.9259C44.065 33.574 44.0568 32.222 44.0568 30.8673V23.8031H44.0678ZM12.0253 36.7441C12.061 36.8099 12.0884 36.8729 12.0939 36.9278C12.0939 36.9278 12.0555 36.8208 12.0253 36.7441ZM12.1652 37.2761C12.1762 37.5969 12.1871 37.4269 12.1652 37.2761V37.2761ZM39.5401 37.6161C39.5401 37.6161 39.5592 37.5887 39.5976 37.5448C39.5784 37.5722 39.5592 37.5997 39.5401 37.6161Z" fill="#656D4A"/>
<path d="M15.7772 64.3262C15.7772 64.3262 15.7799 64.3426 15.7827 64.3508C15.7772 64.2247 15.7717 64.1589 15.7662 64.1287C15.7662 64.1726 15.7662 64.2137 15.769 64.2576C15.769 64.2796 15.7717 64.3015 15.7745 64.3262H15.7772Z" fill="#656D4A"/>
<path d="M15.9719 64.9843C15.9308 64.8499 15.9061 64.7923 15.8951 64.7786C15.9143 64.839 15.9363 64.8965 15.9582 64.9569C15.9637 64.9651 15.9664 64.9761 15.9719 64.9843Z" fill="#656D4A"/>
<path d="M11.3729 35.9571C11.3729 35.9571 11.3537 35.9461 11.3455 35.9406C11.4387 36.0284 11.4826 36.0613 11.4936 36.0668C11.4826 36.0558 11.4716 36.0421 11.4579 36.0311C11.4305 36.0064 11.4003 35.9817 11.3729 35.9598V35.9571Z" fill="#656D4A"/>
<path d="M57.5552 17.1366C58.26 16.4511 59.091 15.9191 60.0536 15.5379C61.0134 15.1567 62.0555 14.9675 63.1799 14.9675C64.3043 14.9675 65.2834 15.1622 66.235 15.5516C67.1866 15.941 68.0422 16.5361 68.8046 17.3368L70.6613 15.5379C69.748 14.5095 68.6401 13.7362 67.3347 13.2124C66.0321 12.6886 64.6087 12.4281 63.0675 12.4281C61.5263 12.4281 60.1413 12.6804 58.8579 13.185C57.5744 13.6896 56.4555 14.4026 55.5039 15.3267C54.5523 16.2509 53.8091 17.3286 53.277 18.5654C52.745 19.8022 52.479 21.1623 52.479 22.6487C52.479 24.135 52.745 25.4952 53.277 26.7319C53.8091 27.9687 54.5468 29.0492 55.4902 29.9706C56.4308 30.8948 57.547 31.6078 58.8305 32.1123C60.1139 32.6169 61.518 32.8692 63.0401 32.8692C64.5621 32.8692 66.0321 32.6032 67.3374 32.0712C68.6401 31.5392 69.7508 30.7576 70.664 29.7293L68.8074 27.9303C68.045 28.7475 67.1894 29.3536 66.2377 29.743C65.2861 30.1324 64.2687 30.3271 63.1827 30.3271C62.0967 30.3271 61.0162 30.1379 60.0563 29.7567C59.0937 29.3755 58.2628 28.8435 57.558 28.1579C56.8532 27.4724 56.3074 26.6606 55.9153 25.7173C55.5258 24.7767 55.3311 23.7538 55.3311 22.6487C55.3311 21.5435 55.5258 20.5234 55.9153 19.58C56.3047 18.6367 56.8532 17.825 57.558 17.1394L57.5552 17.1366Z" fill="#656D4A"/>
<path d="M84.4172 18.335C83.2928 17.6878 82.0011 17.3643 80.534 17.3643C79.0668 17.3643 77.7888 17.6933 76.637 18.3487C75.4852 19.0042 74.5829 19.9146 73.9247 21.0746C73.2693 22.2346 72.9402 23.5673 72.9402 25.0701C72.9402 26.5729 73.2775 27.9057 73.9521 29.0657C74.6268 30.2257 75.5784 31.1388 76.807 31.8052C78.0356 32.4716 79.4562 32.8034 81.0742 32.8034C82.3302 32.8034 83.4683 32.595 84.4858 32.1754C85.5032 31.7559 86.3561 31.1471 87.0417 30.3491L85.5279 28.5803C84.9767 29.1891 84.3322 29.647 83.6 29.9514C82.8678 30.2558 82.0533 30.4094 81.1592 30.4094C80.076 30.4094 79.1134 30.19 78.2769 29.754C77.4378 29.3152 76.7878 28.7037 76.3216 27.9139C75.976 27.3325 75.7621 26.6881 75.6716 25.9861H87.9549C87.9741 25.8544 87.9879 25.7091 87.9988 25.5583C88.0071 25.4074 88.0125 25.2731 88.0125 25.1579C88.0125 23.5975 87.6944 22.2318 87.0554 21.0609C86.4164 19.8899 85.5389 18.9822 84.4145 18.335H84.4172ZM77.9945 20.3177C78.7377 19.8899 79.5823 19.676 80.534 19.676C81.4856 19.676 82.3549 19.8899 83.0899 20.3177C83.8221 20.7455 84.398 21.3406 84.8176 22.103C85.1357 22.6816 85.325 23.3178 85.3908 24.0143H75.6662C75.7457 23.3205 75.9404 22.6871 76.253 22.1167C76.6726 21.3461 77.2513 20.7455 77.9945 20.3177Z" fill="#656D4A"/>
<path d="M94.438 20.0517V17.5069H91.8108V32.6361H94.5505V25.1003C94.5505 23.4439 94.9783 22.1797 95.8339 21.3049C96.6896 20.4302 97.8496 19.9914 99.3168 19.9914H99.6157C99.7199 19.9914 99.8296 20.0024 99.9448 20.0188V17.3643C98.4996 17.3643 97.2792 17.6412 96.2919 18.1924C95.4802 18.6449 94.8631 19.2674 94.4353 20.0517H94.438Z" fill="#656D4A"/>
<path d="M113.591 18.335C112.467 17.6878 111.175 17.3643 109.708 17.3643C108.241 17.3643 106.963 17.6933 105.811 18.3487C104.659 19.0042 103.757 19.9146 103.099 21.0746C102.443 22.2346 102.114 23.5673 102.114 25.0701C102.114 26.5729 102.451 27.9057 103.126 29.0657C103.801 30.2257 104.752 31.1388 105.981 31.8052C107.21 32.4716 108.63 32.8034 110.248 32.8034C111.504 32.8034 112.642 32.595 113.66 32.1754C114.677 31.7559 115.53 31.1471 116.216 30.3491L114.702 28.5803C114.151 29.1891 113.506 29.647 112.774 29.9514C112.042 30.2558 111.227 30.4094 110.333 30.4094C109.25 30.4094 108.287 30.19 107.451 29.754C106.612 29.3152 105.962 28.7037 105.496 27.9139C105.153 27.3325 104.936 26.6881 104.846 25.9861H117.129C117.148 25.8544 117.162 25.7091 117.173 25.5583C117.181 25.4074 117.186 25.2731 117.186 25.1579C117.186 23.5975 116.868 22.2318 116.229 21.0609C115.59 19.8899 114.713 18.9822 113.588 18.335H113.591ZM107.168 20.3177C107.912 19.8899 108.756 19.676 109.708 19.676C110.66 19.676 111.529 19.8899 112.264 20.3177C112.996 20.7455 113.572 21.3406 113.992 22.103C114.31 22.6816 114.499 23.3178 114.565 24.0143H104.84C104.92 23.3205 105.114 22.6871 105.427 22.1167C105.847 21.3461 106.425 20.7455 107.168 20.3177Z" fill="#656D4A"/>
<path d="M132.347 25.3279C132.347 26.3946 132.157 27.3023 131.776 28.0537C131.395 28.8051 130.852 29.3755 130.15 29.7677C129.445 30.1571 128.617 30.3518 127.665 30.3518C126.371 30.3518 125.367 29.9816 124.654 29.2384C123.941 28.4952 123.585 27.3819 123.585 25.8983V17.5068H120.845V26.2136C120.845 27.6972 121.116 28.9313 121.659 29.9103C122.202 30.8893 122.962 31.6187 123.944 32.0931C124.923 32.5703 126.061 32.8061 127.355 32.8061C128.65 32.8061 129.706 32.5292 130.696 31.978C131.433 31.5666 132.031 31.0291 132.495 30.3655V32.6361H135.092V17.5068H132.352V25.3279H132.347Z" fill="#656D4A"/>
<path d="M150.66 26.2713C150.309 25.7584 149.851 25.3581 149.289 25.0729C148.727 24.7877 148.104 24.5628 147.419 24.401C146.733 24.2392 146.048 24.1048 145.362 24.0006C144.676 23.8964 144.054 23.7675 143.492 23.614C142.93 23.4631 142.474 23.2465 142.12 22.9723C141.769 22.6953 141.591 22.3004 141.591 21.7876C141.591 21.1788 141.885 20.6797 142.477 20.2876C143.067 19.8981 143.961 19.7034 145.159 19.7034C145.902 19.7034 146.643 19.7885 147.386 19.9612C148.129 20.1312 148.842 20.4466 149.528 20.9046L150.699 18.7354C150.052 18.2966 149.218 17.9593 148.2 17.7208C147.183 17.4822 146.179 17.3643 145.189 17.3643C143.895 17.3643 142.776 17.5507 141.835 17.9209C140.892 18.2912 140.165 18.8204 139.652 19.506C139.139 20.1916 138.882 20.9896 138.882 21.9028C138.882 22.816 139.052 23.4768 139.395 24.0006C139.737 24.5244 140.193 24.933 140.766 25.2292C141.336 25.5253 141.964 25.753 142.65 25.9148C143.335 26.0766 144.021 26.2109 144.704 26.3151C145.389 26.4193 146.012 26.54 146.574 26.6716C147.136 26.806 147.586 27.0034 147.929 27.2722C148.272 27.5382 148.442 27.9112 148.442 28.3856C148.442 29.0328 148.162 29.5373 147.6 29.8993C147.038 30.2613 146.119 30.4423 144.844 30.4423C143.854 30.4423 142.883 30.2915 141.931 29.9843C140.98 29.6799 140.179 29.3097 139.534 28.871L138.394 31.0401C139.041 31.5365 139.929 31.9533 141.062 32.2961C142.195 32.6389 143.387 32.8089 144.644 32.8089C145.996 32.8089 147.156 32.6224 148.126 32.2522C149.097 31.882 149.849 31.3637 150.381 30.6973C150.913 30.031 151.181 29.2412 151.181 28.328C151.181 27.4724 151.006 26.7868 150.652 26.274L150.66 26.2713Z" fill="#656D4A"/>
<path d="M57.5552 41.8475C58.26 41.1619 59.091 40.6299 60.0536 40.2488C61.0134 39.8676 62.0555 39.6784 63.1799 39.6784C64.3043 39.6784 65.2834 39.8731 66.235 40.2625C67.1866 40.6519 68.0422 41.2469 68.8046 42.0477L70.6613 40.2488C69.748 39.2204 68.6401 38.4471 67.3347 37.9233C66.0321 37.3995 64.6087 37.139 63.0675 37.139C61.5263 37.139 60.1413 37.3913 58.8579 37.8959C57.5744 38.4004 56.4555 39.1134 55.5039 40.0376C54.5523 40.9617 53.8091 42.0395 53.277 43.2763C52.745 44.513 52.479 45.8732 52.479 47.3595C52.479 48.8459 52.745 50.206 53.277 51.4428C53.8091 52.6796 54.5468 53.7601 55.4902 54.6815C56.4308 55.6056 57.547 56.3186 58.8305 56.8232C60.1139 57.3278 61.518 57.5801 63.0401 57.5801C64.5621 57.5801 66.0321 57.3141 67.3374 56.7821C68.6401 56.2501 69.7508 55.4685 70.664 54.4402L68.8074 52.6412C68.045 53.4584 67.1894 54.0645 66.2377 54.4539C65.2861 54.8433 64.2687 55.038 63.1827 55.038C62.0967 55.038 61.0162 54.8488 60.0563 54.4676C59.0937 54.0864 58.2628 53.5544 57.558 52.8688C56.8532 52.1832 56.3074 51.3715 55.9153 50.4282C55.5258 49.4848 55.3311 48.4647 55.3311 47.3595C55.3311 46.2544 55.5258 45.2343 55.9153 44.2909C56.3047 43.3475 56.8532 42.5358 57.558 41.8503L57.5552 41.8475Z" fill="#656D4A"/>
<path d="M76.9688 44.7626V42.2177H74.3416V57.347H77.0812V49.8112C77.0812 48.1548 77.5091 46.8906 78.3647 46.0158C79.2203 45.141 80.3804 44.7023 81.8476 44.7023H82.1465C82.2507 44.7023 82.3604 44.7132 82.4756 44.7297V42.0751C81.0303 42.0751 79.8099 42.3521 78.8227 42.9033C78.0109 43.3558 77.3939 43.9783 76.9661 44.7626H76.9688Z" fill="#656D4A"/>
<path d="M96.1219 43.0459C94.9975 42.3987 93.7059 42.0751 92.2387 42.0751C90.7715 42.0751 89.4935 42.4042 88.3417 43.0596C87.1899 43.715 86.2876 44.6255 85.6294 45.7855C84.974 46.9455 84.6449 48.2782 84.6449 49.781C84.6449 51.2838 84.9822 52.6165 85.6569 53.7765C86.3315 54.9365 87.2831 55.8497 88.5117 56.5161C89.7403 57.1825 91.1609 57.5143 92.7789 57.5143C94.035 57.5143 95.1731 57.3059 96.1905 56.8863C97.2079 56.4667 98.0608 55.8579 98.7464 55.0599L97.2326 53.2912C96.6814 53.8999 96.0369 54.3579 95.3047 54.6623C94.5725 54.9667 93.758 55.1203 92.8639 55.1203C91.7807 55.1203 90.8181 54.9009 89.9816 54.4649C89.1425 54.0261 88.4925 53.4146 88.0263 52.6248C87.6808 52.0434 87.4668 51.399 87.3763 50.6969H99.6597C99.6789 50.5653 99.6926 50.42 99.7035 50.2691C99.7118 50.1183 99.7172 49.9839 99.7172 49.8688C99.7172 48.3084 99.3991 46.9427 98.7601 45.7718C98.1212 44.6008 97.2436 43.6931 96.1192 43.0459H96.1219ZM89.6992 45.0286C90.4424 44.6008 91.287 44.3869 92.2387 44.3869C93.1903 44.3869 94.0596 44.6008 94.7946 45.0286C95.5268 45.4564 96.1027 46.0515 96.5223 46.8138C96.8404 47.3925 97.0297 48.0287 97.0955 48.7252H87.3709C87.4504 48.0314 87.6451 47.3979 87.9577 46.8275C88.3773 46.057 88.956 45.4564 89.6992 45.0286Z" fill="#656D4A"/>
<path d="M113.822 43.5889C112.697 42.5797 111.101 42.0751 109.025 42.0751C107.827 42.0751 106.68 42.2424 105.586 42.5742C104.492 42.9061 103.554 43.3887 102.775 44.0167L103.916 46.0707C104.506 45.5771 105.23 45.1822 106.085 44.886C106.941 44.5926 107.816 44.4445 108.712 44.4445C110.064 44.4445 111.076 44.7626 111.754 45.4015C112.428 46.0405 112.766 46.9372 112.766 48.1V48.643H108.427C106.924 48.643 105.729 48.8431 104.846 49.2435C103.96 49.6439 103.324 50.1759 102.934 50.8423C102.545 51.5087 102.35 52.2518 102.35 53.069C102.35 53.8862 102.578 54.6925 103.036 55.3671C103.494 56.0417 104.144 56.5709 104.991 56.9521C105.838 57.3333 106.823 57.5225 107.945 57.5225C109.332 57.5225 110.484 57.262 111.4 56.7382C112.042 56.3708 112.544 55.91 112.914 55.3588V57.3525H115.511V48.2179C115.511 46.1447 114.949 44.6035 113.827 43.5944L113.822 43.5889ZM111.096 54.7199C110.325 55.1779 109.425 55.4055 108.397 55.4055C107.369 55.4055 106.532 55.1833 105.943 54.7336C105.353 54.2866 105.057 53.6915 105.057 52.9484C105.057 52.3012 105.295 51.75 105.77 51.292C106.244 50.834 107.168 50.6064 108.54 50.6064H112.766V52.718C112.423 53.5928 111.866 54.2592 111.096 54.7171V54.7199Z" fill="#656D4A"/>
<path d="M126.097 55.2053C125.334 55.2053 124.75 54.9859 124.341 54.5499C123.933 54.1111 123.727 53.4831 123.727 52.6659V44.4747H128.066V42.2205H123.727V38.9105H120.988V42.2205H118.418V44.4747H120.988V52.7811C120.988 54.3031 121.407 55.474 122.244 56.2912C123.08 57.1084 124.262 57.5198 125.784 57.5198C126.412 57.5198 127.015 57.4348 127.597 57.262C128.178 57.092 128.677 56.8232 129.097 56.464L128.241 54.495C127.671 54.9722 126.958 55.208 126.099 55.208L126.097 55.2053Z" fill="#656D4A"/>
<path d="M133.775 35.7377C133.243 35.7377 132.799 35.9077 132.448 36.2505C132.097 36.5933 131.919 37.0211 131.919 37.5339C131.919 38.0467 132.094 38.4471 132.448 38.7898C132.799 39.1326 133.243 39.3027 133.775 39.3027C134.307 39.3027 134.774 39.1271 135.116 38.7734C135.459 38.4224 135.629 37.9891 135.629 37.4735C135.629 36.958 135.454 36.5658 135.1 36.2313C134.746 35.8995 134.305 35.7322 133.773 35.7322L133.775 35.7377Z" fill="#656D4A"/>
<path d="M135.144 42.2177H132.404V57.347H135.144V42.2177Z" fill="#656D4A"/>
<path d="M145.771 54.3387L140.568 42.2177H137.714L144.336 57.347H147.134L153.757 42.2177H151.072L145.771 54.3387Z" fill="#656D4A"/>
<path d="M169.043 45.7718C168.404 44.6008 167.526 43.6931 166.402 43.0459C165.278 42.3987 163.986 42.0751 162.519 42.0751C161.051 42.0751 159.774 42.4042 158.622 43.0596C157.47 43.715 156.568 44.6255 155.909 45.7855C155.254 46.9455 154.925 48.2782 154.925 49.781C154.925 51.2838 155.262 52.6165 155.937 53.7765C156.612 54.9365 157.563 55.8497 158.792 56.5161C160.02 57.1825 161.441 57.5143 163.059 57.5143C164.315 57.5143 165.453 57.3059 166.471 56.8863C167.488 56.4667 168.341 55.8579 169.026 55.0599L167.513 53.2912C166.961 53.8999 166.317 54.3579 165.585 54.6623C164.852 54.9667 164.038 55.1203 163.144 55.1203C162.061 55.1203 161.098 54.9009 160.262 54.4649C159.423 54.0261 158.773 53.4146 158.306 52.6248C157.961 52.0434 157.747 51.399 157.656 50.6969H169.94C169.959 50.5653 169.973 50.42 169.984 50.2691C169.992 50.1183 169.997 49.9839 169.997 49.8688C169.997 48.3084 169.679 46.9427 169.04 45.7718H169.043ZM159.979 45.0286C160.722 44.6008 161.567 44.3869 162.519 44.3869C163.47 44.3869 164.34 44.6008 165.075 45.0286C165.807 45.4564 166.383 46.0515 166.802 46.8138C167.12 47.3925 167.31 48.0287 167.376 48.7252H157.651C157.73 48.0314 157.925 47.3979 158.238 46.8275C158.657 46.057 159.236 45.4564 159.979 45.0286Z" fill="#656D4A"/>
</g>
<defs>
<clipPath id="clip0_105_169">
<rect width="170" height="70" fill="white"/>
</clipPath>
</defs>
</svg>
