<svg width="102" height="42" viewBox="0 0 102 42" fill="none" xmlns="http://www.w3.org/2000/svg">
<g clip-path="url(#clip0_17_391)">
<path d="M17.3908 2.52388C17.2098 2.40377 17.3299 2.47123 17.3908 2.52388V2.52388Z" fill="#656D4A"/>
<path d="M10.396 39.772C10.2923 39.7144 10.266 39.7045 10.2759 39.7127C10.3121 39.7308 10.3466 39.7489 10.3828 39.767C10.3877 39.767 10.3927 39.7703 10.3976 39.772H10.396Z" fill="#656D4A"/>
<path d="M11.1924 39.8511C11.1759 39.8544 11.1512 39.8577 11.12 39.8642C11.1298 39.8642 11.1397 39.8626 11.1512 39.8609C11.1644 39.8577 11.1776 39.8544 11.1924 39.8511Z" fill="#656D4A"/>
<path d="M14.921 2.81833C14.921 2.81833 14.9144 2.82985 14.9094 2.83479C14.9786 2.76568 15.0032 2.73277 15.0049 2.7229C14.9983 2.73113 14.9901 2.73771 14.9835 2.74429C14.9621 2.76733 14.9424 2.79365 14.921 2.81833Z" fill="#656D4A"/>
<path d="M17.8482 3.09985C17.8515 3.11466 17.868 3.15415 17.9124 3.22984C17.9124 3.22819 17.9124 3.2249 17.9108 3.22326C17.8894 3.18212 17.8696 3.14099 17.8499 3.09985H17.8482Z" fill="#656D4A"/>
<path d="M16.0366 2.16038C16.1221 2.15709 16.16 2.15051 16.1699 2.14722C16.132 2.14886 16.0942 2.15215 16.0563 2.15709C16.0497 2.15709 16.0432 2.16038 16.0382 2.16038H16.0366Z" fill="#656D4A"/>
<path d="M15.1678 2.56184C15.1678 2.56184 15.1546 2.575 15.148 2.58158C15.148 2.58652 15.1793 2.56677 15.2583 2.48779C15.2534 2.49108 15.2484 2.49437 15.2435 2.49767C15.2188 2.51906 15.1925 2.54045 15.1678 2.56184Z" fill="#656D4A"/>
<path d="M9.83816 39.3772C9.84968 39.3838 9.83158 39.3575 9.74437 39.2703C9.74766 39.2736 9.74931 39.2785 9.7526 39.2818C9.78221 39.313 9.81019 39.3443 9.83981 39.3772H9.83816Z" fill="#656D4A"/>
<path d="M26.4405 14.2818C26.4405 13.4097 26.4554 12.5344 26.4405 11.6623C26.4405 11.6475 26.4405 11.6343 26.4405 11.6195C26.4405 11.0585 25.9469 10.5221 25.3677 10.5467C24.7869 10.5731 24.2949 11.0173 24.2949 11.6195V20.7991C24.2949 20.8551 24.2949 20.911 24.2949 20.9669C24.2949 21.0607 24.2916 21.1529 24.285 21.245C24.285 21.2532 24.2817 21.2713 24.2801 21.2911C24.2735 21.3273 24.2669 21.3734 24.2636 21.3914C24.2406 21.505 24.211 21.6185 24.1781 21.7304C24.16 21.7896 24.1402 21.8489 24.1188 21.9065C24.1188 21.9065 24.1188 21.9081 24.1188 21.9097C24.0184 22.1072 23.9197 22.2997 23.7914 22.4823C23.765 22.5136 23.7404 22.5449 23.7124 22.5745C23.6318 22.665 23.5462 22.7522 23.4573 22.8344C23.4195 22.8706 23.3784 22.9036 23.3389 22.9381C23.25 23.0006 23.1612 23.0615 23.0657 23.1158C22.9719 23.1701 22.8765 23.2195 22.7778 23.2655C22.7268 23.2836 22.6758 23.3034 22.6231 23.3198C22.5129 23.356 22.401 23.3857 22.2874 23.4103C22.2381 23.4219 22.1871 23.4301 22.136 23.4383C22.0126 23.4498 21.8892 23.4531 21.7658 23.4531C21.5404 23.4531 21.315 23.4531 21.0895 23.4531H20.178V4.36175C20.178 3.80397 20.178 3.24948 19.9986 2.70979C19.686 1.7637 19.0278 0.924552 18.1359 0.460554C17.2408 -0.00508886 16.1795 -0.138365 15.2087 0.154513C13.5632 0.648127 12.4328 2.17669 12.4213 3.89117C12.4213 4.09191 12.4213 4.29265 12.4213 4.49338V38.2451C12.4213 38.2928 12.4213 38.3405 12.4213 38.3866C12.4213 38.4063 12.4213 38.4211 12.4213 38.4442C12.418 38.5528 12.3456 38.8424 12.4312 38.4853C12.4098 38.5725 12.3999 38.6614 12.3769 38.7486C12.3637 38.7996 12.3489 38.8506 12.3324 38.9016C12.3275 38.9148 12.3143 38.9493 12.3028 38.9822C12.3028 38.9822 12.3028 38.9822 12.3028 38.9839C12.2798 39.0299 12.2551 39.076 12.2288 39.1221C12.1926 39.1846 12.1531 39.2438 12.1136 39.3031C12.0955 39.3228 12.079 39.3442 12.0609 39.364C11.9918 39.438 11.9145 39.5022 11.8421 39.5729C11.8158 39.591 11.7911 39.6091 11.7648 39.6256C11.6973 39.6683 11.6265 39.7078 11.5541 39.744C11.5689 39.7391 11.5854 39.7358 11.6035 39.7309C11.5755 39.7391 11.5492 39.7506 11.5212 39.7621C11.5262 39.7588 11.5327 39.7572 11.5377 39.7539C11.5426 39.7506 11.5492 39.7473 11.5541 39.7457C11.4225 39.7835 11.4093 39.795 11.439 39.7885C11.4587 39.7819 11.4784 39.7769 11.4982 39.7704C11.4752 39.7786 11.4521 39.7868 11.439 39.7885C11.3583 39.8148 11.2777 39.8362 11.1954 39.8543C11.2761 39.8395 11.2168 39.8543 11.1543 39.8641C11.151 39.8641 11.1477 39.8641 11.1444 39.8658C11.1099 39.8724 11.0737 39.8773 11.0391 39.8839C11.072 39.8773 11.1 39.8724 11.123 39.8674C11.1181 39.8674 11.1115 39.8674 11.1066 39.8674C11.0325 39.8724 10.9585 39.874 10.8861 39.8724C10.8417 39.8724 10.7972 39.8674 10.7528 39.8658C10.6607 39.8477 10.5702 39.8279 10.4797 39.8C10.4517 39.7917 10.4254 39.7819 10.3974 39.7737C10.4105 39.7802 10.4237 39.7885 10.4402 39.7983C10.4221 39.7885 10.4023 39.7786 10.3842 39.7704C10.3842 39.7704 10.3809 39.7704 10.3793 39.7704C10.3349 39.7556 10.2871 39.7259 10.2773 39.7177C10.2542 39.7062 10.2312 39.6947 10.2082 39.6832C10.144 39.647 10.0831 39.6042 10.0222 39.563C9.97779 39.5236 9.93501 39.4841 9.89223 39.4429C9.87413 39.4248 9.85603 39.4034 9.83957 39.3837C9.82805 39.3788 9.79021 39.3426 9.76224 39.3031C9.75894 39.2981 9.75565 39.2932 9.75236 39.2883C9.74084 39.2767 9.73097 39.2636 9.71945 39.2521C9.72933 39.2619 9.73755 39.2685 9.74578 39.2767C9.73262 39.257 9.71945 39.2373 9.70629 39.2175C9.66186 39.1468 9.62237 39.0727 9.58453 38.9987C9.58946 39.0168 9.59604 39.0349 9.60263 39.0563C9.59604 39.0316 9.58617 39.0069 9.5763 38.9822C9.56972 38.9691 9.56314 38.9575 9.55655 38.9444C9.53681 38.9049 9.52858 38.8638 9.53845 38.8753C9.53681 38.8687 9.53352 38.8638 9.53187 38.8572C9.50719 38.7782 9.48744 38.6976 9.47099 38.6169C9.47099 38.6334 9.47099 38.6515 9.47264 38.6712C9.47264 38.6482 9.46934 38.6252 9.4677 38.6021C9.4677 38.6021 9.4677 38.6005 9.4677 38.5988C9.45618 38.538 9.45618 38.4442 9.46276 38.4837C9.46276 38.4508 9.45947 38.4179 9.45947 38.3849C9.45947 38.3471 9.45947 38.3093 9.45947 38.2714V23.3511C9.45947 22.8624 9.47428 22.3853 9.38872 21.9015C9.21759 20.9291 8.52156 20.0077 7.63631 19.5717C7.14267 19.3281 6.626 19.1949 6.07313 19.1883C5.8839 19.1866 5.69467 19.1883 5.50709 19.1883C5.27015 19.1883 5.03156 19.1883 4.79461 19.1883C4.70247 19.1883 4.61197 19.1883 4.51982 19.1817C4.47704 19.1784 4.4359 19.1751 4.39312 19.1718C4.29604 19.1537 4.19896 19.1356 4.10352 19.1093C4.01631 19.0863 3.93075 19.0616 3.84683 19.032C3.79582 19.0155 3.74646 18.9958 3.69709 18.9777C3.53749 18.9201 3.80405 19.0237 3.80569 19.0254C3.6214 18.9859 3.40749 18.8247 3.25282 18.7226C3.17384 18.67 2.95499 18.4643 3.21662 18.7062C3.15245 18.647 3.0817 18.5959 3.01752 18.5367C2.94019 18.466 2.86614 18.3919 2.79539 18.3146C2.72299 18.2356 2.53376 17.946 2.72957 18.2504C2.6292 18.0958 2.5206 17.951 2.43339 17.7864C2.38731 17.7009 2.35111 17.6104 2.30669 17.5264C2.47781 17.8473 2.31656 17.5396 2.282 17.4343C2.22935 17.2698 2.1915 17.1019 2.16024 16.9325C2.15695 16.893 2.15201 16.8535 2.15037 16.814C2.14543 16.74 2.14379 16.6643 2.14379 16.5902C2.14379 16.4602 2.14379 16.3286 2.14379 16.1986V6.0894C2.14379 5.52833 1.65015 4.99193 1.07095 5.01661C0.490106 5.04294 -0.00188446 5.48719 -0.00188446 6.0894V16.2463C-0.00188446 17.3471 0.207088 18.4281 0.876788 19.3331C1.48067 20.1492 2.26555 20.7432 3.22485 21.0838C3.85999 21.3092 4.52805 21.3339 5.19446 21.3339H5.96288C6.02706 21.3339 6.09287 21.3339 6.15705 21.3355C6.18666 21.3355 6.21464 21.3388 6.24426 21.3404C6.33805 21.3618 6.43019 21.3849 6.52234 21.4145C6.50917 21.4063 6.49601 21.3997 6.4812 21.3898C6.50259 21.403 6.52892 21.4145 6.55196 21.4244C6.54702 21.4244 6.54373 21.4211 6.53879 21.4194C6.53221 21.4178 6.52727 21.4161 6.52069 21.4145C6.63258 21.4819 6.65397 21.4836 6.63258 21.4671C6.61448 21.4573 6.59638 21.4457 6.57828 21.4359C6.60132 21.4474 6.62271 21.4589 6.63258 21.4671C6.69182 21.5 6.74776 21.5346 6.80536 21.5708C6.79055 21.5576 6.77409 21.5412 6.75435 21.5231C6.77574 21.5428 6.79877 21.5626 6.82181 21.5807C6.82181 21.5807 6.82181 21.5807 6.82346 21.5807C6.86624 21.607 6.90573 21.6481 6.89421 21.6448C6.95345 21.7008 7.00775 21.7584 7.0604 21.8193C7.07521 21.8423 7.09002 21.8637 7.10483 21.8867C7.12951 21.9246 7.16571 21.9756 7.19697 22.0282C7.19862 22.0348 7.20191 22.0447 7.2052 22.0562C7.22166 22.1072 7.23975 22.1566 7.25621 22.2076C7.26937 22.2503 7.27925 22.2948 7.28912 22.3375C7.29076 22.3474 7.29241 22.3556 7.29406 22.3672C7.30228 22.7143 7.30886 23.0599 7.30886 23.407V37.7663C7.30886 38.3586 7.29076 38.9559 7.49151 39.5268C7.81895 40.4565 8.48701 41.2709 9.40024 41.6741C10.4204 42.1249 11.5048 42.1183 12.5184 41.6527C13.7887 41.0702 14.5587 39.7194 14.562 38.3471C14.5637 37.5935 14.562 36.8399 14.562 36.088V6.33457C14.562 5.53985 14.562 4.74677 14.562 3.95205C14.562 3.93066 14.562 3.90927 14.562 3.88788C14.562 3.88459 14.562 3.8813 14.562 3.87801C14.562 3.84017 14.562 3.80397 14.5637 3.76612C14.5653 3.72335 14.5686 3.67892 14.5719 3.63614C14.5719 3.62956 14.5735 3.62462 14.5752 3.6164C14.6097 3.43869 14.6739 3.27745 14.7282 3.10633C14.6196 3.45021 14.715 3.14746 14.7677 3.05532C14.8105 2.97963 14.8582 2.90724 14.9059 2.83484C14.8977 2.84307 14.8878 2.85294 14.8779 2.86281C14.8911 2.84965 14.9043 2.83319 14.9174 2.81839C14.929 2.80193 14.9388 2.78548 14.9503 2.76902C14.975 2.73283 15.003 2.71144 15.0014 2.72295C15.0474 2.67359 15.0935 2.62752 15.1429 2.58145C15.1429 2.57487 15.1708 2.54196 15.2087 2.51728C15.2186 2.5107 15.2284 2.50412 15.2383 2.49754C15.2531 2.48602 15.2679 2.47286 15.2811 2.45969C15.2712 2.46956 15.263 2.47944 15.2531 2.48766C15.3321 2.43501 15.4111 2.38236 15.495 2.33793C15.5855 2.28857 15.8636 2.20301 15.523 2.31161C15.6069 2.28528 15.6875 2.24908 15.7731 2.2244C15.8586 2.19972 15.9442 2.17998 16.0298 2.16188C16.01 2.16188 15.9886 2.16352 15.9623 2.16352C15.9903 2.16352 16.0199 2.16023 16.0479 2.15694C16.061 2.15365 16.0725 2.15201 16.0857 2.14872C16.1301 2.13884 16.1746 2.14213 16.1614 2.14872C16.168 2.14872 16.1746 2.14872 16.1811 2.14872C16.2552 2.14542 16.3292 2.14542 16.4049 2.14872C16.4609 2.15036 16.5152 2.15694 16.5695 2.16023C16.7455 2.17175 16.4461 2.14213 16.4461 2.14213C16.6287 2.11416 16.892 2.25896 17.0631 2.31325C16.7258 2.2063 17.0022 2.29186 17.0911 2.33958C17.1668 2.38071 17.2425 2.42678 17.3149 2.4745C17.3576 2.50412 17.3988 2.53703 17.4416 2.565C17.4185 2.55019 17.4004 2.53703 17.3823 2.52551C17.3823 2.52551 17.384 2.52715 17.3856 2.5288C17.463 2.5979 17.5386 2.6703 17.6078 2.74763C17.6275 2.77067 17.6472 2.7937 17.667 2.81674C17.7114 2.88091 17.7542 2.94508 17.7937 3.01254C17.8101 3.04216 17.8266 3.07177 17.8414 3.10304C17.8365 3.08165 17.8628 3.11291 17.8793 3.15898C17.8875 3.18201 17.8957 3.2034 17.9039 3.22644C17.9122 3.24125 17.9187 3.25441 17.927 3.26922C17.9187 3.25606 17.9122 3.24454 17.9056 3.23302C17.9204 3.27416 17.9352 3.31694 17.9484 3.35972C17.973 3.44198 17.9928 3.52425 18.0092 3.60652C18.0092 3.58842 18.0092 3.57032 18.0076 3.54893C18.0076 3.57855 18.0125 3.60817 18.0158 3.63614C18.0158 3.62956 18.0142 3.62462 18.0125 3.61804C18.0125 3.6131 18.0109 3.60981 18.0092 3.60488C18.0142 3.75461 18.0208 3.75954 18.0208 3.72005C18.0241 3.77435 18.0257 3.8303 18.0257 3.88459C18.0257 3.91256 18.0257 3.94054 18.0257 3.96851V24.5292C18.0257 25.1084 18.5177 25.602 19.0985 25.602H20.6074C21.1554 25.602 21.723 25.6398 22.2693 25.5707C23.4606 25.421 24.5911 24.8846 25.3529 23.9336C26.0391 23.0763 26.4274 22.0611 26.434 20.9554C26.4389 20.1443 26.434 19.3331 26.434 18.5203V14.2818H26.4405ZM7.21507 22.0463C7.23646 22.0858 7.25292 22.1236 7.25621 22.1566C7.25621 22.1566 7.23317 22.0924 7.21507 22.0463ZM7.29899 22.3655C7.30557 22.558 7.31216 22.456 7.29899 22.3655V22.3655ZM23.7239 22.5695C23.7239 22.5695 23.7354 22.5531 23.7585 22.5268C23.7469 22.5432 23.7354 22.5597 23.7239 22.5695Z" fill="#656D4A"/>
<path d="M9.46629 38.5955C9.46629 38.5955 9.46794 38.6054 9.46958 38.6103C9.46629 38.5346 9.463 38.4951 9.45971 38.4771C9.45971 38.5034 9.45971 38.5281 9.46135 38.5544C9.46135 38.5675 9.463 38.5807 9.46465 38.5955H9.46629Z" fill="#656D4A"/>
<path d="M9.58312 38.9906C9.55844 38.91 9.54363 38.8754 9.53705 38.8672C9.54857 38.9034 9.56173 38.9379 9.57489 38.9741C9.57818 38.9791 9.57983 38.9857 9.58312 38.9906Z" fill="#656D4A"/>
<path d="M6.82369 21.5741C6.82369 21.5741 6.81217 21.5675 6.80724 21.5642C6.86318 21.6169 6.88951 21.6366 6.89609 21.6399C6.88951 21.6333 6.88293 21.6251 6.8747 21.6185C6.85824 21.6037 6.84015 21.5889 6.82369 21.5757V21.5741Z" fill="#656D4A"/>
<path d="M34.5331 10.2819C34.956 9.87056 35.4546 9.55136 36.0321 9.32265C36.608 9.09394 37.2333 8.98041 37.908 8.98041C38.5826 8.98041 39.17 9.09723 39.741 9.33088C40.312 9.56452 40.8253 9.92157 41.2828 10.402L42.3968 9.32265C41.8488 8.70563 41.1841 8.24163 40.4008 7.92737C39.6192 7.6131 38.7652 7.45679 37.8405 7.45679C36.9157 7.45679 36.0848 7.60816 35.3147 7.91091C34.5446 8.21366 33.8733 8.64146 33.3023 9.19596C32.7314 9.75045 32.2854 10.3971 31.9662 11.1391C31.647 11.8812 31.4874 12.6973 31.4874 13.5891C31.4874 14.4809 31.647 15.297 31.9662 16.0391C32.2854 16.7812 32.7281 17.4294 33.2941 17.9823C33.8585 18.5368 34.5282 18.9646 35.2983 19.2673C36.0683 19.5701 36.9108 19.7215 37.824 19.7215C38.7373 19.7215 39.6192 19.5619 40.4025 19.2427C41.1841 18.9234 41.8505 18.4545 42.3984 17.8375L41.2844 16.7581C40.827 17.2485 40.3136 17.6121 39.7426 17.8457C39.1717 18.0794 38.5612 18.1962 37.9096 18.1962C37.258 18.1962 36.6097 18.0827 36.0338 17.854C35.4562 17.6252 34.9577 17.306 34.5348 16.8947C34.1119 16.4833 33.7844 15.9963 33.5491 15.4303C33.3155 14.8659 33.1987 14.2522 33.1987 13.5891C33.1987 12.926 33.3155 12.314 33.5491 11.7479C33.7828 11.1819 34.1119 10.6949 34.5348 10.2836L34.5331 10.2819Z" fill="#656D4A"/>
<path d="M50.6503 11.0009C49.9757 10.6126 49.2007 10.4185 48.3204 10.4185C47.4401 10.4185 46.6733 10.6159 45.9822 11.0091C45.2911 11.4024 44.7497 11.9487 44.3548 12.6447C43.9616 13.3407 43.7641 14.1403 43.7641 15.042C43.7641 15.9436 43.9665 16.7433 44.3713 17.4393C44.7761 18.1353 45.347 18.6832 46.0842 19.083C46.8214 19.4829 47.6737 19.682 48.6445 19.682C49.3982 19.682 50.081 19.5569 50.6915 19.3052C51.3019 19.0534 51.8137 18.6881 52.225 18.2093L51.3168 17.1481C50.986 17.5133 50.5993 17.7881 50.16 17.9708C49.7207 18.1534 49.232 18.2455 48.6955 18.2455C48.0456 18.2455 47.468 18.1139 46.9662 17.8523C46.4627 17.589 46.0727 17.2221 45.793 16.7482C45.5856 16.3994 45.4573 16.0128 45.403 15.5915H52.773C52.7845 15.5126 52.7927 15.4254 52.7993 15.3349C52.8042 15.2444 52.8075 15.1637 52.8075 15.0946C52.8075 14.1584 52.6167 13.339 52.2333 12.6364C51.8499 11.9339 51.3233 11.3892 50.6487 11.0009H50.6503ZM46.7967 12.1905C47.2426 11.9339 47.7494 11.8055 48.3204 11.8055C48.8914 11.8055 49.413 11.9339 49.8539 12.1905C50.2933 12.4472 50.6388 12.8043 50.8906 13.2617C51.0815 13.6089 51.195 13.9906 51.2345 14.4085H45.3997C45.4474 13.9922 45.5642 13.6121 45.7518 13.2699C46.0036 12.8076 46.3508 12.4472 46.7967 12.1905Z" fill="#656D4A"/>
<path d="M56.6628 12.0309V10.504H55.0865V19.5816H56.7303V15.0601C56.7303 14.0663 56.987 13.3077 57.5004 12.7829C58.0138 12.258 58.7098 11.9947 59.5901 11.9947H59.7694C59.832 11.9947 59.8978 12.0013 59.9669 12.0112V10.4185C59.0997 10.4185 58.3675 10.5846 57.7752 10.9154C57.2881 11.1868 56.9179 11.5604 56.6612 12.0309H56.6628Z" fill="#656D4A"/>
<path d="M68.1547 11.0009C67.48 10.6126 66.705 10.4185 65.8247 10.4185C64.9444 10.4185 64.1776 10.6159 63.4865 11.0091C62.7954 11.4024 62.2541 11.9487 61.8592 12.6447C61.4659 13.3407 61.2685 14.1403 61.2685 15.042C61.2685 15.9436 61.4708 16.7433 61.8756 17.4393C62.2804 18.1353 62.8514 18.6832 63.5885 19.083C64.3257 19.4829 65.1781 19.682 66.1489 19.682C66.9025 19.682 67.5854 19.5569 68.1958 19.3052C68.8063 19.0534 69.318 18.6881 69.7294 18.2093L68.8211 17.1481C68.4903 17.5133 68.1037 17.7881 67.6643 17.9708C67.225 18.1534 66.7363 18.2455 66.1999 18.2455C65.5499 18.2455 64.9724 18.1139 64.4705 17.8523C63.967 17.589 63.577 17.2221 63.2973 16.7482C63.0916 16.3994 62.9616 16.0128 62.9073 15.5915H70.2773C70.2888 15.5126 70.2971 15.4254 70.3036 15.3349C70.3086 15.2444 70.3119 15.1637 70.3119 15.0946C70.3119 14.1584 70.121 13.339 69.7376 12.6364C69.3542 11.9339 68.8277 11.3892 68.153 11.0009H68.1547ZM64.301 12.1905C64.7469 11.9339 65.2537 11.8055 65.8247 11.8055C66.3957 11.8055 66.9173 11.9339 67.3583 12.1905C67.7976 12.4472 68.1432 12.8043 68.3949 13.2617C68.5858 13.6089 68.6993 13.9906 68.7388 14.4085H62.904C62.9518 13.9922 63.0686 13.6121 63.2562 13.2699C63.5079 12.8076 63.8551 12.4472 64.301 12.1905Z" fill="#656D4A"/>
<path d="M79.4079 15.1968C79.4079 15.8368 79.2944 16.3815 79.0657 16.8323C78.837 17.2831 78.5112 17.6254 78.0899 17.8607C77.667 18.0943 77.1701 18.2111 76.5991 18.2111C75.8225 18.2111 75.2203 17.989 74.7924 17.5431C74.3646 17.0972 74.1507 16.4292 74.1507 15.539V10.5042H72.5069V15.7282C72.5069 16.6184 72.6698 17.3588 72.9956 17.9462C73.3214 18.5336 73.7772 18.9713 74.3663 19.2559C74.9537 19.5422 75.6366 19.6837 76.4132 19.6837C77.1899 19.6837 77.8234 19.5175 78.4174 19.1868C78.86 18.94 79.2187 18.6175 79.4968 18.2193V19.5817H81.055V10.5042H79.4112V15.1968H79.4079Z" fill="#656D4A"/>
<path d="M90.3963 15.7627C90.1857 15.455 89.9109 15.2147 89.5735 15.0436C89.2362 14.8725 88.8627 14.7376 88.4513 14.6405C88.04 14.5434 87.6286 14.4628 87.2173 14.4003C86.8059 14.3378 86.4324 14.2604 86.0951 14.1683C85.7577 14.0778 85.4846 13.9478 85.2723 13.7833C85.0617 13.6171 84.9548 13.3801 84.9548 13.0725C84.9548 12.7072 85.1308 12.4077 85.4862 12.1724C85.84 11.9388 86.3764 11.822 87.0955 11.822C87.5414 11.822 87.9857 11.873 88.4316 11.9766C88.8775 12.0786 89.3053 12.2679 89.7167 12.5426L90.4193 11.2411C90.031 10.9779 89.5308 10.7755 88.9203 10.6324C88.3098 10.4892 87.7076 10.4185 87.1136 10.4185C86.3369 10.4185 85.6656 10.5303 85.1012 10.7525C84.5352 10.9746 84.0991 11.2922 83.7914 11.7035C83.4837 12.1148 83.329 12.5937 83.329 13.1416C83.329 13.6895 83.4311 14.086 83.6367 14.4003C83.8424 14.7145 84.1156 14.9597 84.4595 15.1374C84.8017 15.3151 85.1785 15.4517 85.5899 15.5488C86.0013 15.6458 86.4126 15.7265 86.8223 15.789C87.2337 15.8515 87.6072 15.9239 87.9445 16.0029C88.2819 16.0835 88.5517 16.202 88.7574 16.3632C88.9631 16.5228 89.0651 16.7466 89.0651 17.0312C89.0651 17.4196 88.8973 17.7223 88.5599 17.9395C88.2226 18.1567 87.6714 18.2653 86.9063 18.2653C86.3122 18.2653 85.7298 18.1748 85.1588 17.9905C84.5878 17.8079 84.1073 17.5857 83.7207 17.3225L83.0362 18.624C83.4245 18.9218 83.9576 19.1719 84.6372 19.3776C85.3168 19.5832 86.0325 19.6852 86.7861 19.6852C87.5974 19.6852 88.2934 19.5734 88.8759 19.3512C89.4584 19.1291 89.9092 18.8181 90.2284 18.4183C90.5476 18.0185 90.7089 17.5446 90.7089 16.9967C90.7089 16.4833 90.6036 16.072 90.3913 15.7643L90.3963 15.7627Z" fill="#656D4A"/>
<path d="M34.5331 25.1083C34.956 24.697 35.4546 24.3778 36.0321 24.1491C36.608 23.9204 37.2333 23.8068 37.908 23.8068C38.5826 23.8068 39.17 23.9237 39.741 24.1573C40.312 24.3909 40.8253 24.748 41.2828 25.2284L42.3968 24.1491C41.8488 23.532 41.1841 23.0681 40.4008 22.7538C39.6192 22.4395 38.7652 22.2832 37.8405 22.2832C36.9157 22.2832 36.0848 22.4346 35.3147 22.7373C34.5446 23.0401 33.8733 23.4679 33.3023 24.0224C32.7314 24.5769 32.2854 25.2235 31.9662 25.9656C31.647 26.7076 31.4874 27.5237 31.4874 28.4155C31.4874 29.3073 31.647 30.1234 31.9662 30.8655C32.2854 31.6076 32.7281 32.2559 33.2941 32.8087C33.8585 33.3632 34.5282 33.791 35.2983 34.0938C36.0683 34.3965 36.9108 34.5479 37.824 34.5479C38.7373 34.5479 39.6192 34.3883 40.4025 34.0691C41.1841 33.7499 41.8505 33.2809 42.3984 32.6639L41.2844 31.5845C40.827 32.0749 40.3136 32.4385 39.7426 32.6721C39.1717 32.9058 38.5612 33.0226 37.9096 33.0226C37.258 33.0226 36.6097 32.9091 36.0338 32.6804C35.4562 32.4517 34.9577 32.1325 34.5348 31.7211C34.1119 31.3098 33.7844 30.8227 33.5491 30.2567C33.3155 29.6907 33.1987 29.0786 33.1987 28.4155C33.1987 27.7525 33.3155 27.1404 33.5491 26.5744C33.7828 26.0083 34.1119 25.5213 34.5348 25.11L34.5331 25.1083Z" fill="#656D4A"/>
<path d="M46.1813 26.8573V25.3304H44.6049V34.408H46.2488V29.8865C46.2488 28.8927 46.5055 28.1342 47.0188 27.6093C47.5322 27.0844 48.2282 26.8211 49.1086 26.8211H49.2879C49.3504 26.8211 49.4163 26.8277 49.4854 26.8376V25.2449C48.6182 25.2449 47.886 25.4111 47.2936 25.7418C46.8066 26.0133 46.4363 26.3868 46.1796 26.8573H46.1813Z" fill="#656D4A"/>
<path d="M57.6731 25.8273C56.9985 25.439 56.2235 25.2449 55.3432 25.2449C54.4629 25.2449 53.6961 25.4423 53.005 25.8356C52.3139 26.2288 51.7725 26.7751 51.3776 27.4711C50.9844 28.1671 50.7869 28.9667 50.7869 29.8684C50.7869 30.7701 50.9893 31.5697 51.3941 32.2657C51.7989 32.9617 52.3698 33.5096 53.107 33.9095C53.8442 34.3093 54.6965 34.5084 55.6673 34.5084C56.421 34.5084 57.1038 34.3833 57.7143 34.1316C58.3247 33.8798 58.8365 33.5146 59.2478 33.0358L58.3395 31.9745C58.0088 32.3398 57.6221 32.6145 57.1828 32.7972C56.7435 32.9798 56.2548 33.072 55.7183 33.072C55.0684 33.072 54.4908 32.9403 53.989 32.6787C53.4855 32.4154 53.0955 32.0485 52.8158 31.5747C52.6084 31.2258 52.4801 30.8392 52.4258 30.418H59.7958C59.8073 30.339 59.8155 30.2518 59.8221 30.1613C59.827 30.0708 59.8303 29.9902 59.8303 29.921C59.8303 28.9848 59.6395 28.1654 59.2561 27.4628C58.8727 26.7603 58.3461 26.2156 57.6715 25.8273H57.6731ZM53.8195 27.0169C54.2654 26.7603 54.7722 26.6319 55.3432 26.6319C55.9142 26.6319 56.4358 26.7603 56.8767 27.0169C57.3161 27.2736 57.6616 27.6307 57.9134 28.0881C58.1042 28.4353 58.2178 28.817 58.2573 29.2349H52.4225C52.4702 28.8186 52.587 28.4386 52.7746 28.0963C53.0264 27.634 53.3736 27.2736 53.8195 27.0169Z" fill="#656D4A"/>
<path d="M68.2929 26.1531C67.6183 25.5476 66.6606 25.2449 65.415 25.2449C64.6959 25.2449 64.0081 25.3452 63.3516 25.5443C62.6951 25.7434 62.1323 26.033 61.665 26.4098L62.3495 27.6422C62.7033 27.346 63.1377 27.1091 63.6511 26.9314C64.1644 26.7553 64.6893 26.6665 65.2274 26.6665C66.0386 26.6665 66.6458 26.8573 67.0522 27.2407C67.457 27.6241 67.6594 28.1621 67.6594 28.8598V29.1856H65.0563C64.1546 29.1856 63.4372 29.3057 62.9073 29.5459C62.3758 29.7861 61.9941 30.1053 61.7604 30.5052C61.5268 30.905 61.41 31.3509 61.41 31.8412C61.41 32.3315 61.5465 32.8153 61.8213 33.22C62.0961 33.6248 62.4861 33.9424 62.9945 34.1711C63.503 34.3998 64.0937 34.5133 64.7667 34.5133C65.5993 34.5133 66.2904 34.357 66.84 34.0427C67.225 33.8222 67.5261 33.5458 67.7482 33.2151V34.4113H69.3065V28.9305C69.3065 27.6866 68.9692 26.7619 68.2962 26.1564L68.2929 26.1531ZM66.6573 32.8317C66.1949 33.1065 65.6552 33.2431 65.0382 33.2431C64.4211 33.2431 63.9193 33.1098 63.5655 32.84C63.2117 32.5718 63.034 32.2147 63.034 31.7688C63.034 31.3805 63.1772 31.0498 63.4618 30.775C63.7465 30.5002 64.301 30.3637 65.1237 30.3637H67.6594V31.6306C67.4537 32.1555 67.1197 32.5553 66.6573 32.8301V32.8317Z" fill="#656D4A"/>
<path d="M75.6579 33.123C75.2005 33.123 74.85 32.9914 74.6049 32.7298C74.3597 32.4665 74.2363 32.0897 74.2363 31.5994V26.6847H76.8394V25.3322H74.2363V23.3462H72.5925V25.3322H71.0507V26.6847H72.5925V31.6685C72.5925 32.5817 72.8442 33.2843 73.3461 33.7746C73.8479 34.2649 74.5571 34.5117 75.4704 34.5117C75.8472 34.5117 76.2092 34.4607 76.558 34.3571C76.9068 34.2551 77.2063 34.0938 77.4581 33.8783L76.9447 32.6969C76.6024 32.9832 76.1746 33.1247 75.6596 33.1247L75.6579 33.123Z" fill="#656D4A"/>
<path d="M80.2652 21.4425C79.946 21.4425 79.6794 21.5445 79.4688 21.7502C79.2582 21.9559 79.1512 22.2125 79.1512 22.5202C79.1512 22.8279 79.2565 23.0681 79.4688 23.2738C79.6794 23.4795 79.946 23.5815 80.2652 23.5815C80.5844 23.5815 80.8642 23.4762 81.0698 23.2639C81.2755 23.0533 81.3775 22.7934 81.3775 22.484C81.3775 22.1747 81.2722 21.9394 81.06 21.7387C80.8477 21.5396 80.5828 21.4392 80.2636 21.4392L80.2652 21.4425Z" fill="#656D4A"/>
<path d="M81.0863 25.3306H79.4425V34.4081H81.0863V25.3306Z" fill="#656D4A"/>
<path d="M87.4624 32.6031L84.341 25.3306H82.6281L86.6018 34.4081H88.2802L92.254 25.3306H90.6431L87.4624 32.6031Z" fill="#656D4A"/>
<path d="M101.426 27.4628C101.042 26.7603 100.516 26.2156 99.8412 25.8273C99.1665 25.439 98.3915 25.2449 97.5112 25.2449C96.6309 25.2449 95.8641 25.4423 95.173 25.8356C94.4819 26.2288 93.9406 26.7751 93.5457 27.4711C93.1524 28.1671 92.9549 28.9667 92.9549 29.8684C92.9549 30.7701 93.1573 31.5697 93.5621 32.2657C93.9669 32.9617 94.5379 33.5096 95.275 33.9095C96.0122 34.3093 96.8645 34.5084 97.8354 34.5084C98.589 34.5084 99.2718 34.3833 99.8823 34.1316C100.493 33.8798 101.005 33.5146 101.416 33.0358L100.508 31.9745C100.177 32.3398 99.7902 32.6145 99.3508 32.7972C98.9115 32.9798 98.4228 33.072 97.8864 33.072C97.2364 33.072 96.6589 32.9403 96.157 32.6787C95.6535 32.4154 95.2635 32.0485 94.9838 31.5747C94.7765 31.2258 94.6481 30.8392 94.5938 30.418H101.964C101.975 30.339 101.984 30.2518 101.99 30.1613C101.995 30.0708 101.998 29.9902 101.998 29.921C101.998 28.9848 101.807 28.1654 101.424 27.4628H101.426ZM95.9875 27.0169C96.4334 26.7603 96.9402 26.6319 97.5112 26.6319C98.0822 26.6319 98.6038 26.7603 99.0448 27.0169C99.4841 27.2736 99.8296 27.6307 100.081 28.0881C100.272 28.4353 100.386 28.817 100.425 29.2349H94.5905C94.6382 28.8186 94.7551 28.4386 94.9427 28.0963C95.1944 27.634 95.5416 27.2736 95.9875 27.0169Z" fill="#656D4A"/>
</g>
<defs>
<clipPath id="clip0_17_391">
<rect width="102" height="42" fill="white"/>
</clipPath>
</defs>
</svg>
