<svg width="138" height="125" viewBox="0 0 138 125" fill="none" xmlns="http://www.w3.org/2000/svg">
<path d="M52 -2.16961e-05L30 92.5L26 71C34 71 40.5 73.5 45.5 78.5C50.5 83.1666 53 89.5 53 97.5C53 105.5 50.5 112 45.5 117C40.5 122 34.3333 124.5 27 124.5C19 124.5 12.5 122 7.5 117C2.83333 111.667 0.500002 105.167 0.500002 97.5C0.500002 94.5 0.666668 91.8333 1 89.5C1.33333 87.1666 2 84.3333 3 81C4 77.6666 5.33333 73.6667 7 69L28 -2.16961e-05H52ZM137 -2.16961e-05L115 92.5L111 71C119 71 125.5 73.5 130.5 78.5C135.5 83.1666 138 89.5 138 97.5C138 105.5 135.5 112 130.5 117C125.5 122 119.333 124.5 112 124.5C104 124.5 97.5 122 92.5 117C87.8333 111.667 85.5 105.167 85.5 97.5C85.5 94.5 85.6667 91.8333 86 89.5C86.3333 87.1666 87 84.3333 88 81C89 77.6666 90.3333 73.6667 92 69L113 -2.16961e-05H137Z" fill="#7C845E"/>
</svg>
