<svg width="485" height="375" viewBox="0 0 485 375" fill="none" xmlns="http://www.w3.org/2000/svg">
<rect x="32" y="30" width="425" height="212" rx="32" fill="#A3B18A"/>
<path d="M4 242L4.00001 371" stroke="#656D4A" stroke-width="8" stroke-linecap="round"/>
<path d="M257.311 110.783C256.722 110.396 257.11 110.61 257.311 110.783V110.783Z" fill="#656D4A"/>
<path d="M234.626 231.589C234.287 231.402 234.204 231.368 234.232 231.395C234.349 231.451 234.46 231.513 234.578 231.575C234.592 231.575 234.606 231.582 234.626 231.589Z" fill="#656D4A"/>
<path d="M237.211 231.844C237.155 231.851 237.079 231.865 236.974 231.886C237.009 231.886 237.044 231.879 237.079 231.872C237.12 231.865 237.169 231.851 237.211 231.844Z" fill="#656D4A"/>
<path d="M249.304 111.736C249.304 111.736 249.283 111.771 249.269 111.792C249.491 111.571 249.574 111.46 249.581 111.432C249.56 111.46 249.533 111.481 249.512 111.501C249.443 111.577 249.373 111.66 249.311 111.743L249.304 111.736Z" fill="#656D4A"/>
<path d="M258.795 112.648C258.802 112.696 258.864 112.821 259.003 113.069C259.003 113.063 259.003 113.056 258.996 113.049C258.927 112.917 258.864 112.786 258.795 112.648Z" fill="#656D4A"/>
<path d="M252.917 109.602C253.194 109.588 253.318 109.574 253.346 109.56C253.221 109.567 253.097 109.581 252.979 109.588C252.958 109.588 252.937 109.595 252.917 109.602Z" fill="#656D4A"/>
<path d="M250.099 110.9C250.099 110.9 250.057 110.942 250.029 110.969C250.029 110.99 250.133 110.921 250.389 110.666C250.375 110.679 250.355 110.686 250.341 110.7C250.258 110.769 250.175 110.838 250.099 110.907V110.9Z" fill="#656D4A"/>
<path d="M232.816 230.311C232.851 230.332 232.796 230.242 232.512 229.966C232.519 229.979 232.526 229.993 232.539 230C232.636 230.104 232.726 230.207 232.823 230.311H232.816Z" fill="#656D4A"/>
<path d="M231.614 227.776C231.614 227.776 231.621 227.81 231.628 227.824C231.614 227.576 231.607 227.451 231.6 227.396C231.6 227.479 231.6 227.562 231.607 227.645C231.607 227.686 231.614 227.734 231.621 227.776H231.614Z" fill="#656D4A"/>
<path d="M231.987 229.054C231.904 228.791 231.856 228.681 231.835 228.653C231.876 228.771 231.918 228.881 231.959 228.998C231.966 229.019 231.98 229.033 231.987 229.054Z" fill="#656D4A"/>
<path d="M223.042 172.564C223.042 172.564 223.007 172.543 222.986 172.529C223.166 172.695 223.256 172.764 223.277 172.771C223.256 172.75 223.228 172.723 223.208 172.702C223.152 172.654 223.097 172.605 223.042 172.564Z" fill="#656D4A"/>
<path d="M484.823 166.976V58.3548C484.823 49.1471 485.804 38.8549 483.235 29.9234C479.36 16.4745 468.625 5.66418 455.211 1.68544C450.894 0.407544 446.424 0 441.955 0H45.9383C44.4739 0 43.0026 0 41.5382 0C31.0387 0.0552603 20.9675 3.90276 13.231 11.0313C4.73474 18.8437 0.0721456 30.027 0.00307002 41.5143C-0.00383753 43.8007 0.00307002 46.094 0.00307002 48.3873V264.849C0.00307002 270.181 8.29213 270.188 8.29213 264.849V49.5132C8.29213 46.9298 8.29213 44.3533 8.29213 41.7698C8.31286 32.6035 11.7874 23.9277 18.4048 17.5244C24.6492 11.4872 32.9659 8.30976 41.6142 8.28904C43.1476 8.28904 44.6811 8.28904 46.2146 8.28904H440.698C441.741 8.28904 442.784 8.28213 443.834 8.28904C456.592 8.4341 468.086 16.0117 473.53 27.4989C477.633 36.1609 476.527 46.612 476.527 55.9648V223.921C476.527 227.873 476.534 231.748 475.567 235.63C472.493 247.897 462.554 257.388 450.21 260.027C447.081 260.697 443.938 260.697 440.767 260.697H169.507C167.145 260.697 164.783 260.697 162.42 260.697C154.808 260.683 147.424 258.459 141.387 253.714C133.257 247.331 128.739 237.585 128.711 227.313C128.705 223.839 128.711 220.357 128.711 216.883V93.604C128.711 89.9637 128.504 86.1646 129.14 82.5726C131.343 70.0493 140.558 59.6189 152.86 56.1928C157.233 54.977 161.571 54.984 166.033 54.984H307.548C310.94 54.984 314.476 54.7905 317.833 55.2672C330.074 57.0079 340.753 65.815 344.579 77.6061C347.197 85.6741 346.293 94.8128 346.244 103.192C346.182 115.363 339.696 126.574 328.982 132.452C321.356 136.638 313.316 136.444 304.944 136.444H283.779C282.246 136.444 281.147 137.135 280.498 138.116C280.015 138.696 279.704 139.435 279.704 140.271V170.043C279.704 170.222 279.704 170.402 279.704 170.588C279.704 170.892 279.69 171.189 279.669 171.493C279.669 171.521 279.662 171.576 279.655 171.645C279.635 171.763 279.614 171.908 279.6 171.97C279.524 172.343 279.434 172.709 279.324 173.068C279.262 173.262 279.199 173.455 279.13 173.642C279.13 173.642 279.13 173.642 279.13 173.648C278.806 174.291 278.481 174.913 278.067 175.507C277.984 175.603 277.901 175.707 277.811 175.804C277.549 176.101 277.272 176.377 276.982 176.646C276.858 176.764 276.727 176.867 276.595 176.978C276.305 177.178 276.015 177.378 275.711 177.558C275.407 177.738 275.096 177.89 274.779 178.049C274.613 178.111 274.447 178.173 274.281 178.228C273.922 178.346 273.556 178.442 273.19 178.525C273.031 178.56 272.865 178.587 272.699 178.622C272.299 178.656 271.898 178.67 271.498 178.67C270.765 178.67 270.033 178.67 269.301 178.67H266.344V116.744C266.344 114.934 266.344 113.138 265.764 111.384C264.749 108.317 262.614 105.595 259.72 104.09C256.819 102.584 253.379 102.149 250.229 103.095C244.89 104.697 241.229 109.65 241.187 115.211C241.187 115.86 241.187 116.516 241.187 117.166V226.636C241.187 226.788 241.187 226.94 241.187 227.099C241.187 227.161 241.187 227.209 241.187 227.285C241.18 227.638 240.945 228.577 241.222 227.424C241.153 227.707 241.118 227.997 241.049 228.273C241.008 228.439 240.959 228.605 240.904 228.771C240.89 228.812 240.849 228.929 240.807 229.033C240.807 229.033 240.807 229.033 240.807 229.04C240.731 229.192 240.655 229.337 240.566 229.489C240.448 229.689 240.324 229.883 240.192 230.076C240.137 230.138 240.075 230.207 240.02 230.269C239.799 230.511 239.543 230.718 239.308 230.946C239.225 231.002 239.143 231.064 239.053 231.119C238.832 231.257 238.604 231.388 238.369 231.506C238.417 231.492 238.473 231.478 238.528 231.458C238.438 231.485 238.348 231.52 238.258 231.554C238.279 231.547 238.293 231.54 238.314 231.527C238.334 231.52 238.348 231.506 238.369 231.499C237.941 231.623 237.899 231.658 237.996 231.637C238.058 231.616 238.127 231.596 238.189 231.575C238.113 231.603 238.037 231.623 237.996 231.637C237.733 231.72 237.471 231.789 237.208 231.851C237.471 231.803 237.277 231.851 237.077 231.879C237.063 231.879 237.056 231.879 237.05 231.886C236.932 231.907 236.822 231.92 236.704 231.948C236.815 231.927 236.898 231.907 236.98 231.893C236.96 231.893 236.946 231.893 236.925 231.893C236.683 231.907 236.449 231.913 236.207 231.907C236.062 231.907 235.917 231.893 235.779 231.886C235.482 231.824 235.185 231.762 234.894 231.672C234.805 231.644 234.715 231.616 234.632 231.582C234.673 231.603 234.722 231.63 234.77 231.658C234.708 231.623 234.646 231.596 234.59 231.561H234.577C234.432 231.513 234.28 231.416 234.245 231.389C234.169 231.354 234.093 231.319 234.024 231.278C233.817 231.161 233.623 231.022 233.423 230.884C233.285 230.753 233.14 230.629 233.002 230.497C232.94 230.435 232.884 230.373 232.829 230.304C232.794 230.283 232.67 230.173 232.58 230.042C232.567 230.028 232.56 230.007 232.546 229.993C232.511 229.952 232.477 229.91 232.435 229.876C232.463 229.903 232.491 229.931 232.518 229.959C232.477 229.896 232.428 229.827 232.387 229.765C232.242 229.537 232.118 229.296 231.993 229.054C232.014 229.109 232.028 229.171 232.048 229.24C232.028 229.157 231.993 229.081 231.966 228.998C231.945 228.957 231.924 228.916 231.903 228.874C231.834 228.743 231.814 228.612 231.841 228.653C231.841 228.632 231.827 228.619 231.821 228.598C231.745 228.342 231.675 228.08 231.627 227.817C231.627 227.873 231.627 227.928 231.634 227.99C231.634 227.914 231.62 227.845 231.613 227.769C231.613 227.769 231.613 227.769 231.613 227.762C231.572 227.562 231.579 227.265 231.593 227.389C231.593 227.279 231.586 227.175 231.586 227.064C231.586 226.94 231.586 226.823 231.586 226.698V178.304C231.586 176.722 231.634 175.175 231.358 173.6C230.798 170.45 228.546 167.459 225.673 166.043C224.07 165.256 222.399 164.821 220.603 164.8C219.988 164.8 219.38 164.8 218.765 164.8C217.999 164.8 217.225 164.8 216.458 164.8C216.161 164.8 215.864 164.8 215.567 164.779C215.429 164.772 215.298 164.758 215.16 164.745C214.849 164.682 214.531 164.627 214.22 164.544C213.937 164.468 213.661 164.385 213.391 164.296C213.225 164.24 213.067 164.178 212.908 164.116C212.39 163.93 213.253 164.268 213.26 164.268C212.666 164.144 211.968 163.619 211.464 163.287C211.208 163.114 210.497 162.451 211.347 163.232C211.139 163.038 210.911 162.873 210.704 162.679C210.455 162.451 210.214 162.21 209.986 161.961C209.751 161.705 209.136 160.766 209.772 161.754C209.447 161.249 209.095 160.78 208.811 160.248C208.66 159.972 208.549 159.681 208.397 159.405C208.957 160.448 208.432 159.447 208.321 159.108C208.148 158.576 208.031 158.031 207.927 157.478C207.914 157.347 207.9 157.222 207.893 157.091C207.879 156.849 207.872 156.608 207.872 156.366C207.872 155.944 207.872 155.516 207.872 155.095V122.305C207.872 120.488 206.27 118.74 204.398 118.83C202.512 118.913 200.923 120.357 200.923 122.305V155.247C200.923 158.818 201.6 162.327 203.776 165.256C205.738 167.901 208.28 169.829 211.388 170.934C213.446 171.666 215.615 171.742 217.777 171.742H220.264C220.471 171.742 220.686 171.742 220.893 171.742C220.99 171.742 221.079 171.756 221.176 171.763C221.48 171.832 221.777 171.901 222.074 172.004C222.033 171.984 221.991 171.956 221.943 171.922C222.012 171.963 222.095 171.998 222.178 172.032C222.164 172.032 222.15 172.018 222.136 172.018C222.115 172.018 222.095 172.004 222.081 172.004C222.447 172.219 222.509 172.232 222.44 172.177C222.385 172.143 222.323 172.108 222.267 172.08C222.343 172.115 222.412 172.156 222.44 172.177C222.633 172.288 222.813 172.398 223 172.509C222.951 172.46 222.896 172.412 222.834 172.35C222.903 172.419 222.979 172.481 223.055 172.536C223.193 172.619 223.317 172.757 223.283 172.744C223.476 172.923 223.649 173.117 223.822 173.31C223.87 173.386 223.918 173.455 223.967 173.531C224.043 173.655 224.167 173.821 224.271 173.994C224.277 174.015 224.284 174.049 224.298 174.084C224.353 174.249 224.416 174.408 224.464 174.574C224.505 174.712 224.54 174.857 224.575 174.995C224.575 175.023 224.588 175.058 224.595 175.092C224.623 176.218 224.644 177.337 224.644 178.463V225.04C224.644 226.961 224.581 228.902 225.238 230.753C226.294 233.772 228.47 236.41 231.427 237.716C234.736 239.173 238.251 239.153 241.539 237.647C245.656 235.761 248.157 231.375 248.164 226.926C248.164 224.481 248.164 222.043 248.164 219.597V123.12C248.164 120.543 248.164 117.967 248.164 115.397C248.164 115.328 248.164 115.259 248.164 115.19C248.164 115.176 248.164 115.169 248.164 115.155C248.164 115.031 248.164 114.914 248.171 114.789C248.171 114.651 248.185 114.506 248.198 114.368C248.198 114.347 248.205 114.333 248.212 114.306C248.323 113.733 248.53 113.208 248.71 112.655C248.357 113.774 248.668 112.793 248.841 112.489C248.979 112.24 249.131 112.006 249.29 111.778C249.262 111.805 249.228 111.833 249.2 111.867C249.248 111.826 249.283 111.771 249.331 111.722C249.366 111.667 249.4 111.619 249.442 111.564C249.525 111.446 249.614 111.377 249.607 111.412C249.753 111.253 249.905 111.101 250.063 110.956C250.063 110.935 250.153 110.831 250.278 110.748C250.312 110.728 250.34 110.707 250.374 110.686C250.423 110.645 250.471 110.61 250.512 110.562C250.478 110.596 250.45 110.624 250.423 110.652C250.678 110.479 250.934 110.313 251.21 110.161C251.5 110.002 252.405 109.726 251.3 110.072C251.569 109.982 251.839 109.871 252.108 109.788C252.384 109.705 252.661 109.643 252.944 109.588C252.882 109.588 252.806 109.588 252.723 109.595C252.813 109.595 252.909 109.581 253.006 109.574C253.047 109.567 253.089 109.553 253.13 109.547C253.275 109.519 253.42 109.526 253.379 109.547C253.4 109.547 253.42 109.547 253.441 109.547C253.683 109.54 253.925 109.54 254.166 109.547C254.346 109.553 254.526 109.574 254.705 109.581C255.279 109.616 254.305 109.526 254.305 109.526C254.899 109.436 255.755 109.906 256.308 110.078C255.216 109.733 256.114 110.009 256.398 110.168C256.646 110.306 256.888 110.451 257.123 110.61C257.261 110.707 257.392 110.811 257.537 110.907C257.461 110.859 257.399 110.818 257.344 110.783C257.344 110.783 257.351 110.783 257.351 110.79C257.606 111.011 257.841 111.246 258.069 111.494C258.138 111.57 258.201 111.646 258.263 111.722C258.408 111.93 258.546 112.137 258.67 112.358C258.725 112.455 258.774 112.551 258.822 112.648C258.808 112.579 258.891 112.683 258.947 112.828C258.974 112.904 258.995 112.973 259.022 113.049C259.05 113.097 259.071 113.138 259.098 113.187C259.071 113.145 259.05 113.104 259.029 113.069C259.078 113.208 259.126 113.339 259.168 113.477C259.244 113.739 259.313 114.009 259.368 114.278C259.368 114.223 259.368 114.161 259.368 114.092C259.368 114.188 259.382 114.278 259.395 114.375C259.395 114.354 259.396 114.333 259.389 114.32C259.389 114.306 259.389 114.292 259.382 114.278C259.402 114.762 259.423 114.782 259.423 114.651C259.43 114.831 259.437 115.01 259.444 115.183C259.444 115.273 259.444 115.363 259.444 115.452V182.138C259.444 184.017 261.039 185.612 262.918 185.612H267.816C269.591 185.612 271.435 185.737 273.204 185.516C277.065 185.032 280.733 183.291 283.206 180.204C285.43 177.42 286.694 174.132 286.708 170.547C286.722 167.915 286.708 165.283 286.708 162.652V148.906C286.708 147.517 286.722 146.122 286.729 144.734H306.263C309.04 144.734 311.831 144.809 314.608 144.713C321.722 144.457 328.768 142.406 334.84 138.669C346.797 131.298 354.326 118.133 354.582 104.09C354.734 95.8351 355.355 86.8898 353.545 78.7942C350.492 65.0759 340.2 53.8511 327.076 49.078C321.529 47.061 315.775 46.7018 309.952 46.7018H167.359C163.546 46.7018 159.768 46.6189 155.969 47.1439C142.216 49.0435 129.886 58.1683 124.201 70.8782C119.221 82.0062 120.464 94.647 120.464 106.549V226.574C120.464 236.058 123.158 245.169 128.974 252.74C136.821 262.956 148.951 268.903 161.819 268.993C163.422 269.007 165.024 268.993 166.634 268.993H440.097C442.459 268.993 444.836 269.041 447.191 268.814C461.165 267.453 473.944 259.136 480.327 246.516C485.576 236.127 484.872 225.158 484.872 213.961V166.976H484.823ZM224.305 174.104C224.374 174.229 224.429 174.353 224.443 174.464C224.443 174.464 224.367 174.256 224.305 174.104ZM224.581 175.134C224.602 175.762 224.623 175.424 224.581 175.134V175.134ZM277.852 175.797C277.852 175.797 277.894 175.741 277.963 175.659C277.928 175.714 277.887 175.762 277.852 175.797Z" fill="#656D4A"/>
</svg>
