<svg width="48" height="48" viewBox="0 0 48 48" fill="none" xmlns="http://www.w3.org/2000/svg">
<circle cx="24.3529" cy="23.2942" r="19.0588" fill="white"/>
<path d="M13.3279 31.1969C13.3182 30.6987 12.9581 30.325 12.4871 30.3211C12.0122 30.3172 11.6405 30.687 11.6327 31.1813C11.6249 31.738 11.6249 32.2946 11.6327 32.8512C11.6385 33.3436 12.0142 33.7173 12.4852 33.7134C12.9562 33.7095 13.3182 33.3378 13.326 32.8376C13.3318 32.5632 13.326 32.2888 13.326 32.0163C13.326 31.7438 13.3299 31.4674 13.326 31.195L13.3279 31.1969Z" fill="#656D4A"/>
<path d="M23.8614 0C10.6831 0 0 10.6831 0 23.8614C0 37.0396 10.6831 47.7228 23.8614 47.7228C37.0396 47.7228 47.7228 37.0396 47.7228 23.8614C47.7228 10.6831 37.0396 0 23.8614 0ZM23.729 14.3071C24.2993 14.0482 24.8657 13.7797 25.4457 13.5422C25.6948 13.441 25.9692 13.3534 26.2339 13.3495C28.1082 13.334 29.9805 13.3398 31.8548 13.3417C31.8898 13.3417 31.9248 13.3456 31.9871 13.3515V18.4235C31.8976 18.4274 31.8119 18.4352 31.7263 18.4352C29.9318 18.4352 28.1374 18.4449 26.3429 18.4274C26.0432 18.4235 25.7298 18.3476 25.4495 18.2347C24.8676 18.005 24.3032 17.7287 23.7329 17.4698C23.0478 17.1603 22.6605 16.6329 22.6644 15.8758C22.6683 15.1304 23.0537 14.6127 23.7271 14.3071H23.729ZM20.8894 14.9883L20.9439 15.0272V23.5986C20.7473 23.3826 20.5819 23.2035 20.4184 23.0245C19.4784 21.991 18.5383 20.9595 17.5983 19.926C17.2207 19.5095 17.2071 19.0735 17.571 18.6707C18.6492 17.4776 19.7353 16.2904 20.8174 15.0992C20.8466 15.0662 20.8661 15.0253 20.8894 14.9883ZM12.4757 14.9864C12.4795 14.0872 13.223 13.3495 14.1261 13.3437C15.8505 13.332 17.5749 13.3359 19.2993 13.3437C19.5134 13.3437 19.7255 13.4138 20.0077 13.4644C19.0852 14.4784 18.223 15.4282 17.3608 16.376C17.0105 16.7614 16.6563 17.1467 16.3079 17.534C15.3737 18.5772 15.3776 20.0019 16.3215 21.0432C17.4679 22.3083 18.6181 23.5694 19.7664 24.8326C19.8248 24.8968 19.8832 24.963 19.9941 25.0856C19.7431 25.1381 19.5368 25.216 19.3304 25.216C17.5885 25.2257 15.8466 25.2335 14.1047 25.216C13.2172 25.2082 12.4815 24.4667 12.4776 23.5792C12.4659 20.7143 12.4659 17.8474 12.4776 14.9825L12.4757 14.9864ZM20.9595 35.3172C20.9575 36.3954 20.2413 37.1097 19.1631 37.1117C17.5282 37.1136 15.8933 37.1136 14.2584 37.1117C13.1958 37.1117 12.4718 36.3915 12.4718 35.3347C12.4698 33.1257 12.4698 30.9147 12.4718 28.7057C12.4718 27.645 13.1938 26.9268 14.2545 26.9248C15.8992 26.9229 17.5418 26.9229 19.1864 26.9248C20.2316 26.9248 20.9575 27.6469 20.9595 28.6882C20.9634 29.8014 20.9595 30.9147 20.9595 32.0299C20.9595 33.1257 20.9595 34.2214 20.9595 35.3172ZM31.1658 36.4986C31.1619 36.4694 31.1502 36.4052 31.1502 36.3409C31.1502 35.2101 31.1483 34.0774 31.1502 32.9466C31.1502 32.3647 31.4927 32.0202 32.0708 32.0182C33.2639 32.0163 34.4569 32.0182 35.6656 32.0182C34.1514 33.5266 32.6566 35.0136 31.1658 36.4986ZM36.2436 30.3211C34.8481 30.3211 33.4955 30.3211 32.1428 30.3211C30.5313 30.3211 29.453 31.4032 29.453 33.0186C29.453 34.3713 29.453 35.722 29.453 37.1C29.3557 37.1039 29.272 37.1117 29.1864 37.1117C27.896 37.1117 26.6037 37.1136 25.3133 37.1117C23.7563 37.1097 22.6625 36.014 22.6605 34.455C22.6605 30.5644 22.6605 26.6738 22.6605 22.7831C22.6605 21.2281 23.7602 20.1343 25.3191 20.1323C28.0692 20.1323 30.8193 20.1323 33.5694 20.1323C35.1615 20.1323 36.2436 21.2203 36.2436 22.8201C36.2436 25.2257 36.2436 27.6313 36.2436 30.035V30.3211ZM36.2378 16.7906C36.2183 17.6391 35.5644 18.3437 34.7197 18.4215C34.3888 18.4527 34.0541 18.4274 33.7076 18.4274V13.3515C34.3421 13.3417 34.9883 13.2425 35.5527 13.6726C35.9867 14.0035 36.2242 14.4433 36.2378 14.9883C36.2514 15.5878 36.2514 16.1892 36.2378 16.7906Z" fill="#656D4A"/>
<path d="M27.6817 23.5286C26.8682 23.5266 26.0546 23.5286 25.2411 23.5286C24.4276 23.5286 23.579 23.5286 22.7479 23.5286C22.203 23.5286 21.8234 23.877 21.8195 24.3694C21.8156 24.8618 22.1971 25.2257 22.7343 25.2257C24.3886 25.2277 26.041 25.2277 27.6954 25.2257C28.2306 25.2257 28.614 24.8637 28.6121 24.3713C28.6082 23.8808 28.2247 23.5305 27.6837 23.5286H27.6817Z" fill="#656D4A"/>
<path d="M26.0099 26.9249C25.461 26.9211 24.9141 26.9249 24.3653 26.9249C23.8164 26.9249 23.2695 26.923 22.7207 26.9249C22.1991 26.9288 21.8234 27.2831 21.8195 27.7657C21.8156 28.2484 22.1932 28.6182 22.707 28.6202C23.8125 28.6241 24.918 28.6241 26.0216 28.6202C26.5354 28.6182 26.9129 28.2484 26.911 27.7657C26.9071 27.285 26.5276 26.9269 26.0099 26.9249Z" fill="#656D4A"/>
</svg>
