<svg width="134" height="134" viewBox="0 0 134 134" fill="none" xmlns="http://www.w3.org/2000/svg">
<circle cx="68" cy="67" r="54" fill="white"/>
<path d="M66.951 0C29.9766 0 0 29.9766 0 66.951C0 103.925 29.9766 133.902 66.951 133.902C103.925 133.902 133.902 103.925 133.902 66.951C133.902 29.9766 103.925 0 66.951 0ZM105.635 94.777C105.47 95.2788 105.354 95.8027 105.122 96.2714C103.975 98.6096 102.034 99.5691 99.4864 99.5636C88.9427 99.547 78.3935 99.558 67.8499 99.558C57.3063 99.558 45.8031 99.4808 34.7797 99.5966C30.5115 99.6408 28.234 96.7126 28.2671 93.1172C28.3829 80.7096 28.3112 68.3021 28.3112 55.9001V54.9681H29.3038C54.4718 54.9681 79.6398 54.9681 104.808 54.9681C105.084 54.9681 105.359 54.9791 105.635 54.9847V94.7825V94.777ZM105.635 50.1375C80.2188 50.1375 54.8027 50.1375 29.3921 50.1375H28.3609C28.3443 49.8783 28.3167 49.6632 28.3167 49.4482C28.3167 46.349 28.3057 43.2444 28.3167 40.1453C28.3278 36.8421 30.5225 34.5315 33.8147 34.3385C34.0683 34.322 34.3165 34.322 34.5701 34.322C56.1868 34.322 77.8035 34.322 99.4147 34.311C101.35 34.311 103.104 34.7521 104.3 36.3513C104.902 37.1509 105.205 38.1766 105.64 39.0975V50.143L105.635 50.1375Z" fill="#656D4A"/>
<path d="M47.8434 39.7979C46.5034 39.7979 45.3895 40.9228 45.4171 42.2518C45.4446 43.5477 46.553 44.645 47.8434 44.645C49.189 44.645 50.2643 43.5422 50.2477 42.1801C50.2312 40.8456 49.1724 39.7978 47.8434 39.8034V39.7979Z" fill="#656D4A"/>
<path d="M37.9891 39.7979C36.6712 39.7979 35.5903 40.8621 35.5738 42.1746C35.5572 43.5091 36.6712 44.6395 38.0002 44.6395C39.3126 44.6395 40.3934 43.5642 40.41 42.2463C40.4265 40.8787 39.3567 39.7979 37.9946 39.7979H37.9891Z" fill="#656D4A"/>
<path d="M58.1665 39.7979C56.8099 39.7869 55.7181 40.8733 55.7291 42.2298C55.7401 43.5423 56.8154 44.6286 58.1224 44.6451C59.4513 44.6617 60.5763 43.5367 60.5653 42.2022C60.5542 40.8843 59.4899 39.8145 58.1665 39.8034V39.7979Z" fill="#656D4A"/>
</svg>
