<svg width="48" height="48" viewBox="0 0 48 48" fill="none" xmlns="http://www.w3.org/2000/svg">
<circle cx="24" cy="23.647" r="19.0588" fill="white"/>
<path d="M23.6298 0C10.58 0 0 10.58 0 23.6298C0 36.6796 10.58 47.2596 23.6298 47.2596C36.6796 47.2596 47.2596 36.6796 47.2596 23.6298C47.2596 10.58 36.6796 0 23.6298 0ZM37.2829 33.4507C37.2245 33.6278 37.1837 33.8127 37.1019 33.9782C36.6971 34.8034 36.012 35.142 35.1128 35.1401C31.3915 35.1342 27.6683 35.1381 23.947 35.1381C20.2257 35.1381 16.1658 35.1109 12.2752 35.1518C10.7688 35.1673 9.96495 34.1339 9.97663 32.8649C10.0175 28.4858 9.9922 24.1066 9.9922 19.7294V19.4005H10.3425C19.2253 19.4005 28.1082 19.4005 36.991 19.4005C37.0883 19.4005 37.1856 19.4044 37.2829 19.4064V33.4527V33.4507ZM37.2829 17.6956C28.3125 17.6956 19.3421 17.6956 10.3737 17.6956H10.0097C10.0039 17.6041 9.99415 17.5282 9.99415 17.4523C9.99415 16.3585 9.99025 15.2627 9.99415 14.1689C9.99804 13.0031 10.7727 12.1876 11.9346 12.1195C12.0241 12.1136 12.1117 12.1136 12.2012 12.1136C19.8306 12.1136 27.4601 12.1136 35.0875 12.1098C35.7707 12.1098 36.3896 12.2655 36.8119 12.8299C37.0241 13.1121 37.1311 13.4741 37.2849 13.7991V17.6975L37.2829 17.6956Z" fill="#656D4A"/>
<path d="M16.8859 14.0464C16.413 14.0464 16.0198 14.4434 16.0296 14.9125C16.0393 15.3699 16.4305 15.7572 16.8859 15.7572C17.3608 15.7572 17.7403 15.3679 17.7345 14.8872C17.7287 14.4162 17.355 14.0464 16.8859 14.0483V14.0464Z" fill="#656D4A"/>
<path d="M13.4079 14.0464C12.9428 14.0464 12.5613 14.422 12.5555 14.8852C12.5496 15.3562 12.9428 15.7552 13.4118 15.7552C13.875 15.7552 14.2565 15.3757 14.2623 14.9105C14.2682 14.4279 13.8906 14.0464 13.4099 14.0464H13.4079Z" fill="#656D4A"/>
<path d="M20.5294 14.0464C20.0506 14.0425 19.6652 14.4259 19.6691 14.9047C19.673 15.3679 20.0525 15.7514 20.5138 15.7572C20.9828 15.763 21.3799 15.366 21.376 14.895C21.3721 14.4298 20.9965 14.0523 20.5294 14.0484V14.0464Z" fill="#656D4A"/>
</svg>
