<svg width="222" height="173" viewBox="0 0 222 173" fill="none" xmlns="http://www.w3.org/2000/svg">
<path d="M186.983 0H35.0166C15.6775 0 0 15.7494 0 35.1772V109.766C0 129.194 15.6775 144.943 35.0166 144.943H186.983C206.323 144.943 222 129.194 222 109.766V35.1772C222 15.7494 206.323 0 186.983 0Z" fill="#A3B18A"/>
<path d="M83.7665 166.627C83.7665 166.627 83.7759 166.598 83.7822 166.582C83.7822 166.582 83.7822 166.582 83.7791 166.582C83.7759 166.598 83.7728 166.611 83.7665 166.627Z" fill="#656D4A"/>
<path d="M84.6974 166.885C84.6974 166.885 84.707 166.853 84.7134 166.84C84.7584 166.669 84.7584 166.498 84.7134 166.324C84.6685 166.16 84.585 166.018 84.4662 165.899C84.3475 165.779 84.203 165.695 84.0425 165.65C83.8724 165.605 83.7022 165.605 83.5289 165.65C83.5289 165.65 83.5289 165.65 83.5257 165.65C83.3619 165.695 83.2207 165.779 83.1019 165.899C82.9831 166.018 82.8997 166.163 82.8547 166.324C82.8515 166.34 82.8483 166.353 82.8419 166.369C82.8002 166.498 82.7969 166.627 82.8258 166.756C82.8323 166.885 82.8708 167.005 82.9414 167.118C83.0024 167.23 83.0859 167.321 83.1886 167.388C83.2817 167.476 83.3908 167.53 83.516 167.563L83.7728 167.598C83.9462 167.598 84.1099 167.553 84.2576 167.466L84.4534 167.314C84.5722 167.195 84.6556 167.05 84.7006 166.889C84.7038 166.873 84.707 166.86 84.7134 166.843L84.0393 167.521C84.0393 167.521 84.0393 167.521 84.0425 167.521L82.8579 166.331C82.8579 166.331 82.8483 166.363 82.8419 166.376C82.8002 166.505 82.7969 166.634 82.8258 166.763C82.8323 166.892 82.8708 167.011 82.9414 167.124C83.0024 167.237 83.0859 167.327 83.1886 167.395C83.2817 167.482 83.3908 167.537 83.516 167.569L83.7728 167.605C83.9462 167.605 84.1099 167.559 84.2576 167.472L84.4534 167.321C84.5722 167.201 84.6556 167.056 84.7006 166.895L84.6974 166.885Z" fill="#656D4A"/>
<path d="M205.574 24.9285C202.155 18.5658 196.193 13.0641 188.881 11.9257C187.224 11.6677 185.616 11.6451 183.956 11.6451H37.4628C34.9717 11.6451 32.4967 11.8483 30.1179 12.6674C22.8115 15.1796 17.6753 21.4166 14.8182 28.4243C12.8889 33.1552 12.1955 38.2183 12.1955 43.3008V102.616C12.1955 104.193 12.1891 105.77 12.1955 107.347C12.2244 115.397 14.8118 123.665 20.3943 129.589C24.3075 133.743 29.569 136.236 35.2863 136.242C37.8545 136.242 40.4194 136.242 42.9875 136.242H73.4874C80.4022 136.242 87.3201 136.194 94.2381 136.242C96.2091 136.255 98.1769 136.987 99.6761 138.287C102.369 140.622 103.827 143.831 104.427 147.507C104.697 149.161 104.745 151.161 104.241 152.825C104.003 153.605 103.756 154.128 103.246 154.857C103.332 154.721 102.928 155.24 102.944 155.224C102.832 155.347 102.716 155.466 102.594 155.579C102.594 155.579 102.254 155.853 102.222 155.889C102.055 155.998 101.885 156.095 101.718 156.201C101.654 156.243 101.609 156.272 101.58 156.295C101.544 156.305 101.496 156.317 101.426 156.34C101.345 156.366 101.272 156.388 101.195 156.414C101.159 156.424 101.124 156.434 101.085 156.446C100.886 156.508 100.684 156.566 100.485 156.624L98.1737 157.304C93.4644 158.691 88.7551 160.078 84.0457 161.464C82.2191 162.003 80.4375 162.448 79.5097 164.36C77.9881 167.501 79.6638 171.82 83.4262 171.949C86.5625 172.058 89.7181 171.949 92.8577 171.949H116.719C119.817 171.949 119.823 167.111 116.719 167.111H92.5944C89.6636 167.111 86.7166 167.031 83.7857 167.105C83.7729 167.05 83.7568 166.995 83.7408 166.94C83.7279 166.863 83.7279 166.805 83.7536 166.815C83.7536 166.779 83.7536 166.74 83.7568 166.705C83.76 166.679 83.7697 166.657 83.7761 166.631C83.7664 166.653 83.7632 166.666 83.7568 166.673C83.7568 166.66 83.7568 166.644 83.7568 166.631C83.7568 166.647 83.7504 166.66 83.7504 166.676C83.7504 166.666 83.7568 166.634 83.7664 166.589C83.7729 166.589 83.7793 166.589 83.7857 166.586C83.7921 166.569 83.7953 166.553 83.7986 166.537C83.7986 166.537 83.8018 166.537 83.805 166.534C83.7985 166.55 83.7953 166.569 83.7889 166.586C84.3411 166.489 84.9061 166.25 85.4389 166.095C86.4309 165.802 87.4228 165.512 88.4148 165.218C92.8641 163.909 97.3134 162.6 101.763 161.287C104.334 160.529 106.421 159.072 107.782 156.695C109.968 152.883 109.734 148.084 108.575 143.976C106.726 137.41 101.49 131.46 94.2958 131.402C92.1643 131.386 90.0295 131.402 87.8979 131.402H35.5528C35.3569 131.402 35.1611 131.402 34.9685 131.402C34.7213 131.402 34.4709 131.399 34.2237 131.386C33.8963 131.37 33.5689 131.344 33.2414 131.308C33.1965 131.299 32.8209 131.247 32.7888 131.241C32.5609 131.202 32.3361 131.154 32.1114 131.105C31.3635 130.938 30.6283 130.718 29.9093 130.447C29.89 130.441 29.5497 130.299 29.4919 130.28C29.3635 130.222 29.2351 130.164 29.1067 130.102C28.7215 129.918 28.3459 129.718 27.9735 129.509C27.6011 129.296 27.2352 129.067 26.8756 128.828C26.7119 128.719 26.5482 128.606 26.3877 128.493C26.3845 128.493 26.0506 128.241 26.0089 128.216C25.3476 127.693 24.7216 127.119 24.1309 126.519C19.3028 121.614 17.0268 114.368 17.0011 107.331C16.9819 101.762 17.0011 96.1956 17.0011 90.6262V43.3975C17.0011 38.7633 17.5693 34.4742 19.2996 30.0851C20.5066 27.0214 22.5034 23.8772 24.8693 21.5327C26.1694 20.2427 26.9495 19.6171 28.5128 18.6883C30.0698 17.7628 30.8723 17.4145 32.5962 16.9598C33.0039 16.8533 33.4148 16.7598 33.8289 16.6824C33.9573 16.6598 34.0889 16.6373 34.2173 16.6147C34.2526 16.6147 34.6411 16.5599 34.6732 16.5566C35.2189 16.505 35.7614 16.4825 36.3104 16.4792C36.3778 16.4792 36.442 16.4792 36.5094 16.4792C36.9171 16.4792 37.328 16.4792 37.7357 16.4792H177.799C180.987 16.4792 184.251 16.2857 187.433 16.5695C187.487 16.576 187.629 16.5953 187.715 16.605C187.901 16.634 188.091 16.6663 188.277 16.7018C188.653 16.7759 189.025 16.8598 189.397 16.9598C189.767 17.0565 190.133 17.1694 190.495 17.2887C190.64 17.3371 190.784 17.3887 190.929 17.4403C190.986 17.4628 191.452 17.6499 191.526 17.6757C192.197 17.9756 192.848 18.311 193.481 18.6883C193.818 18.8882 194.145 19.0979 194.469 19.3172C194.665 19.4494 194.858 19.5848 195.051 19.7235C195.089 19.7525 195.307 19.9202 195.391 19.9815C196.704 21.0328 197.888 22.2486 198.948 23.5547C199.205 23.8707 199.811 24.7124 200.213 25.338C200.758 26.183 201.259 27.0569 201.718 27.9534C204.129 32.6908 204.992 38.0474 204.992 43.4814V69.8353H133.036C131.184 69.8353 130.439 71.5638 130.802 72.957V89.2008C130.802 89.304 130.802 89.4072 130.802 89.5136C130.802 89.6878 130.796 89.8587 130.783 90.0328C130.783 90.049 130.78 90.0812 130.773 90.1199C130.76 90.1876 130.747 90.2715 130.741 90.3069C130.699 90.5198 130.645 90.7294 130.58 90.9358C130.545 91.0455 130.51 91.1551 130.471 91.2647C130.471 91.2647 130.471 91.268 130.471 91.2712C130.285 91.6388 130.102 91.9968 129.865 92.3354C129.816 92.3935 129.768 92.4515 129.72 92.5063C129.569 92.674 129.412 92.8353 129.245 92.9901C129.174 93.0546 129.101 93.1191 129.027 93.1803C128.86 93.2964 128.696 93.4093 128.523 93.5125C128.349 93.6157 128.17 93.7028 127.99 93.7931C127.894 93.8285 127.8 93.864 127.704 93.893C127.499 93.9608 127.29 94.0156 127.081 94.064C126.988 94.0833 126.895 94.0994 126.802 94.1188C126.574 94.1414 126.346 94.1478 126.115 94.1478C125.698 94.1478 125.28 94.1478 124.863 94.1478H123.178V58.6223C123.178 57.5839 123.178 56.5519 122.844 55.5457C122.263 53.7849 121.046 52.2241 119.393 51.3598C117.74 50.4955 115.772 50.2472 113.974 50.789C110.925 51.7081 108.835 54.5524 108.812 57.7419C108.812 58.116 108.812 58.4901 108.812 58.8641V121.666C108.812 121.753 108.812 121.843 108.812 121.93C108.812 121.966 108.812 121.995 108.812 122.037C108.809 122.24 108.674 122.778 108.832 122.114C108.793 122.275 108.774 122.44 108.732 122.601C108.706 122.698 108.681 122.791 108.649 122.885C108.639 122.911 108.616 122.975 108.594 123.036C108.594 123.036 108.594 123.036 108.594 123.04C108.552 123.127 108.504 123.211 108.456 123.294C108.389 123.411 108.315 123.52 108.241 123.63C108.209 123.669 108.177 123.704 108.141 123.743C108.013 123.881 107.868 124.001 107.734 124.13C107.686 124.162 107.637 124.197 107.589 124.226C107.464 124.307 107.332 124.381 107.201 124.446C107.226 124.439 107.259 124.43 107.291 124.42C107.239 124.433 107.188 124.455 107.14 124.478C107.082 124.504 107.021 124.52 106.989 124.526C106.841 124.575 106.69 124.617 106.536 124.649C106.687 124.623 106.578 124.649 106.462 124.665C106.456 124.665 106.45 124.665 106.446 124.668C106.382 124.681 106.315 124.688 106.251 124.704C106.312 124.691 106.363 124.681 106.408 124.672C106.398 124.672 106.389 124.672 106.379 124.672C106.244 124.681 106.106 124.684 105.968 124.681C105.885 124.681 105.804 124.675 105.721 124.668C105.551 124.636 105.381 124.597 105.214 124.546C105.162 124.53 105.114 124.513 105.063 124.497C105.085 124.51 105.114 124.526 105.14 124.543C105.105 124.523 105.069 124.507 105.034 124.488C105.034 124.488 105.027 124.488 105.024 124.488C104.941 124.459 104.854 124.407 104.835 124.388C104.793 124.365 104.748 124.346 104.706 124.323C104.588 124.256 104.475 124.175 104.363 124.097C104.283 124.023 104.199 123.952 104.122 123.875C104.087 123.839 104.055 123.801 104.023 123.765C104 123.756 103.933 123.688 103.881 123.617C103.875 123.607 103.869 123.598 103.862 123.588C103.843 123.565 103.824 123.54 103.801 123.52C103.817 123.536 103.833 123.552 103.849 123.569C103.824 123.533 103.801 123.494 103.775 123.456C103.692 123.324 103.621 123.185 103.551 123.046C103.56 123.078 103.57 123.114 103.583 123.156C103.57 123.107 103.551 123.062 103.535 123.017C103.522 122.995 103.509 122.972 103.499 122.946C103.461 122.872 103.448 122.795 103.467 122.817C103.464 122.808 103.458 122.795 103.454 122.785C103.41 122.637 103.374 122.488 103.342 122.337C103.342 122.366 103.342 122.401 103.345 122.437C103.345 122.395 103.339 122.353 103.336 122.311C103.336 122.311 103.336 122.308 103.336 122.304C103.313 122.192 103.316 122.017 103.326 122.092C103.326 122.03 103.32 121.969 103.32 121.908C103.32 121.837 103.32 121.766 103.32 121.698V93.935C103.32 93.0255 103.349 92.1387 103.188 91.2389C102.87 89.4298 101.583 87.7141 99.9425 86.9047C99.0276 86.4532 98.071 86.2016 97.047 86.192C96.6971 86.1887 96.3471 86.192 95.9972 86.192C95.5574 86.192 95.1176 86.192 94.6778 86.192C94.5077 86.192 94.3376 86.192 94.1706 86.1791C94.0936 86.1758 94.0133 86.1662 93.9363 86.1597C93.7565 86.1243 93.5768 86.092 93.4002 86.0436C93.2397 86.0017 93.0824 85.9533 92.9251 85.9017C92.832 85.8695 92.7389 85.834 92.6458 85.7985C92.3505 85.6921 92.8448 85.8856 92.8481 85.8856C92.5078 85.8114 92.1097 85.5147 91.824 85.3213C91.6763 85.2245 91.2718 84.8407 91.7566 85.289C91.6378 85.1794 91.5094 85.0826 91.3906 84.973C91.2494 84.8407 91.1113 84.7053 90.9797 84.5602C90.8449 84.415 90.495 83.8733 90.8577 84.4408C90.6715 84.1538 90.4725 83.8829 90.3088 83.5798C90.2253 83.4218 90.1579 83.2541 90.0712 83.0961C90.389 83.6927 90.0905 83.1219 90.0263 82.9251C89.9268 82.6188 89.8594 82.306 89.7984 81.9899C89.792 81.9157 89.7855 81.8416 89.7791 81.7674C89.7695 81.6287 89.7663 81.4901 89.7663 81.3514C89.7663 81.1095 89.7663 80.8644 89.7663 80.6226V61.8117C89.7663 60.7668 88.8514 59.7671 87.7792 59.8155C86.7038 59.8639 85.7921 60.6927 85.7921 61.8117V80.7129C85.7921 82.7607 86.1805 84.773 87.4196 86.4564C88.54 87.9721 89.991 89.0783 91.7662 89.7136C92.9443 90.1328 94.1803 90.1779 95.413 90.1779H96.8351C96.9539 90.1779 97.0759 90.1779 97.1946 90.1779C97.2492 90.1779 97.3551 90.1876 97.3551 90.1876C97.3551 90.1876 97.6986 90.2682 97.8688 90.3263C97.8463 90.3134 97.8206 90.2973 97.7917 90.2812C97.8302 90.307 97.8784 90.3263 97.9233 90.3456C97.9875 90.3714 98.0485 90.4069 98.0742 90.4263C98.1834 90.4875 98.2893 90.552 98.3952 90.6165C98.3663 90.5907 98.3375 90.5617 98.3021 90.5262C98.3407 90.5649 98.3856 90.6004 98.4273 90.6359C98.5076 90.6843 98.5782 90.7617 98.559 90.7552C98.6681 90.8584 98.7676 90.968 98.8671 91.0809C98.896 91.1228 98.9217 91.1648 98.9506 91.2067C98.9955 91.2776 99.063 91.3744 99.1207 91.4711C99.1239 91.484 99.1304 91.5002 99.1368 91.5227C99.1657 91.6162 99.201 91.7098 99.2299 91.8065C99.2523 91.8871 99.2748 91.9678 99.2909 92.0484C99.2941 92.0645 99.2973 92.0839 99.3005 92.1032C99.3166 92.7482 99.3294 93.39 99.3294 94.0382V120.756C99.3294 121.859 99.2941 122.972 99.6665 124.033C100.273 125.765 101.512 127.277 103.201 128.029C105.088 128.867 107.098 128.854 108.976 127.99C111.329 126.906 112.754 124.394 112.761 121.84C112.764 120.437 112.761 119.038 112.761 117.635V62.2858C112.761 60.8088 112.761 59.3317 112.761 57.8547C112.761 57.816 112.761 57.7741 112.761 57.7354C112.761 57.729 112.761 57.7225 112.761 57.7161C112.761 57.6451 112.761 57.5774 112.764 57.5065C112.764 57.4258 112.774 57.3452 112.78 57.2646C112.78 57.2517 112.783 57.242 112.786 57.2291C112.851 56.9002 112.969 56.597 113.069 56.281C112.867 56.9228 113.047 56.3584 113.143 56.1842C113.22 56.0424 113.31 55.9069 113.4 55.7747C113.384 55.7908 113.368 55.8069 113.348 55.8263C113.374 55.8005 113.396 55.7715 113.422 55.7424C113.441 55.7134 113.464 55.6812 113.483 55.6521C113.528 55.5844 113.583 55.5457 113.579 55.5651C113.663 55.4748 113.75 55.3877 113.839 55.3038C113.839 55.2942 113.891 55.2297 113.961 55.1845C113.981 55.1716 113.997 55.1587 114.016 55.1491C114.042 55.1265 114.071 55.1039 114.093 55.0781C114.074 55.0975 114.058 55.1136 114.042 55.1297C114.189 55.033 114.334 54.9362 114.491 54.8491C114.658 54.7588 115.175 54.5976 114.546 54.8008C114.703 54.7524 114.851 54.6847 115.008 54.6363C115.165 54.5879 115.326 54.5557 115.483 54.5202C115.445 54.5202 115.406 54.5234 115.358 54.5234C115.412 54.5234 115.464 54.517 115.518 54.5105C115.541 54.5041 115.563 54.5008 115.589 54.4944C115.669 54.4783 115.753 54.4815 115.73 54.4944C115.743 54.4944 115.756 54.4944 115.766 54.4944C115.904 54.4879 116.042 54.4879 116.18 54.4944C116.282 54.4976 116.382 54.5105 116.485 54.517C116.809 54.5363 116.257 54.4847 116.257 54.4847C116.597 54.4331 117.082 54.704 117.399 54.804C116.774 54.604 117.287 54.7653 117.451 54.8524C117.592 54.9298 117.73 55.0136 117.865 55.1039C117.945 55.1587 118.019 55.22 118.099 55.2716C118.058 55.2426 118.022 55.22 117.99 55.2006C117.99 55.2006 117.993 55.2039 117.997 55.2071C118.141 55.3361 118.279 55.4715 118.408 55.6134C118.446 55.6554 118.481 55.7005 118.52 55.7424C118.6 55.8618 118.68 55.9811 118.754 56.1068C118.786 56.1617 118.815 56.2165 118.841 56.2745C118.831 56.2326 118.879 56.2939 118.911 56.3777C118.928 56.4197 118.94 56.4616 118.956 56.5035C118.969 56.5293 118.985 56.5583 118.998 56.5841C118.985 56.5616 118.972 56.539 118.96 56.5164C118.989 56.5938 119.014 56.6712 119.037 56.7518C119.082 56.9034 119.12 57.0582 119.152 57.213C119.152 57.1807 119.152 57.1453 119.149 57.1066C119.149 57.1614 119.155 57.2162 119.162 57.271C119.162 57.2614 119.159 57.2485 119.155 57.2388C119.155 57.2323 119.152 57.2227 119.149 57.2162C119.159 57.4936 119.172 57.5032 119.172 57.4291C119.178 57.5323 119.181 57.6322 119.181 57.7354C119.181 57.787 119.181 57.8386 119.181 57.8902V96.1473C119.181 97.2244 120.09 98.1434 121.168 98.1434H123.964C124.979 98.1434 126.032 98.2144 127.043 98.0854C129.248 97.8081 131.345 96.8084 132.754 95.0379C134.025 93.4416 134.744 91.555 134.754 89.4975C134.76 87.9882 134.754 86.479 134.754 84.9665V77.0816C134.754 76.2818 134.76 75.4821 134.763 74.6823H207.381C208.681 74.6823 209.788 73.5729 209.788 72.2636V43.0911C209.788 36.7736 208.556 30.5301 205.551 24.9349L205.574 24.9285ZM83.7825 167.169C83.7825 167.169 83.7921 167.202 83.8018 167.224C83.805 167.25 83.7953 167.224 83.7825 167.169ZM83.8339 166.402C83.8242 166.431 83.8178 166.46 83.8114 166.486C83.8114 166.486 83.8114 166.486 83.8082 166.489C83.8178 166.46 83.8274 166.431 83.8339 166.405V166.402ZM83.7729 167.102H83.7664C83.7536 167.05 83.7408 166.992 83.7343 166.944C83.7504 167.008 83.7632 167.063 83.7729 167.102ZM83.7953 166.531C83.7953 166.531 83.7985 166.531 83.8018 166.528C83.8018 166.528 83.8018 166.528 83.8018 166.531C83.8018 166.531 83.7985 166.531 83.7953 166.531ZM99.1657 91.526C99.2042 91.5969 99.2363 91.6711 99.2427 91.7324C99.2427 91.7324 99.1978 91.613 99.1657 91.526ZM99.323 92.1193C99.3358 92.4773 99.3487 92.287 99.323 92.1193V92.1193ZM129.746 92.4967C129.746 92.4967 129.768 92.4676 129.81 92.416C129.791 92.4451 129.768 92.4773 129.746 92.4967Z" fill="#656D4A"/>
<path d="M206.405 24.4383C203.795 19.6396 199.898 15.3505 194.977 12.8996C188.996 9.91979 182.162 10.6776 175.687 10.6776C161.08 10.6776 146.474 10.6776 131.868 10.6776C117.262 10.6776 102.655 10.6776 88.0521 10.6776C73.449 10.6776 58.9679 10.6776 44.4258 10.6776C40.8881 10.6776 37.2671 10.4519 33.7487 10.8808C30.76 11.2452 27.9254 12.274 25.3573 13.8509C20.709 16.705 17.1585 21.1457 14.8183 26.0443C11.9131 32.1265 11.2293 38.5795 11.2293 45.2454C11.2293 51.392 11.2293 57.5387 11.2293 63.6886C11.2293 77.388 11.2389 91.0842 11.2293 104.784C11.2229 110.908 11.881 116.79 14.4555 122.414C16.876 127.7 20.8598 132.46 26.1213 135.043C31.9992 137.929 38.5961 137.207 44.9426 137.207H66.8392C74.1456 137.207 81.4488 137.178 88.7551 137.187C92.0456 137.191 95.8625 136.604 98.6714 138.71C100.935 140.406 102.35 143.076 103.069 145.766C103.824 148.587 104.119 151.841 102.408 154.366L104.203 154.853V154.84C104.27 154.031 103.085 153.528 102.559 154.157C102.26 154.515 101.991 154.866 101.605 155.14C101.015 155.56 100.244 155.682 99.5606 155.882C97.4002 156.517 95.2397 157.156 93.076 157.791C90.9124 158.427 88.7391 159.068 86.569 159.707C84.8195 160.223 82.9511 160.616 81.2915 161.39C78.5243 162.68 77.3975 165.944 78.2675 168.804C78.6655 170.11 79.4681 171.291 80.6109 172.049C82.0491 173 83.7216 172.942 85.3812 172.958C94.5463 173.052 103.721 172.916 112.889 172.916H116.138C116.889 172.916 117.615 172.9 118.292 172.539C119.245 172.029 119.833 171.049 119.965 169.988C120.096 168.927 119.785 167.821 119.027 167.063C117.884 165.918 116.241 166.144 114.767 166.144H99.2043C94.0648 166.144 88.9156 166.021 83.7794 166.137L84.7071 166.847C84.537 167.376 84.5273 167.45 84.675 167.073C84.7135 166.792 84.7232 166.731 84.6975 166.889C85.0121 165.647 83.301 165.257 82.8388 166.373L82.8195 166.415L84.7103 166.673V166.631C84.752 165.563 83.0025 165.283 82.8195 166.373L82.8131 166.418C82.6109 167.627 84.4342 168.166 84.6718 166.934L84.6878 166.847L84.0137 167.524H84.033C84.3572 167.45 84.6172 167.153 84.7071 166.844L84.7199 166.795L84.2769 167.372H84.2833C83.8115 167.005 83.3396 166.64 82.8677 166.276L82.8516 166.328C82.6301 167.066 83.346 167.669 84.0362 167.518C85.9655 167.089 87.8755 166.382 89.7728 165.821C91.7502 165.238 93.7277 164.657 95.7052 164.073C97.6826 163.49 99.6601 162.912 101.638 162.326C103.134 161.88 104.559 161.294 105.814 160.345C111.352 156.163 111.175 147.923 108.931 142.005C106.886 136.613 102.546 131.699 96.6714 130.663C94.9508 130.36 93.2044 130.425 91.4677 130.428C89.4293 130.428 87.394 130.434 85.3556 130.434H47.6809C43.5398 130.434 39.4018 130.444 35.2607 130.434C32.1468 130.428 29.3443 129.451 26.8243 127.619C21.3446 123.63 18.6127 116.467 18.0798 109.898C17.762 105.964 17.961 101.955 17.9643 98.0113C17.9675 93.8318 17.9707 89.6523 17.9707 85.476C17.9707 77.0171 17.9707 68.5582 17.9707 60.0993C17.9707 53.8849 17.7652 47.6221 18.0092 41.411C18.3013 33.884 20.8309 26.3797 26.5611 21.2714C28.7761 19.2946 31.6653 17.8982 34.6187 17.5402C36.3136 17.3338 38.076 17.4532 39.7806 17.4532H46.0276C62.7719 17.4532 79.5194 17.4532 96.2637 17.4532H146.686C155.154 17.4532 163.626 17.4532 172.095 17.4532C176.249 17.4532 180.412 17.3242 184.563 17.3983C188.11 17.4628 191.189 18.2271 194.139 20.2588C200.136 24.3932 203.124 31.962 203.821 38.9891C204.184 42.6397 204.036 46.3386 204.036 50.0053V69.8417L204.999 68.8742H133.627C132.844 68.8742 132.073 68.8936 131.373 69.2967C130.25 69.9449 129.672 71.2607 129.768 72.5345C129.932 74.7145 129.845 76.9236 129.845 79.1101V86.2726C129.845 88.0785 130.256 90.307 129.043 91.8259C127.624 93.5996 125.184 93.1803 123.181 93.1803L124.144 94.1478V60.1993C124.144 58.2643 124.257 56.3261 123.476 54.5105C122.096 51.3017 118.761 49.241 115.271 49.57C112.093 49.8699 109.393 52.0532 108.321 55.0555C107.689 56.826 107.856 58.7448 107.856 60.5895V67.136C107.856 76.1045 107.856 85.0697 107.856 94.0382V119.941C107.856 120.666 107.952 121.463 107.833 122.175C107.634 123.378 109.393 123.923 109.692 122.691C109.718 122.585 109.743 122.479 109.769 122.372L107.91 121.856C107.75 122.666 107.596 123.146 106.723 123.614C105.756 124.133 106.418 125.681 107.464 125.381L107.554 125.355L107.04 123.488C106.793 123.582 106.543 123.652 106.286 123.717C105.053 124.017 105.605 125.762 106.8 125.584L106.873 125.575L106.36 123.707C106.241 123.736 106.116 123.752 105.997 123.775L106.511 125.642L106.668 125.61C107.721 125.404 107.499 123.614 106.411 123.71C106.026 123.743 105.689 123.694 105.323 123.572C104.28 123.227 103.641 124.801 104.581 125.339L104.658 125.384L105.631 123.714C105.272 123.53 104.8 123.182 104.491 122.84L103.13 124.207L103.178 124.256C103.939 125 105.31 124.027 104.69 123.082C104.581 122.914 104.485 122.74 104.392 122.562C103.882 121.592 102.321 122.259 102.633 123.307L102.665 123.417L104.524 122.901C104.186 121.924 104.575 123.594 104.44 122.82C104.395 122.569 104.337 122.333 104.283 122.082C104.045 121.024 102.344 121.247 102.392 122.34V122.44H104.321C104.299 122.175 104.264 121.901 104.267 122.35C104.267 122.075 104.296 121.798 104.296 121.521C104.296 120.715 104.296 119.908 104.296 119.102V104.013C104.296 100.652 104.292 97.2921 104.296 93.9317C104.296 92.4031 104.283 90.9068 103.65 89.4878C103.137 88.3365 102.318 87.3433 101.307 86.6015C100.084 85.7018 98.5654 85.2632 97.0599 85.2213C95.5543 85.1794 94.2381 85.3148 92.8256 84.8343C91.8048 84.486 91.0889 86.1372 92.0841 86.6015C92.2542 86.6822 92.434 86.7499 92.6074 86.8176L93.121 84.9504C92.7935 84.8343 92.4886 84.6215 92.2253 84.3925C91.2976 83.583 89.9493 84.902 90.8642 85.7598C90.9381 85.8308 91.0151 85.9017 91.0921 85.9695L92.4533 84.6021C92.1258 84.3215 91.8048 84.0442 91.5448 83.6991C90.8193 82.7317 89.2238 83.5798 89.8819 84.6763C89.9333 84.7633 89.9846 84.8472 90.0424 84.931L91.7053 83.9539C91.4132 83.5153 91.1499 83.0799 90.922 82.6059L89.2591 83.583C89.3041 83.6733 89.3522 83.7604 89.4036 83.8475C90.0328 84.9536 91.5576 83.9829 91.0665 82.8703C90.7454 82.1415 90.7519 81.403 90.7519 80.6226C90.7519 79.381 90.7519 78.1394 90.7519 76.8978V65.2882C90.7519 64.0595 90.8578 62.7727 90.7326 61.5505C90.5496 59.7445 88.784 58.4675 87.0248 58.9673C84.7488 59.6156 84.8516 61.8343 84.8516 63.766V79.5229C84.8516 81.7061 84.9382 83.8475 85.9366 85.8372C86.935 87.827 88.7166 89.4266 90.723 90.3166C91.8754 90.8294 93.0728 91.0583 94.328 91.1196C95.0535 91.1551 95.779 91.139 96.5045 91.1422C97.153 91.1422 97.1819 91.1261 97.6377 91.2583C98.6971 91.5647 99.3102 90.0522 98.3792 89.4911L98.3022 89.4459L97.3295 91.1164C97.5382 91.2196 97.7308 91.3325 97.933 91.4518C98.864 92.0065 99.9073 90.6939 99.1015 89.9329L99.0085 89.8426L97.6473 91.2099C97.8688 91.4002 98.116 91.6098 97.7565 91.2422C97.8881 91.3744 98.1417 91.6098 98.238 91.7775C98.4274 92.1032 98.3857 92.516 98.3857 92.874C98.3857 93.5157 98.3953 94.1607 98.3953 94.8025V114.12C98.3953 116.209 98.3953 118.296 98.3953 120.386C98.3953 122.269 98.4563 124.023 99.4001 125.703C101.14 128.806 104.854 130.289 108.26 129.296C111.368 128.39 113.464 125.604 113.73 122.401C113.9 120.376 113.756 118.286 113.756 116.255V69.3902C113.756 67.0199 113.756 64.6496 113.756 62.2793C113.756 60.4121 113.445 58.3127 114.032 56.5293L112.173 56.0133C112.141 56.1133 112.109 56.2133 112.08 56.3132C111.721 57.5419 113.477 57.9418 113.939 56.8292C114.026 56.6228 114.138 56.4455 114.263 56.2552C114.873 55.3232 113.515 54.3235 112.751 55.0813L112.7 55.1329L114.061 56.5003L114.135 56.4164C114.356 56.1746 114.334 56.1552 114.077 56.3552C113.827 56.5003 113.795 56.5261 113.984 56.439C114.103 56.4003 114.205 56.3326 114.295 56.2391C114.459 56.1069 114.562 55.923 114.706 55.7811C114.292 56.1875 114.719 55.8327 114.812 55.7489L113.451 54.3815L113.4 54.4331C112.652 55.1974 113.628 56.568 114.568 55.9521C114.758 55.8295 114.937 55.7037 115.143 55.6231C116.276 55.1845 115.836 53.3786 114.629 53.7559C114.526 53.7881 114.427 53.8204 114.324 53.8526L114.838 55.7199C115.149 55.607 115.454 55.5135 115.778 55.4393C116.835 55.2071 116.607 53.4979 115.522 53.5398H115.396V55.478C115.534 55.4683 115.672 55.4457 115.814 55.4328C115.672 55.449 115.201 55.4232 115.788 55.449C116.067 55.4619 116.347 55.4619 116.626 55.4715C117.692 55.5167 117.965 53.7591 116.883 53.5721C116.69 53.5398 116.494 53.5205 116.298 53.5011V55.4361C116.603 55.4425 116.902 55.6167 117.184 55.7199L117.698 53.8526C117.599 53.8204 117.499 53.7881 117.4 53.7591C116.193 53.3979 115.743 55.2007 116.886 55.6263C117.165 55.7295 117.416 55.9198 117.656 56.094L118.629 54.4235L118.52 54.3525C117.618 53.7559 116.51 55.1587 117.351 55.8714C117.794 56.2455 118.058 57.0614 118.645 57.1969L118.07 56.7518C118.109 56.826 118.157 56.9615 118.209 57.055L119.871 56.0778L119.833 56.0101C119.297 55.0846 117.721 55.6941 118.074 56.7551C118.151 56.9873 118.212 57.213 118.266 57.4516C118.504 58.5126 120.192 58.2837 120.157 57.1936V57.0872H118.228L118.241 57.2517L120.131 56.9937C120.131 56.9743 120.125 56.955 120.122 56.9389C119.891 55.8811 118.173 56.1036 118.231 57.1969C118.241 57.3678 118.26 57.5355 118.282 57.7064C118.453 58.8609 120.083 58.4514 120.173 57.4484V57.4097H118.25C118.43 62.8147 118.26 68.2551 118.26 73.6632V94.6573C118.26 95.7699 118.141 96.8729 118.812 97.8274C120.119 99.6914 122.911 99.0722 124.857 99.1013C127.107 99.1367 129.287 98.8368 131.242 97.6436C133.133 96.4891 134.523 94.6219 135.245 92.5321C136.147 89.92 135.755 86.8757 135.755 84.1603C135.755 80.9934 135.749 77.8298 135.765 74.6629L134.802 75.6304H206.251C207.233 75.6304 208.183 75.6852 209.069 75.1822C209.866 74.7274 210.463 73.9406 210.694 73.0473C210.947 72.0572 210.793 70.8866 210.793 69.874V49.9344C210.793 46.4708 210.925 42.9589 210.658 39.5051C210.248 34.2356 208.903 29.1015 206.424 24.4254C205.84 23.3257 204.177 24.3029 204.761 25.4025C206.931 29.495 208.203 34.0098 208.655 38.6182C208.925 41.3819 208.867 44.1586 208.867 46.932V69.0839C208.867 70.1481 209.092 71.5025 208.835 72.5313C208.521 73.7987 207.288 73.6922 206.254 73.6922C191.763 73.6922 177.273 73.6922 162.785 73.6922C153.46 73.6922 144.134 73.6922 134.808 73.6922C134.285 73.6922 133.849 74.1341 133.845 74.6597C133.82 79.597 133.938 84.5408 133.836 89.4749C133.739 94.0317 130.118 97.1309 125.72 97.1728C124.683 97.1824 123.647 97.1534 122.61 97.1534C121.647 97.1534 120.363 97.3888 120.189 96.1247C120.048 95.0992 120.189 93.9511 120.189 92.9159V73.6568C120.189 68.2486 120.359 62.8082 120.18 57.4033C120.138 56.1423 118.366 56.1778 118.253 57.4033V57.442C118.879 57.3549 119.512 57.271 120.141 57.184H120.157C119.528 57.2743 118.896 57.3581 118.266 57.4452C118.27 57.4645 118.273 57.4807 118.276 57.5C118.459 58.5642 120.26 58.3288 120.167 57.242L120.154 57.0776C120.048 55.8553 118.189 55.8166 118.228 57.0776V57.184C118.86 57.0969 119.493 57.0131 120.122 56.926C120.067 56.6873 120.006 56.4616 119.929 56.2294L118.17 56.9744L118.209 57.0421C118.831 58.1192 120.465 57.1582 119.871 56.0649C119.727 55.7973 119.582 55.4135 119.139 55.3103L119.714 55.7553C119.464 55.2748 119.13 54.8395 118.716 54.488L117.547 56.0069L117.656 56.0778C118.703 56.7712 119.624 55.12 118.629 54.4073C118.234 54.1235 117.852 53.9139 117.4 53.7462L116.886 55.6134C116.985 55.6425 117.085 55.6747 117.184 55.707C118.379 56.0875 118.844 54.2654 117.698 53.8397C117.226 53.6656 116.812 53.4947 116.298 53.4882C115.037 53.4657 115.088 55.3039 116.298 55.4232C116.35 55.4296 116.61 55.4683 116.372 55.4232L116.629 53.5237C116.494 53.5173 116.356 53.5011 116.221 53.4979C116.164 53.4979 115.611 53.514 115.904 53.5108C116.122 53.5108 115.4 53.5302 115.403 53.5302C114.183 53.6237 114.151 55.5103 115.403 55.4651H115.528C115.441 54.8266 115.358 54.1945 115.271 53.5592C114.947 53.6301 114.645 53.7269 114.331 53.8397C113.178 54.2525 113.65 56.0875 114.844 55.707C114.944 55.6747 115.047 55.6425 115.149 55.6102L114.636 53.743C114.263 53.8881 113.936 54.0461 113.599 54.2654L114.767 55.7844L114.819 55.7328C115.695 54.8395 114.379 53.5398 113.457 54.3654C113.592 54.2461 112.831 55.1684 113.335 54.6169C113.188 54.7782 112.819 54.991 112.71 55.1168C111.891 56.0424 113.181 57.3678 114.071 56.4842L114.122 56.4326L112.61 55.2587C112.388 55.5941 112.244 55.9263 112.09 56.2939L113.949 56.8099C113.978 56.7099 114.01 56.6099 114.042 56.51C114.417 55.3167 112.571 54.8201 112.183 55.994C111.708 57.4387 111.84 58.9028 111.84 60.4121C111.84 62.3728 111.84 64.3336 111.84 66.2943V115.448C111.84 117.445 111.849 119.438 111.84 121.434C111.833 123.03 111.438 124.552 110.363 125.774C107.974 128.487 103.397 128.18 101.378 125.2C100.289 123.598 100.334 121.863 100.334 119.999V100.159C100.334 97.8532 100.357 95.5474 100.328 93.2416C100.318 92.4676 100.357 91.6743 99.994 90.9648C99.7725 90.5327 99.185 89.9683 99.0181 89.8264C98.0903 89.0234 96.7453 90.3295 97.657 91.1938L97.7501 91.2841L98.9186 89.7652C98.7163 89.6459 98.5269 89.5298 98.3151 89.4298C97.2108 88.8912 96.267 90.4488 97.3424 91.1003L97.4194 91.1454L98.161 89.3782C96.543 88.9073 94.7903 89.3556 93.1338 89.0492C91.3233 88.7139 89.6893 87.6625 88.524 86.2468C87.2977 84.7601 86.8387 82.9155 86.7937 81.0192C86.7423 78.8037 86.7905 76.585 86.7905 74.3695V62.776C86.7905 62.3212 86.6846 61.6924 86.935 61.2828C87.378 60.554 88.4213 60.654 88.7455 61.4183C88.9156 61.8182 88.8386 62.3374 88.8386 62.7631V78.5619C88.8386 80.3743 88.6685 82.1447 89.4164 83.8346L91.0793 82.8574C91.0279 82.7704 90.9798 82.6833 90.9348 82.593C90.3442 81.4868 88.7327 82.4608 89.272 83.5701C89.5031 84.0442 89.7663 84.4763 90.0553 84.9181C90.7358 85.9469 92.3923 84.9988 91.7181 83.941C91.6636 83.8571 91.609 83.7733 91.5576 83.6862L89.8948 84.6634C90.2607 85.1503 90.6427 85.5599 91.105 85.9598C92.0359 86.7596 93.3874 85.4438 92.4661 84.5924C92.3891 84.5215 92.3152 84.4538 92.2382 84.3828L90.8771 85.7502C91.4003 86.2049 91.9653 86.5757 92.6202 86.8047C93.8047 87.2175 94.2702 85.3793 93.1338 84.9375C93.0889 84.9181 92.8513 84.8149 93.0696 84.9149L92.3281 86.6822C93.8047 87.1852 95.1819 87.124 96.726 87.1369C98.4178 87.153 100.007 87.6851 101.127 89.0138C102.427 90.5553 102.386 92.387 102.382 94.3026C102.382 96.2376 102.382 98.1757 102.382 100.111V120.979C102.382 121.205 102.414 121.776 102.414 121.853C102.414 121.898 102.44 122.795 102.408 122.421C102.508 123.646 104.389 123.678 104.334 122.421V122.321C103.699 122.408 103.069 122.491 102.437 122.579C102.466 122.73 102.504 122.878 102.549 123.027C102.575 122.488 102.565 122.424 102.524 122.83C102.552 122.924 102.671 123.375 102.681 123.398C103.082 124.562 104.896 124.091 104.54 122.882L104.507 122.772L102.748 123.517C102.841 123.694 102.938 123.869 103.047 124.036L104.559 122.862L104.511 122.814C103.618 121.94 102.315 123.265 103.15 124.181C102.906 123.914 103.32 124.372 103.371 124.426C103.535 124.604 103.708 124.768 103.904 124.91C104.055 125.02 104.212 125.113 104.376 125.2C104.443 125.236 105.005 125.523 104.678 125.355C105.776 125.916 106.735 124.304 105.65 123.685L105.573 123.64L104.832 125.407C105.352 125.578 105.885 125.662 106.43 125.613L106.174 123.714L106.016 123.746C104.793 123.988 105.32 125.82 106.53 125.613C106.649 125.594 106.774 125.574 106.893 125.545C108.125 125.246 107.573 123.501 106.379 123.678L106.305 123.688L106.819 125.555C107.076 125.494 107.326 125.42 107.573 125.326C108.716 124.9 108.273 123.111 107.06 123.459L106.97 123.485L107.711 125.252C108.889 124.62 109.525 123.63 109.785 122.337C110.026 121.127 108.218 120.602 107.926 121.821C107.901 121.927 107.875 122.034 107.849 122.14L109.708 122.656C109.939 121.253 109.801 119.766 109.801 118.347V62.0858C109.801 58.761 109.287 55.12 112.173 52.7884C114.88 50.5987 119.062 51.1792 121.066 54.0397C122.173 55.6199 122.241 57.3065 122.241 59.177V94.1123C122.241 94.6348 122.68 95.0798 123.204 95.0798C124.902 95.0798 126.786 95.3249 128.388 94.6445C129.778 94.0543 130.879 92.8998 131.431 91.4905C132.067 89.8684 131.797 87.9367 131.797 86.2404V73.502C131.797 72.886 131.585 72.1991 131.82 71.6025C132.112 70.8543 132.741 70.7802 133.46 70.7737C136.917 70.7286 140.381 70.7737 143.839 70.7737H205.025C205.545 70.7737 205.988 70.3319 205.988 69.8062C205.988 63.0501 205.988 56.2939 205.988 49.5377C205.988 45.7775 206.135 41.985 205.696 38.2441C205.256 34.5032 204.296 30.8172 202.582 27.4375C199.632 21.623 194.415 16.4631 187.725 15.6085C183.703 15.0925 179.513 15.486 175.469 15.486H60.6243C52.4705 15.486 44.307 15.3699 36.1531 15.486C29.5145 15.5827 24.07 19.8589 20.6383 25.3155C18.6288 28.5081 17.3318 32.1329 16.6705 35.8448C16.0093 39.5567 16.0478 43.2814 16.0478 47.032C16.0478 53.6237 16.0478 60.2122 16.0478 66.8039C16.0478 75.3821 16.051 83.9604 16.0478 92.5386C16.0478 96.6826 16.0349 100.827 16.0414 104.971C16.0478 108.595 16.2019 112.14 17.136 115.661C18.8085 121.959 22.68 128.125 28.7216 130.95C31.813 132.395 34.9622 132.337 38.2943 132.337H76.1905C80.4055 132.337 84.6204 132.344 88.8354 132.337C92.296 132.331 95.9588 131.924 99.1818 133.44C104.848 136.104 108.029 142.55 108.43 148.604C108.658 152.057 107.93 155.814 105.294 158.249C104.106 159.349 102.658 159.975 101.127 160.429C99.0887 161.036 97.047 161.629 95.0086 162.232C93.0921 162.796 91.1756 163.361 89.2623 163.925C87.3491 164.489 85.4551 165.192 83.5258 165.621L84.7103 166.811L84.7264 166.76C84.9703 165.95 84.0233 165.238 83.3107 165.667C83.0763 165.808 82.9222 166.034 82.8484 166.295L83.5225 165.618H83.5033C83.1983 165.686 82.8901 165.989 82.8291 166.299L82.8131 166.386L84.6718 166.902L84.6782 166.856L82.7874 166.598V166.64C82.7393 167.821 84.293 167.83 84.6782 166.898L84.6975 166.856L82.8388 166.34C82.8099 166.45 82.7906 166.56 82.7842 166.673C82.9255 166.247 82.9287 166.208 82.7938 166.553C82.8035 166.837 82.7682 167.037 82.8452 167.327C82.9543 167.73 83.3524 168.046 83.7729 168.037C91.8883 167.853 100.029 168.043 108.148 168.043H114.18C115.056 168.043 116.048 167.917 116.915 168.05C117.284 168.108 117.599 168.263 117.814 168.582C118.205 169.162 118.167 170.091 117.66 170.594C117.342 170.91 116.944 170.942 116.517 170.946C115.499 170.959 114.478 170.946 113.461 170.946C105.345 170.946 97.23 170.888 89.1147 170.978C87.1629 171 85.102 171.168 83.163 170.933C81.9463 170.784 80.964 170.046 80.4055 168.962C79.8469 167.879 79.7634 166.692 80.0588 165.579C80.4343 164.16 81.407 163.319 82.7521 162.838C86.829 161.381 91.105 160.355 95.2558 159.133C97.2782 158.536 99.307 157.953 101.326 157.346C102.424 157.014 103.275 156.256 103.914 155.495L102.27 154.811V154.824C102.187 155.856 103.573 156.037 104.064 155.311C105.711 152.883 105.795 149.874 105.32 147.059C104.864 144.353 103.869 141.715 102.187 139.535C100.402 137.22 97.994 135.594 95.0471 135.288C93.2975 135.104 91.4838 135.223 89.7246 135.22C87.9654 135.217 86.1998 135.22 84.4407 135.22C70.043 135.243 55.6421 135.236 41.2445 135.24C38.0215 135.24 34.6668 135.523 31.4952 134.849C28.7023 134.256 26.0828 133.037 23.7939 131.328C19.0686 127.796 15.9675 122.317 14.4138 116.69C12.6578 110.314 13.149 103.623 13.149 97.0825C13.149 89.8748 13.149 82.6672 13.149 75.4595C13.149 69.9191 13.149 64.382 13.149 58.8416V49.3055C13.149 45.8517 13.0302 42.372 13.332 38.9278C14.3111 27.7051 21.1552 14.7991 33.2608 12.8609C36.7791 12.2965 40.4772 12.5868 44.0309 12.5868H54.7112C61.9116 12.5868 69.1088 12.5868 76.3093 12.5868C90.6491 12.5868 104.992 12.5868 119.332 12.5868C133.672 12.5868 148.237 12.5868 162.689 12.5868C169.902 12.5868 177.115 12.561 184.329 12.5868C187.446 12.5997 190.463 12.9286 193.33 14.2283C195.818 15.357 198.049 16.9856 199.975 18.9237C201.901 20.8619 203.445 23.0226 204.733 25.3897C205.326 26.4829 206.989 25.509 206.395 24.4125L206.405 24.4383Z" fill="#656D4A"/>
<path d="M82.8546 167.427C82.8546 167.427 82.861 167.447 82.8642 167.456C82.8674 167.466 82.8739 167.476 82.8739 167.489L82.8385 167.231C82.8385 167.231 82.8385 167.231 82.8385 167.234L82.8739 166.976L82.9702 166.744C83.0215 166.679 83.0697 166.615 83.121 166.547C83.1852 166.495 83.2495 166.447 83.3169 166.395C83.3939 166.363 83.471 166.331 83.548 166.299C83.6347 166.286 83.7181 166.276 83.8048 166.263C83.8915 166.276 83.9749 166.286 84.0616 166.299C84.1387 166.331 84.2157 166.363 84.2928 166.395C84.357 166.447 84.4212 166.495 84.4886 166.547L84.6395 166.744L84.7358 166.976C84.7358 166.976 84.7293 166.96 84.7293 166.953C84.7261 166.94 84.7229 166.927 84.7197 166.911C84.6908 166.786 84.633 166.676 84.5464 166.582C84.4789 166.476 84.3891 166.395 84.2767 166.334C84.1676 166.263 84.0456 166.224 83.9172 166.218C83.7888 166.189 83.6604 166.195 83.5319 166.234L83.3008 166.331C83.1564 166.418 83.0408 166.534 82.9541 166.679L82.8578 166.911C82.8129 167.082 82.8129 167.253 82.8578 167.427C82.861 167.44 82.8642 167.453 82.8674 167.469C82.8674 167.476 82.8707 167.485 82.8739 167.492C82.906 167.569 82.9349 167.65 82.9734 167.724L83.1243 167.921C83.1852 167.976 83.2494 168.027 83.3201 168.072C83.3554 168.095 83.3939 168.111 83.4356 168.121C83.5737 168.179 83.625 168.211 83.808 168.204L84.0648 168.169C84.2061 168.137 84.3923 168.027 84.4886 167.921L84.6395 167.724L84.7358 167.492L84.7711 167.234C84.7679 167.192 84.755 167.121 84.755 167.105C84.7486 167.066 84.7454 167.018 84.739 166.973C84.739 166.966 84.7358 166.96 84.7326 166.953C84.7293 166.94 84.7229 166.927 84.7197 166.915C84.6908 166.789 84.633 166.679 84.5464 166.586C84.4789 166.479 84.3891 166.399 84.2767 166.337C84.1676 166.266 84.0456 166.228 83.9172 166.221C83.7888 166.192 83.6604 166.199 83.5319 166.237L83.3008 166.334C83.1564 166.421 83.0408 166.537 82.9541 166.682L82.8578 166.915C82.8129 167.085 82.8129 167.256 82.8578 167.43L82.8546 167.427Z" fill="#656D4A"/>
<path d="M84.6653 166.892L82.9061 166.147C82.8997 166.176 82.8901 166.202 82.8837 166.231L83.1309 165.805C83.1309 165.805 83.1309 165.805 83.1277 165.808L84.7359 166.75C84.7456 166.721 84.7552 166.692 84.7616 166.666C84.8034 166.537 84.8066 166.408 84.7777 166.279C84.7713 166.15 84.7327 166.031 84.6621 165.918C84.6011 165.805 84.5177 165.715 84.4149 165.647C84.3218 165.56 84.2127 165.505 84.0875 165.473L83.8307 165.437C83.6573 165.437 83.4936 165.483 83.3459 165.57L83.1501 165.721C83.0313 165.841 82.9479 165.986 82.9029 166.147C82.8933 166.176 82.8869 166.205 82.8773 166.231L82.8419 166.489C82.8355 166.621 82.8644 166.747 82.9254 166.863C82.9479 166.943 82.9896 167.014 83.0506 167.076C83.118 167.182 83.2079 167.263 83.3203 167.324L83.5514 167.421L83.8082 167.456C83.9398 167.463 84.065 167.434 84.1806 167.372C84.2994 167.334 84.4021 167.266 84.492 167.172C84.6108 167.072 84.7038 166.882 84.7456 166.74C84.7456 166.737 84.7456 166.734 84.7456 166.731C84.7456 166.724 84.7488 166.714 84.752 166.708C84.7552 166.692 84.7616 166.676 84.7648 166.66C84.8066 166.531 84.8098 166.402 84.7809 166.273C84.7745 166.144 84.7359 166.024 84.6653 165.911L84.5144 165.715C84.4278 165.621 84.325 165.553 84.2031 165.515C84.1292 165.47 84.0458 165.45 83.9591 165.45C83.8307 165.421 83.7023 165.428 83.5739 165.466L83.3427 165.563C83.1983 165.65 83.0827 165.766 82.996 165.911C82.9254 166.021 82.8869 166.144 82.8805 166.273C82.8516 166.402 82.858 166.531 82.8965 166.66C82.9254 166.785 82.9832 166.895 83.0699 166.989C83.1373 167.095 83.2272 167.176 83.3395 167.237L83.5706 167.334C83.7408 167.379 83.9109 167.379 84.0843 167.334L84.3154 167.237C84.4599 167.15 84.5754 167.034 84.6621 166.889L84.6653 166.892Z" fill="#656D4A"/>
<path d="M83.7728 166.134H83.7664L84.6942 166.843C84.6813 166.792 84.6717 166.737 84.6621 166.685L82.8034 167.201C82.8162 167.253 82.829 167.308 82.8419 167.359C82.8708 167.485 82.9286 167.595 83.0152 167.688C83.0826 167.795 83.1725 167.875 83.2849 167.937C83.394 168.008 83.516 168.046 83.6444 168.053C83.7728 168.082 83.9012 168.075 84.0297 168.037L84.2608 167.94C84.4052 167.853 84.5208 167.737 84.6075 167.592L84.7038 167.359C84.7487 167.189 84.7487 167.018 84.7038 166.843C84.6909 166.789 84.6781 166.737 84.6653 166.685C84.6364 166.56 84.5786 166.45 84.4919 166.357C84.4245 166.25 84.3346 166.169 84.2223 166.108C84.1131 166.037 83.9911 165.999 83.8627 165.992C83.7343 165.963 83.6059 165.97 83.4775 166.008L83.2464 166.105C83.1019 166.192 82.9863 166.308 82.8997 166.453L82.8034 166.685C82.7584 166.856 82.7584 167.027 82.8034 167.201C82.813 167.256 82.8226 167.308 82.8355 167.359L82.9318 167.592C82.9928 167.705 83.0762 167.795 83.1789 167.863C83.2399 167.924 83.3106 167.963 83.3908 167.988C83.5064 168.05 83.6284 168.075 83.7632 168.072H83.7696C83.9012 168.079 84.0264 168.05 84.142 167.988C84.2608 167.95 84.3635 167.882 84.4534 167.788C84.5465 167.701 84.6139 167.598 84.6524 167.476C84.7134 167.359 84.7391 167.237 84.7359 167.101L84.7006 166.843C84.6556 166.679 84.5722 166.537 84.4534 166.418L84.2576 166.266C84.1067 166.179 83.9462 166.134 83.7728 166.134Z" fill="#656D4A"/>
<path d="M84.7231 166.789L84.28 167.366C84.28 167.366 84.2833 167.366 84.2865 167.363L82.8708 166.269C82.8708 166.269 82.8708 166.269 82.8708 166.273L83.5449 165.595C83.4647 165.621 83.3876 165.663 83.3106 165.695L83.5417 165.599C83.4165 165.628 83.3074 165.686 83.2143 165.773C83.1083 165.841 83.0281 165.931 82.9671 166.044C82.8965 166.153 82.8579 166.276 82.8515 166.405C82.8226 166.534 82.829 166.663 82.8676 166.792L82.9639 167.024C83.0505 167.169 83.1661 167.285 83.3106 167.372L83.5417 167.469C83.7118 167.514 83.882 167.514 84.0553 167.469C84.1324 167.437 84.2094 167.405 84.2865 167.369L84.0553 167.466C84.0938 167.453 84.1324 167.437 84.1709 167.418C84.2897 167.379 84.3924 167.311 84.4823 167.218L84.6332 167.021C84.6749 166.947 84.707 166.869 84.7295 166.789L84.7648 166.531L84.7295 166.273L84.6332 166.04C84.5722 165.928 84.4887 165.837 84.386 165.77C84.325 165.708 84.2544 165.67 84.1741 165.644C84.1003 165.599 84.0168 165.579 83.9301 165.579C83.8435 165.557 83.76 165.557 83.6733 165.579C83.5449 165.586 83.4261 165.624 83.3138 165.695C83.3138 165.695 83.3106 165.695 83.3074 165.699L83.1115 165.85C82.9928 165.97 82.9093 166.115 82.8644 166.276C82.8226 166.405 82.8194 166.534 82.8483 166.663C82.8547 166.792 82.8932 166.911 82.9639 167.024C83.0249 167.137 83.1083 167.227 83.211 167.295C83.3041 167.382 83.4133 167.437 83.5385 167.469L83.7953 167.505C83.9687 167.505 84.1324 167.459 84.28 167.372L84.4759 167.221C84.5946 167.101 84.6781 166.956 84.7231 166.795V166.789Z" fill="#656D4A"/>
<path d="M98.3343 92.0129C98.3504 92.042 98.3664 92.071 98.3792 92.1032L98.2829 91.871C98.299 91.9065 98.3118 91.942 98.3151 91.9807L98.2797 91.7227C98.2797 91.7227 98.2797 91.7259 98.2797 91.7291L99.9233 91.0455C99.9747 91.11 100.023 91.1745 100.074 91.2422C100.106 91.3196 100.138 91.397 100.171 91.4744C100.142 91.4066 100.119 91.3357 100.093 91.268C100.065 91.1422 100.007 91.0326 99.9201 90.939C99.8527 90.8326 99.7628 90.752 99.6505 90.6907C99.5413 90.6198 99.4193 90.5811 99.2909 90.5746C99.1625 90.5456 99.0341 90.552 98.9057 90.5907L98.6746 90.6875C98.5301 90.7746 98.4146 90.8907 98.3279 91.0358L98.2316 91.268C98.1866 91.4389 98.1866 91.6098 98.2316 91.784C98.2508 91.8291 98.2669 91.8775 98.2829 91.9226C98.2894 91.9388 98.2958 91.9549 98.3022 91.971C98.3022 91.9742 98.3054 91.9807 98.3086 91.9839C98.3247 92.0226 98.3728 92.1355 98.3568 92.1C98.4338 92.287 98.3857 92.1935 98.5558 92.4128L98.7516 92.5644L98.9828 92.6611L99.2396 92.6966C99.3712 92.7031 99.4964 92.674 99.612 92.6128C99.6922 92.5902 99.7628 92.5483 99.8238 92.487C99.8977 92.4451 99.9522 92.387 99.9972 92.3128C100.058 92.2516 100.097 92.1806 100.122 92.1C100.183 91.9839 100.209 91.8614 100.206 91.7259C100.196 91.6324 100.187 91.5389 100.167 91.4453C100.167 91.4357 100.164 91.4292 100.161 91.4195C100.158 91.4034 100.151 91.3841 100.145 91.368C100.11 91.2744 100.071 91.1777 100.026 91.0874C100.016 91.068 100.007 91.0487 99.9972 91.0293C99.9362 90.9165 99.8527 90.8262 99.75 90.7584C99.6569 90.6714 99.5478 90.6166 99.4226 90.5843C99.2941 90.5424 99.1657 90.5391 99.0373 90.5682C98.9089 90.5746 98.7902 90.6133 98.6778 90.6843L98.482 90.8358C98.3632 90.9552 98.2797 91.1003 98.2348 91.2615L98.1995 91.5195C98.1995 91.6937 98.2444 91.8581 98.3311 92.0065L98.3343 92.0129Z" fill="#656D4A"/>
<path d="M98.36 92.1194C98.3664 92.1872 98.3761 92.2549 98.3729 92.3226L100.264 92.0646C100.289 92.2807 100.296 92.3 100.286 92.1194C100.264 91.597 99.8592 91.152 99.3231 91.152C98.8191 91.152 98.3375 91.5938 98.36 92.1194C98.3664 92.2775 98.3793 92.4226 98.4082 92.5806C98.4948 93.0482 99.0277 93.3385 99.4643 93.274C99.9523 93.1998 100.27 92.816 100.299 92.3226C100.302 92.2549 100.293 92.1872 100.286 92.1194C100.225 91.6002 99.8881 91.152 99.3231 91.152C98.848 91.152 98.299 91.597 98.36 92.1194Z" fill="#656D4A"/>
<path d="M129.062 91.813L129.258 91.6614L129.489 91.5647C129.576 91.5518 129.659 91.5421 129.746 91.5292C129.906 91.5743 130.07 91.6163 130.231 91.6614C130.378 91.8549 130.526 92.0484 130.674 92.2387C130.686 92.3257 130.696 92.4096 130.709 92.4967C130.696 92.5837 130.686 92.6676 130.674 92.7547L130.577 92.9868C130.577 92.9868 130.581 92.9804 130.584 92.9772L130.433 93.1739C130.452 93.1481 130.471 93.1255 130.494 93.0997L128.982 91.9259C128.982 91.9259 128.963 91.9549 128.95 91.971L129.101 91.7743C129.101 91.7743 129.081 91.8001 129.069 91.8098C128.975 91.8968 128.908 92 128.87 92.1226C128.809 92.2387 128.783 92.3612 128.786 92.4967C128.78 92.6289 128.809 92.7547 128.87 92.8708C128.908 92.9901 128.975 93.0933 129.069 93.1836L129.264 93.3351C129.415 93.4222 129.576 93.4674 129.749 93.4674L130.006 93.4319C130.17 93.3867 130.311 93.3029 130.43 93.1836C130.436 93.1771 130.439 93.1739 130.446 93.1674C130.446 93.1642 130.452 93.161 130.455 93.1578C130.484 93.1223 130.513 93.0836 130.539 93.0513C130.574 93.003 130.613 92.9578 130.645 92.9095C130.715 92.7998 130.754 92.6773 130.76 92.5483C130.789 92.4193 130.783 92.2903 130.744 92.1613L130.648 91.9291C130.587 91.8162 130.503 91.7259 130.401 91.6582C130.34 91.5969 130.269 91.5582 130.189 91.5324C130.073 91.4711 129.951 91.4453 129.817 91.4486L129.56 91.484C129.396 91.5292 129.255 91.613 129.136 91.7324C129.12 91.7517 129.107 91.7711 129.091 91.7872C129.088 91.7936 129.081 91.8001 129.078 91.8065C129.049 91.842 128.972 91.9387 128.924 92.0065L128.828 92.2387L128.792 92.4967L128.828 92.7547L128.924 92.9868L129.075 93.1836L129.271 93.3351L129.502 93.4319L129.759 93.4674L130.016 93.4319L130.247 93.3351C130.317 93.2964 130.381 93.2384 130.442 93.1836C130.536 93.0965 130.603 92.9933 130.642 92.8708C130.703 92.7547 130.728 92.6321 130.725 92.4967C130.731 92.3644 130.703 92.2387 130.642 92.1226C130.603 92.0033 130.536 91.9001 130.442 91.8098L130.247 91.6582C130.096 91.5711 129.935 91.526 129.762 91.526L129.505 91.5614C129.341 91.6066 129.2 91.6904 129.081 91.8098L129.062 91.813Z" fill="#656D4A"/>
</svg>
