<svg width="42" height="43" viewBox="0 0 42 43" fill="none" xmlns="http://www.w3.org/2000/svg">
<path d="M37.5 0H4.5C3.30653 0 2.16193 0.485394 1.31802 1.3494C0.474106 2.21341 0 3.38525 0 4.60714L0 38.3929C0 39.6147 0.474106 40.7866 1.31802 41.6506C2.16193 42.5146 3.30653 43 4.5 43H17.3672V28.381H11.4609V21.5H17.3672V16.2555C17.3672 10.2902 20.8359 6.99518 26.1488 6.99518C28.6931 6.99518 31.3538 7.45973 31.3538 7.45973V13.3146H28.4222C25.5338 13.3146 24.6328 15.1498 24.6328 17.032V21.5H31.0809L30.0497 28.381H24.6328V43H37.5C38.6935 43 39.8381 42.5146 40.682 41.6506C41.5259 40.7866 42 39.6147 42 38.3929V4.60714C42 3.38525 41.5259 2.21341 40.682 1.3494C39.8381 0.485394 38.6935 0 37.5 0Z" fill="#7C845E"/>
</svg>
