<svg width="270" height="325" viewBox="0 0 270 325" fill="none" xmlns="http://www.w3.org/2000/svg">
<g clip-path="url(#clip0_17_121)">
<path d="M77.4942 19.5336C76.1055 18.6045 77.0215 19.1248 77.4942 19.5336V19.5336Z" fill="#656D4A"/>
<path d="M32.3391 307.652C32.3834 307.629 32.4278 307.615 32.4721 307.592C32.5164 307.57 32.5533 307.548 32.5977 307.525C31.5783 307.823 31.4897 307.904 31.7186 307.86C31.8811 307.808 32.051 307.763 32.2209 307.704C32.2653 307.689 32.3022 307.674 32.3465 307.652H32.3391Z" fill="#656D4A"/>
<path d="M23.7114 307.748C22.9136 307.295 22.7068 307.221 22.7807 307.287C23.054 307.421 23.3273 307.57 23.6006 307.711C23.6375 307.726 23.6745 307.733 23.7114 307.748Z" fill="#656D4A"/>
<path d="M29.835 308.365C29.702 308.388 29.5248 308.425 29.281 308.469C29.3549 308.462 29.4361 308.454 29.5174 308.44C29.6208 308.417 29.7242 308.388 29.8276 308.365H29.835Z" fill="#656D4A"/>
<path d="M58.5103 21.8076C58.4808 21.8522 58.4512 21.8894 58.4291 21.934C58.9609 21.3988 59.1456 21.1387 59.1604 21.0718C59.1087 21.1312 59.0422 21.1833 58.9905 21.2427C58.828 21.4211 58.6728 21.6218 58.5103 21.8151V21.8076Z" fill="#656D4A"/>
<path d="M81.0177 23.9858C81.0399 24.0973 81.1728 24.4021 81.5126 24.9893C81.5126 24.9744 81.4978 24.9521 81.4905 24.9372C81.3279 24.6251 81.1728 24.3055 81.0177 23.9858Z" fill="#656D4A"/>
<path d="M67.0789 16.7164C67.7437 16.6866 68.0318 16.642 68.0983 16.6123C67.8102 16.6272 67.5147 16.6569 67.2267 16.6792C67.1749 16.6866 67.1306 16.7015 67.0789 16.7089V16.7164Z" fill="#656D4A"/>
<path d="M60.4013 19.816C60.3496 19.868 60.2979 19.92 60.2462 19.9721C60.2536 20.0167 60.49 19.8531 61.0957 19.2437C61.0588 19.266 61.0218 19.2957 60.9775 19.318C60.7855 19.4815 60.5786 19.645 60.394 19.816H60.4013Z" fill="#656D4A"/>
<path d="M19.4197 304.701C19.5083 304.746 19.3754 304.545 18.6958 303.876C18.718 303.906 18.7327 303.935 18.7549 303.965C18.9765 304.21 19.2055 304.448 19.4197 304.701Z" fill="#656D4A"/>
<path d="M16.561 298.651C16.5684 298.688 16.5758 298.725 16.5832 298.762C16.5537 298.175 16.5315 297.863 16.5093 297.736C16.5093 297.937 16.5093 298.138 16.5241 298.331C16.5241 298.435 16.5389 298.539 16.5537 298.643L16.561 298.651Z" fill="#656D4A"/>
<path d="M17.4548 301.713C17.2628 301.096 17.152 300.821 17.1003 300.762C17.1889 301.037 17.2923 301.312 17.3884 301.587C17.4105 301.631 17.4327 301.669 17.4548 301.713Z" fill="#656D4A"/>
<path d="M-0.000462336 275.319V292.192C-0.000462336 296.778 -0.14081 301.401 1.40302 305.816C3.91451 313.011 9.06306 319.307 16.0805 322.428C23.9178 325.914 32.2648 325.862 40.0652 322.265C49.8305 317.761 55.7472 307.303 55.7768 296.689C55.7916 290.861 55.7768 285.034 55.7768 279.199V49.0196C55.7768 42.8801 55.7768 36.7331 55.7768 30.5936C55.7768 30.4301 55.7768 30.2592 55.7768 30.0956C55.7768 30.0659 55.7768 30.0436 55.7768 30.0139C55.7768 29.724 55.7768 29.4341 55.7916 29.1442C55.8063 28.8098 55.8359 28.4753 55.858 28.1408C55.8654 28.0888 55.8728 28.0516 55.8876 27.9922C56.1535 26.6245 56.641 25.3684 57.0621 24.0453C56.22 26.7063 56.966 24.3724 57.3649 23.644C57.6899 23.0568 58.0593 22.4919 58.4286 21.9418C58.3621 22.0087 58.2883 22.0831 58.207 22.1574C58.3178 22.0533 58.4138 21.9344 58.5099 21.8155C58.5985 21.6891 58.6798 21.5628 58.761 21.4364C58.9531 21.1614 59.1673 20.9904 59.1525 21.0796C59.4997 20.7006 59.8616 20.3363 60.2384 19.987C60.231 19.9424 60.4526 19.6823 60.7481 19.489C60.8219 19.437 60.9032 19.3849 60.977 19.3404C61.0878 19.2437 61.206 19.1545 61.3021 19.0505C61.2282 19.1322 61.1543 19.1991 61.0878 19.266C61.7009 18.8572 62.3067 18.4558 62.9493 18.0991C63.6437 17.72 65.7858 17.0585 63.1709 17.891C63.8209 17.6828 64.4414 17.4078 65.0915 17.2071C65.7415 17.0064 66.4063 16.8652 67.0711 16.724C66.916 16.724 66.7535 16.7389 66.554 16.7463C66.7756 16.7463 66.9972 16.7166 67.2188 16.6943C67.3149 16.672 67.4109 16.6497 67.5069 16.6348C67.8467 16.5605 68.1939 16.5828 68.0979 16.6274C68.1496 16.6274 68.2013 16.6199 68.2456 16.6125C68.8144 16.5902 69.3905 16.5902 69.9593 16.6125C70.3877 16.6274 70.8088 16.672 71.2298 16.7017C72.5816 16.7835 70.2843 16.5679 70.2843 16.5679C71.6952 16.3524 73.7192 17.4747 75.0266 17.891C72.4339 17.0585 74.5613 17.7274 75.2482 18.0991C75.8392 18.4187 76.4079 18.768 76.9619 19.1471C77.2943 19.3701 77.6046 19.6302 77.937 19.8458C77.7597 19.7269 77.612 19.6302 77.479 19.541C77.4864 19.541 77.4938 19.5559 77.5012 19.5633C78.0995 20.0911 78.6683 20.656 79.2075 21.2506C79.3626 21.4215 79.5104 21.6074 79.6655 21.7857C80.0053 22.2837 80.3303 22.7743 80.6331 23.2946C80.7661 23.525 80.8843 23.7554 80.9951 23.9933C80.9582 23.8223 81.1576 24.0751 81.2832 24.4244C81.3423 24.6028 81.4088 24.7737 81.4678 24.9447C81.5269 25.0562 81.586 25.1677 81.6451 25.2717C81.586 25.1751 81.5343 25.0785 81.4826 24.9967C81.5934 25.3238 81.7116 25.6434 81.8076 25.9779C81.9923 26.6096 82.1548 27.2489 82.2804 27.8955C82.2804 27.7617 82.273 27.6131 82.2656 27.4496C82.2656 27.6725 82.2952 27.903 82.3247 28.1259C82.3247 28.0813 82.3099 28.0367 82.3026 27.9922C82.3026 27.9624 82.2878 27.9253 82.2804 27.8955C82.3247 29.055 82.369 29.0922 82.369 28.7875C82.3912 29.2111 82.406 29.6348 82.4134 30.0659C82.4134 30.2815 82.4134 30.497 82.4134 30.7126V189.812C82.4134 194.294 86.188 198.107 90.657 198.107H102.262C106.479 198.107 110.845 198.397 115.041 197.869C124.2 196.717 132.894 192.562 138.752 185.196C144.026 178.559 147.018 170.71 147.062 162.155C147.092 156.617 147.069 151.087 147.062 145.55C147.092 145.297 147.114 145.044 147.114 144.784C147.114 142.019 147.062 139.195 147.062 136.437V116.792C147.062 113.128 147.069 109.471 147.077 105.806C147.099 101.726 147.121 97.6451 147.092 93.5645C147.092 93.3043 147.092 93.0442 147.092 92.784C147.092 85.9161 147.114 78.8995 147.114 72.039C147.114 71.2289 147.114 70.2329 147.114 69.4227H235.289C242.255 69.4227 179.785 69.4227 186.751 69.4227H217.184C219.194 69.4227 221.195 69.445 223.205 69.4227C223.293 69.4227 223.374 69.4227 223.463 69.4227C225.45 69.4227 227.541 68.553 228.944 67.1334C230.288 65.7806 231.3 63.5582 231.219 61.6182C231.034 57.3889 227.814 53.8138 223.463 53.8138H191.442C184.683 53.8138 247.367 53.8138 240.608 53.8138H144.669C142.66 53.8138 140.658 53.7915 138.649 53.8138C138.56 53.8138 138.479 53.8138 138.39 53.8138C134.194 53.8138 130.634 57.3889 130.634 61.6182V88.919C130.597 89.246 130.567 89.5805 130.567 89.9224V160.958C130.567 161.389 130.567 161.82 130.567 162.251C130.567 162.972 130.538 163.693 130.486 164.407C130.486 164.474 130.464 164.615 130.449 164.771C130.405 165.053 130.346 165.403 130.316 165.551C130.139 166.436 129.917 167.305 129.652 168.168C129.511 168.629 129.356 169.082 129.194 169.535C129.194 169.535 129.194 169.55 129.186 169.558C128.411 171.081 127.65 172.575 126.66 173.988C126.46 174.225 126.261 174.471 126.054 174.701C125.434 175.407 124.776 176.076 124.089 176.708C123.794 176.983 123.484 177.243 123.181 177.503C122.494 177.979 121.807 178.455 121.083 178.878C120.366 179.302 119.62 179.674 118.874 180.045C118.483 180.187 118.091 180.335 117.692 180.469C116.843 180.744 115.979 180.982 115.107 181.175C114.723 181.257 114.331 181.324 113.947 181.398C113.002 181.487 112.049 181.51 111.103 181.517C109.368 181.517 107.639 181.517 105.903 181.517H98.9006V33.76C98.9006 29.4415 98.8932 25.1528 97.5192 20.9681C95.1112 13.6468 90.0512 7.15796 83.189 3.56048C76.3488 -0.037008 68.1939 -1.06274 60.7185 1.19684C48.0576 5.02474 39.3708 16.8429 39.2822 30.1105C39.2748 31.664 39.2822 33.2174 39.2822 34.7783V295.945C39.2822 296.309 39.2822 296.681 39.2822 297.045C39.2822 297.194 39.2822 297.32 39.2822 297.484C39.26 298.331 38.706 300.568 39.3635 297.803C39.2009 298.472 39.1271 299.164 38.9498 299.833C38.8464 300.227 38.7356 300.62 38.6026 301.014C38.5657 301.118 38.4697 301.386 38.3736 301.639C38.3736 301.639 38.3736 301.654 38.3662 301.654C38.189 302.01 37.9969 302.367 37.7975 302.717C37.5242 303.2 37.2139 303.653 36.9111 304.114C36.7707 304.27 36.6377 304.426 36.4974 304.582C35.9656 305.162 35.3672 305.653 34.8058 306.195C34.6064 306.336 34.4143 306.47 34.2075 306.604C33.6831 306.938 33.1438 307.243 32.5972 307.526C32.708 307.496 32.8336 307.459 32.9739 307.414C32.7671 307.474 32.5529 307.57 32.3461 307.652C32.1097 307.756 31.8585 307.83 31.7182 307.86C31.1051 308.061 30.4772 308.232 29.842 308.365C30.4624 308.254 30.0118 308.365 29.5317 308.44C29.5095 308.44 29.48 308.455 29.4578 308.455C29.1845 308.507 28.9112 308.544 28.6379 308.596C28.8965 308.544 29.1033 308.507 29.2879 308.47C29.2436 308.47 29.2067 308.477 29.1624 308.477C28.5936 308.514 28.0248 308.522 27.4634 308.514C27.1236 308.514 26.7838 308.484 26.4441 308.462C25.7349 308.321 25.0332 308.172 24.3388 307.957C24.132 307.89 23.9178 307.823 23.711 307.749C23.8144 307.808 23.9178 307.867 24.036 307.934C23.8956 307.853 23.7479 307.786 23.6002 307.711C23.5854 307.711 23.578 307.704 23.5632 307.697C23.2234 307.578 22.8541 307.355 22.7802 307.288C22.603 307.199 22.4257 307.117 22.2484 307.013C21.7535 306.723 21.2955 306.396 20.8227 306.084C20.4903 305.779 20.1506 305.482 19.8255 305.155C19.6852 305.013 19.5522 304.85 19.4193 304.694C19.3306 304.649 19.0425 304.374 18.8283 304.069C18.7988 304.032 18.7766 303.988 18.7545 303.95C18.6658 303.854 18.5846 303.757 18.4959 303.668C18.5698 303.742 18.6289 303.802 18.6954 303.861C18.592 303.705 18.4885 303.556 18.3925 303.4C18.0453 302.85 17.7499 302.278 17.4544 301.706C17.4987 301.839 17.5357 301.988 17.5874 302.159C17.5283 301.966 17.4618 301.773 17.3879 301.579C17.3362 301.483 17.2845 301.386 17.2402 301.289C17.0851 300.985 17.026 300.665 17.0998 300.754C17.0851 300.71 17.0629 300.665 17.0555 300.62C16.8708 300.011 16.7157 299.387 16.5901 298.755C16.5901 298.881 16.6049 299.015 16.6049 299.171C16.6049 298.993 16.5828 298.822 16.5606 298.643C16.5606 298.636 16.5606 298.629 16.5606 298.621C16.472 298.145 16.472 297.432 16.5163 297.729C16.5089 297.476 16.4941 297.216 16.4941 296.964C16.4941 296.674 16.4941 296.376 16.4941 296.086V275.074M126.202 174.649C126.158 174.686 126.298 174.523 126.468 174.315C126.387 174.441 126.298 174.567 126.202 174.649Z" fill="#656D4A"/>
<path d="M193.488 27.9773C195.549 29.003 197.61 30.0287 199.678 31.047C204.576 33.4776 209.466 35.9081 214.363 38.3386C220.213 41.2449 226.071 44.1511 231.921 47.0573L246.791 54.4381C248.926 55.4936 251.06 56.5416 253.188 57.6119C253.934 57.991 254.636 58.4221 255.3 58.9275L253.956 57.8795C254.798 58.541 255.544 59.2917 256.202 60.1465L255.16 58.7938C255.773 59.6262 256.283 60.5107 256.682 61.4621L256.01 59.8641C256.416 60.8675 256.689 61.9081 256.844 62.9859L256.608 61.2094C256.748 62.3466 256.748 63.4839 256.593 64.6211L256.829 62.8446C256.674 63.915 256.386 64.9556 255.98 65.959L256.652 64.3609C256.246 65.3123 255.736 66.1894 255.116 67.0144L256.157 65.6617C255.5 66.509 254.754 67.2523 253.912 67.9064L255.256 66.8584C253.151 68.4341 250.477 69.4078 248.113 70.5153C243.526 72.6634 238.931 74.8115 234.344 76.9596C228.634 79.6354 222.924 82.3038 217.214 84.9796C212.184 87.3358 207.146 89.692 202.116 92.0482C199.656 93.2003 197.137 94.278 194.714 95.5119C194.677 95.5267 194.641 95.5416 194.611 95.5639C193.185 96.2329 191.959 98.0911 191.553 99.5628C191.117 101.161 191.309 103.294 192.225 104.721C193.141 106.148 194.5 107.404 196.199 107.798C198.031 108.222 199.619 107.917 201.326 107.122C203.83 105.948 206.334 104.781 208.838 103.606C214.585 100.916 220.332 98.2248 226.078 95.5342C232.424 92.561 238.769 89.5953 245.107 86.6222L257.989 80.5942C258.957 80.1408 259.961 79.7171 260.877 79.1597C263.522 77.5616 265.767 75.3095 267.363 72.656C268.959 70.0024 269.668 67.1557 269.963 64.1231C270.089 62.8372 269.963 61.5959 269.801 60.3175C269.638 59.039 269.439 57.8646 268.995 56.6903C267.917 53.8138 266.41 51.1379 264.113 49.0568C262.517 47.6074 260.789 46.5073 258.89 45.5633C255.042 43.6531 251.186 41.7429 247.338 39.8252C241.221 36.7926 235.105 33.7526 228.989 30.72C222.961 27.732 216.934 24.7366 210.914 21.7486C207.508 20.0613 204.103 18.3667 200.698 16.6794L200.218 16.4416C198.6 15.6388 196.879 15.2746 195.091 15.7652C193.547 16.1888 191.878 17.393 191.117 18.8424C189.529 21.8601 190.172 26.3421 193.503 27.9922L193.488 27.9773Z" fill="#656D4A"/>
</g>
<defs>
<clipPath id="clip0_17_121">
<rect width="270" height="325" fill="white"/>
</clipPath>
</defs>
</svg>
