<svg width="43" height="43" viewBox="0 0 43 43" fill="none" xmlns="http://www.w3.org/2000/svg">
<path d="M39.9286 0H3.06183C1.37254 0 0 1.39174 0 3.10022V39.8998C0 41.6083 1.37254 43 3.06183 43H39.9286C41.6179 43 43 41.6083 43 39.8998V3.10022C43 1.39174 41.6179 0 39.9286 0ZM12.996 36.8571H6.62277V16.3362H13.0056V36.8571H12.996ZM9.80937 13.5335C7.76496 13.5335 6.11406 11.873 6.11406 9.83817C6.11406 7.80335 7.76496 6.14286 9.80937 6.14286C11.8442 6.14286 13.5047 7.80335 13.5047 9.83817C13.5047 11.8826 11.8538 13.5335 9.80937 13.5335ZM36.8859 36.8571H30.5127V26.875C30.5127 24.4946 30.4647 21.4328 27.2013 21.4328C23.8804 21.4328 23.3717 24.0243 23.3717 26.7022V36.8571H16.9984V16.3362H23.1125V19.1388H23.1989C24.0531 17.5263 26.1359 15.8275 29.2362 15.8275C35.6862 15.8275 36.8859 20.0795 36.8859 25.608V36.8571Z" fill="#7C845E"/>
</svg>
