<svg width="249" height="69" viewBox="0 0 249 69" fill="none" xmlns="http://www.w3.org/2000/svg">
<g clip-path="url(#clip0_40_937)">
<path d="M28.3706 4.14505C28.0756 3.94703 28.2723 4.05942 28.3706 4.14505V4.14505Z" fill="#656D4A"/>
<path d="M18.7924 65.3151C18.7924 65.3151 18.811 65.3071 18.819 65.3017C18.8269 65.2964 18.8376 65.291 18.8456 65.2883C18.6303 65.3526 18.6117 65.3686 18.6595 65.3606C18.6941 65.3499 18.7313 65.3392 18.7658 65.3285C18.7738 65.3258 18.7844 65.3204 18.7924 65.3178V65.3151Z" fill="#656D4A"/>
<path d="M16.9613 65.3365C16.7938 65.2402 16.7486 65.2241 16.7646 65.2402C16.8231 65.2696 16.8815 65.299 16.94 65.3285C16.948 65.3285 16.9559 65.3338 16.9639 65.3365H16.9613Z" fill="#656D4A"/>
<path d="M18.2609 65.4677C18.2343 65.473 18.1944 65.481 18.1439 65.4891C18.1599 65.4891 18.1785 65.4864 18.1944 65.4837C18.2157 65.4784 18.2396 65.473 18.2609 65.4677Z" fill="#656D4A"/>
<path d="M24.3443 4.62944C24.3443 4.62944 24.3337 4.64817 24.3257 4.6562C24.4373 4.54381 24.4772 4.48761 24.4798 4.47156C24.4692 4.48494 24.4559 4.49564 24.4453 4.50635C24.4107 4.54381 24.3762 4.58663 24.3443 4.62676V4.62944Z" fill="#656D4A"/>
<path d="M29.1201 5.09229C29.1254 5.11637 29.1547 5.18059 29.2238 5.30636C29.2238 5.30369 29.2238 5.29834 29.2211 5.29566C29.1866 5.22876 29.1547 5.16186 29.1201 5.09229Z" fill="#656D4A"/>
<path d="M26.1621 3.54826C26.303 3.54291 26.3641 3.53221 26.3774 3.52686C26.3163 3.52953 26.2525 3.53488 26.1914 3.54291C26.1807 3.54291 26.1701 3.54826 26.1595 3.54826H26.1621Z" fill="#656D4A"/>
<path d="M24.7456 4.20659C24.7456 4.20659 24.7243 4.228 24.7137 4.2387C24.7137 4.24941 24.7668 4.21462 24.8944 4.0835C24.8864 4.08885 24.8785 4.0942 24.8705 4.09955C24.828 4.13434 24.7854 4.16913 24.7482 4.20391L24.7456 4.20659Z" fill="#656D4A"/>
<path d="M16.0523 64.6889C16.0709 64.6996 16.0417 64.6568 15.8982 64.5123C15.9035 64.5177 15.9062 64.5257 15.9115 64.5311C15.9593 64.5819 16.0072 64.6354 16.0523 64.6889Z" fill="#656D4A"/>
<path d="M43.1367 23.4605C43.1367 22.0261 43.1606 20.5891 43.1367 19.1575C43.1367 19.1334 43.1367 19.1093 43.1367 19.0853C43.1367 18.1647 42.3314 17.2816 41.3879 17.3245C40.4391 17.3673 39.6392 18.0978 39.6392 19.0853V34.167C39.6392 34.258 39.6392 34.3517 39.6392 34.4427C39.6392 34.5952 39.6339 34.7477 39.6206 34.9003C39.6206 34.9136 39.6153 34.9431 39.6126 34.9779C39.602 35.0394 39.5913 35.1117 39.5834 35.1438C39.5462 35.3311 39.4983 35.5157 39.4425 35.7004C39.4133 35.7967 39.3814 35.8957 39.3468 35.9894C39.3468 35.9894 39.3468 35.9921 39.3468 35.9947C39.1821 36.3185 39.0226 36.637 38.8126 36.934C38.7701 36.9848 38.7276 37.0357 38.6851 37.0865C38.5522 37.2364 38.414 37.3782 38.2678 37.512C38.204 37.5709 38.1403 37.6244 38.0738 37.6806C37.9276 37.7823 37.7815 37.884 37.63 37.9723C37.4785 38.0633 37.319 38.1409 37.1622 38.2185C37.0798 38.2479 36.9948 38.28 36.9124 38.3068C36.7317 38.3656 36.5483 38.4165 36.3649 38.4566C36.2825 38.4754 36.2002 38.4887 36.1178 38.5048C35.9158 38.5235 35.7165 38.5289 35.5145 38.5289C35.1477 38.5289 34.7783 38.5289 34.4115 38.5289H32.9259V7.16646C32.9259 6.2486 32.9259 5.33877 32.6336 4.45035C32.1233 2.89561 31.0496 1.51748 29.5932 0.754827C28.1288 -0.00782563 26.3987 -0.22458 24.812 0.25442C22.1251 1.06524 20.2834 3.5753 20.2648 6.39311C20.2648 6.72225 20.2648 7.05407 20.2648 7.38322V62.8321C20.2648 62.9097 20.2648 62.9873 20.2648 63.0649C20.2648 63.097 20.2648 63.1238 20.2648 63.1586C20.2594 63.3378 20.1425 63.8142 20.2807 63.2281C20.2461 63.3699 20.2302 63.5171 20.193 63.659C20.1717 63.7419 20.1478 63.8275 20.1186 63.9105C20.1106 63.9319 20.0893 63.9908 20.0681 64.0443V64.047C20.0309 64.1246 19.991 64.1995 19.9485 64.2718C19.89 64.3734 19.8262 64.4698 19.7598 64.5688C19.7306 64.6009 19.7013 64.6357 19.6721 64.6678C19.5605 64.7909 19.4329 64.8953 19.3133 65.0103C19.2708 65.0398 19.2283 65.0692 19.1857 65.096C19.0741 65.1655 18.9598 65.2324 18.8429 65.2913C18.8668 65.2833 18.8934 65.2779 18.9226 65.2672C18.8774 65.2806 18.8323 65.2993 18.7897 65.3181C18.7392 65.3395 18.6861 65.3555 18.6569 65.3609C18.5266 65.4037 18.3938 65.4385 18.2582 65.4679C18.3911 65.4438 18.2928 65.4679 18.1918 65.484C18.1865 65.484 18.1811 65.484 18.1758 65.4866C18.1174 65.4974 18.0589 65.5054 18.0031 65.5161C18.0589 65.5054 18.1014 65.4974 18.1413 65.4893C18.1333 65.4893 18.1227 65.4893 18.1147 65.4893C17.9951 65.4974 17.8728 65.5 17.7533 65.4974C17.6815 65.4974 17.6097 65.4893 17.538 65.4866C17.3892 65.4572 17.2377 65.4251 17.0915 65.3796C17.0463 65.3662 17.0038 65.3502 16.9586 65.3368C16.9799 65.3475 17.0038 65.3609 17.0277 65.3769C16.9985 65.3609 16.9666 65.3448 16.9347 65.3288C16.9347 65.3288 16.9294 65.3288 16.9267 65.3288C16.855 65.302 16.7752 65.2565 16.7593 65.2431C16.7221 65.2244 16.6822 65.2057 16.6477 65.1843C16.544 65.1227 16.4457 65.0531 16.3447 64.9862C16.2729 64.922 16.2012 64.8578 16.1321 64.7882C16.1028 64.7588 16.0736 64.724 16.0444 64.6919C16.0258 64.6812 15.9646 64.625 15.9195 64.5608C15.9141 64.5527 15.9088 64.5447 15.9035 64.5367C15.8849 64.5179 15.869 64.4939 15.8477 64.4778C15.8636 64.4939 15.8769 64.5072 15.8902 64.5206C15.869 64.4885 15.8477 64.4564 15.8264 64.4216C15.752 64.3039 15.6909 64.1834 15.6271 64.0603C15.6351 64.0898 15.6457 64.1192 15.6563 64.1567C15.6457 64.1165 15.6298 64.0737 15.6138 64.0336C15.6032 64.0122 15.5926 63.9935 15.5819 63.972C15.5474 63.9078 15.5368 63.8382 15.5527 63.8597C15.55 63.8489 15.5447 63.8409 15.5421 63.8302C15.5022 63.6991 15.4703 63.568 15.4437 63.4342C15.4437 63.4609 15.4437 63.4904 15.4464 63.5225C15.4464 63.485 15.4411 63.4476 15.4384 63.4101C15.4384 63.4101 15.4384 63.4074 15.4384 63.4047C15.4198 63.3031 15.4198 63.1505 15.4304 63.2174C15.4304 63.1639 15.4251 63.1077 15.4251 63.0542C15.4251 62.9926 15.4251 62.9311 15.4251 62.8669V38.3549C15.4251 37.5522 15.449 36.7681 15.3109 35.9733C15.0318 34.3758 13.897 32.8612 12.4512 32.1467C11.6459 31.748 10.8034 31.5259 9.90249 31.5178C9.5942 31.5152 9.28591 31.5178 8.97762 31.5178C8.5896 31.5178 8.20424 31.5178 7.81621 31.5178C7.66739 31.5178 7.51856 31.5178 7.36707 31.5071C7.29797 31.5018 7.22887 31.4964 7.16243 31.4911C7.00562 31.459 6.84616 31.4295 6.69202 31.3894C6.55116 31.3519 6.41031 31.3118 6.27477 31.2636C6.19238 31.2342 6.11265 31.2021 6.03026 31.1726C5.76981 31.079 6.20567 31.2502 6.20832 31.2502C5.90801 31.186 5.55719 30.9211 5.30471 30.7525C5.17449 30.6669 4.81836 30.3297 5.24625 30.7257C5.1426 30.6294 5.02832 30.5438 4.92201 30.4474C4.7971 30.3324 4.67485 30.2093 4.56057 30.0835C4.44363 29.9551 4.13268 29.4787 4.45426 29.9791C4.29214 29.7249 4.11408 29.4868 3.97056 29.2192C3.89615 29.08 3.83768 28.9302 3.76326 28.791C4.04232 29.3182 3.77921 28.8124 3.7234 28.6412C3.6357 28.3709 3.57723 28.0953 3.52407 27.817C3.51876 27.7527 3.51079 27.6858 3.50813 27.6216C3.50015 27.4985 3.4975 27.3754 3.4975 27.2523C3.4975 27.0382 3.4975 26.8242 3.4975 26.6101V10.0003C3.4975 9.07978 2.69222 8.19671 1.74875 8.23953C0.799959 8.28234 0 9.01288 0 10.0003V26.6877C0 28.494 0.340182 30.2735 1.43514 31.7587C2.42114 33.0993 3.69948 34.0761 5.26485 34.6353C6.30134 35.0046 7.39099 35.0448 8.47797 35.0448H9.72974C9.83605 35.0448 9.93969 35.0448 10.046 35.0474C10.0938 35.0474 10.139 35.0528 10.1869 35.0555C10.341 35.0903 10.4898 35.1277 10.6387 35.1759C10.6174 35.1625 10.5961 35.1491 10.5722 35.1357C10.6068 35.1572 10.6493 35.1759 10.6892 35.1919C10.7476 35.2133 10.7981 35.2455 10.822 35.2615C10.9177 35.315 11.0107 35.3739 11.1038 35.4301C11.0798 35.406 11.0533 35.3819 11.0214 35.3498C11.0559 35.3846 11.0931 35.414 11.133 35.4462C11.133 35.4462 11.133 35.4462 11.1356 35.4462C11.2047 35.489 11.2685 35.5559 11.2526 35.5505C11.3483 35.6415 11.436 35.7378 11.5237 35.8368C11.5476 35.8743 11.5742 35.9091 11.5954 35.9466C11.6353 36.0108 11.6964 36.0937 11.7469 36.1794C11.7496 36.1901 11.7549 36.2061 11.7602 36.2249C11.7868 36.3078 11.8187 36.3908 11.8426 36.4737C11.8639 36.5433 11.8825 36.6156 11.8984 36.6878C11.9011 36.7039 11.9037 36.7199 11.9064 36.736C11.9197 37.306 11.9303 37.8733 11.9303 38.4433V62.0346C11.9303 63.0087 11.9011 63.9908 12.228 64.9274C12.7621 66.4554 13.8518 67.7907 15.3427 68.4543C17.0064 69.1929 18.7765 69.1822 20.4322 68.4195C22.5052 67.4642 23.7596 65.2431 23.7649 62.99C23.7676 61.7537 23.7649 60.5147 23.7649 59.2784V10.4071C23.7649 9.10387 23.7649 7.79799 23.7649 6.49479C23.7649 6.46 23.7649 6.42254 23.7649 6.38775C23.7649 6.3824 23.7649 6.37705 23.7649 6.3717C23.7649 6.31015 23.7649 6.2486 23.7676 6.18706C23.7702 6.1148 23.7755 6.04523 23.7809 5.97298C23.7809 5.96227 23.7835 5.95425 23.7862 5.94087C23.842 5.64918 23.9456 5.38426 24.036 5.10329C23.8579 5.66792 24.0147 5.17286 24.0998 5.01765C24.1689 4.89188 24.2459 4.77414 24.3257 4.6564C24.3124 4.66978 24.2964 4.68583 24.2778 4.70189C24.3018 4.68048 24.3204 4.65372 24.3416 4.62964C24.3602 4.60288 24.3762 4.57612 24.3948 4.54936C24.4346 4.49049 24.4825 4.4557 24.4772 4.47176C24.5516 4.39148 24.6287 4.31387 24.7084 4.23895C24.7084 4.22824 24.7536 4.17472 24.8173 4.13191C24.8333 4.1212 24.8492 4.1105 24.8652 4.09979C24.8891 4.07839 24.913 4.05966 24.9343 4.03825C24.9183 4.0543 24.9024 4.07036 24.8891 4.08374C25.0193 3.99811 25.1469 3.91248 25.2851 3.83755C25.4313 3.75727 25.8884 3.61544 25.3329 3.79473C25.4711 3.75192 25.6014 3.69305 25.7396 3.65023C25.8778 3.60742 26.0186 3.57798 26.1595 3.54854C26.1276 3.54854 26.0904 3.55122 26.0505 3.55122C26.0983 3.55122 26.1435 3.54587 26.1914 3.54052C26.2126 3.53516 26.2312 3.53249 26.2525 3.52714C26.3242 3.51108 26.3987 3.51643 26.3774 3.52714C26.388 3.52714 26.3987 3.52714 26.4093 3.52714C26.5315 3.52178 26.6511 3.52178 26.7734 3.52714C26.8638 3.52981 26.9541 3.54052 27.0418 3.54587C27.3288 3.5646 26.8398 3.51643 26.8425 3.51643C27.1402 3.47094 27.5707 3.7091 27.8498 3.79741C27.2996 3.6208 27.7514 3.76262 27.8976 3.84023C28.0225 3.9098 28.1448 3.98205 28.2617 4.06233C28.3308 4.1105 28.3972 4.16402 28.469 4.21219C28.4318 4.1881 28.3999 4.16669 28.3733 4.14796C28.3733 4.14796 28.376 4.15064 28.3786 4.15331C28.5062 4.26571 28.6258 4.38612 28.7401 4.5119C28.7746 4.54936 28.8039 4.58682 28.8384 4.62696C28.9102 4.73133 28.9793 4.83836 29.043 4.94808C29.0696 4.99625 29.0962 5.04709 29.1201 5.09526C29.1121 5.05779 29.1547 5.11131 29.1812 5.18624C29.1945 5.2237 29.2078 5.26117 29.2211 5.29863C29.2344 5.32272 29.245 5.3468 29.2583 5.36821C29.245 5.3468 29.2344 5.32807 29.2238 5.30934C29.2477 5.37891 29.2716 5.44581 29.2929 5.51806C29.3327 5.65186 29.3646 5.78833 29.3939 5.92481C29.3939 5.89537 29.3939 5.86594 29.3912 5.82847C29.3912 5.87664 29.3992 5.92481 29.4045 5.97298C29.4045 5.96227 29.4018 5.95425 29.3992 5.94354C29.3992 5.93551 29.3965 5.93016 29.3939 5.92213C29.4018 6.16832 29.4125 6.17635 29.4125 6.10945C29.4178 6.20044 29.4204 6.28874 29.4204 6.37973C29.4204 6.42522 29.4204 6.47071 29.4204 6.5162V40.295C29.4204 41.2477 30.2231 42.0558 31.1692 42.0558H33.6302C34.5258 42.0558 35.4507 42.1174 36.341 42.005C38.2838 41.7588 40.1309 40.8784 41.372 39.3156C42.4909 37.9081 43.1261 36.2409 43.134 34.4239C43.142 33.0913 43.134 31.7587 43.134 30.4234V23.4605H43.1367ZM11.7708 36.2195C11.8054 36.2837 11.832 36.3453 11.8399 36.4015C11.8399 36.4015 11.8027 36.2971 11.7708 36.2195ZM11.909 36.744C11.9197 37.0624 11.9303 36.8912 11.909 36.744V36.744ZM38.7063 37.0785C38.7063 37.0785 38.7249 37.0517 38.7622 37.0062C38.7435 37.033 38.7249 37.0598 38.7063 37.0785Z" fill="#656D4A"/>
<path d="M15.4437 63.4045C15.4437 63.4045 15.4464 63.4205 15.4491 63.4285C15.4437 63.3028 15.4384 63.2386 15.4331 63.2118C15.4331 63.2546 15.4331 63.2974 15.4358 63.3376C15.4358 63.359 15.4384 63.3831 15.4411 63.4045H15.4437Z" fill="#656D4A"/>
<path d="M15.6351 64.0548C15.5952 63.9237 15.5713 63.8675 15.5607 63.8514C15.5793 63.9103 15.6005 63.9692 15.6218 64.0281C15.6271 64.0361 15.6298 64.0468 15.6351 64.0548Z" fill="#656D4A"/>
<path d="M10.6892 35.1837C10.6892 35.1837 10.6759 35.1783 10.6679 35.1756C10.6573 35.173 10.6493 35.1703 10.6387 35.1676C10.8221 35.2773 10.8539 35.2827 10.8194 35.2559C10.7875 35.2372 10.7583 35.2184 10.7264 35.2024C10.7131 35.197 10.6998 35.1917 10.6865 35.1837H10.6892Z" fill="#656D4A"/>
<path d="M11.133 35.4406C11.133 35.4406 11.1144 35.4299 11.1064 35.4246C11.1994 35.5102 11.242 35.545 11.2526 35.5477C11.2393 35.5369 11.2287 35.5236 11.218 35.5129C11.1915 35.4888 11.1622 35.4647 11.133 35.4406Z" fill="#656D4A"/>
<path d="M54.562 30.2385C55.1812 29.6311 55.9148 29.1601 56.7599 28.8229C57.605 28.4857 58.5219 28.3172 59.5106 28.3172C60.4992 28.3172 61.3603 28.4911 62.1975 28.8363C63.0347 29.1815 63.7868 29.7087 64.4565 30.4178L66.0883 28.8256C65.2857 27.9158 64.3103 27.228 63.1622 26.7651C62.0141 26.3021 60.765 26.0693 59.4069 26.0693C58.0489 26.0693 56.8343 26.2941 55.7021 26.7383C54.5726 27.1852 53.5893 27.8167 52.7521 28.6356C51.915 29.4544 51.2612 30.4098 50.7934 31.5042C50.3257 32.6014 50.0891 33.8056 50.0891 35.1195C50.0891 36.4334 50.323 37.6402 50.7934 38.7347C51.2612 39.8319 51.9096 40.7872 52.7388 41.6034C53.568 42.4222 54.5461 43.0537 55.6756 43.5006C56.8051 43.9475 58.0409 44.1696 59.3804 44.1696C60.7198 44.1696 62.0141 43.9341 63.1596 43.4605C64.3077 42.9895 65.2804 42.2964 66.0857 41.3866L64.4539 39.7944C63.7841 40.5196 63.032 41.0548 62.1948 41.4C61.3577 41.7452 60.462 41.9191 59.5079 41.9191C58.5538 41.9191 57.6024 41.7505 56.7572 41.4134C55.9121 41.0762 55.1786 40.6052 54.5593 39.9978C53.9401 39.3903 53.4591 38.6705 53.1162 37.8356C52.7734 37.0007 52.6006 36.0962 52.6006 35.1168C52.6006 34.1374 52.7707 33.2329 53.1162 32.398C53.4591 31.5631 53.9401 30.8433 54.5593 30.2358L54.562 30.2385Z" fill="#656D4A"/>
<path d="M78.1914 31.3008C77.2027 30.7281 76.0652 30.4418 74.7763 30.4418C73.4873 30.4418 72.3604 30.7335 71.3479 31.3141C70.3353 31.8948 69.5407 32.7003 68.9613 33.7279C68.3846 34.7554 68.0949 35.9355 68.0949 37.2682C68.0949 38.6008 68.3925 39.7809 68.9852 40.8085C69.5805 41.8361 70.4177 42.6469 71.4967 43.2356C72.5757 43.827 73.8275 44.1214 75.252 44.1214C76.3576 44.1214 77.3569 43.9367 78.2525 43.5648C79.1481 43.1955 79.8976 42.6549 80.5009 41.9458L79.1694 40.3777C78.6831 40.9182 78.1196 41.3223 77.4738 41.5926C76.828 41.8628 76.1131 41.9966 75.3264 41.9966C74.3723 41.9966 73.5272 41.804 72.791 41.4159C72.0548 41.0279 71.4808 40.4847 71.0715 39.7863C70.7685 39.2698 70.5798 38.6998 70.5001 38.079H81.3062C81.3221 37.9613 81.3354 37.8355 81.3434 37.699C81.3514 37.5652 81.3567 37.4475 81.3567 37.3458C81.3567 35.965 81.075 34.7554 80.5142 33.7172C79.9534 32.6816 79.18 31.8761 78.1914 31.3034V31.3008ZM70.4948 36.3316C70.5639 35.7188 70.7366 35.1568 71.0103 34.6511C71.3798 33.9687 71.89 33.4362 72.5412 33.0589C73.195 32.6789 73.9391 32.4889 74.7763 32.4889C75.6134 32.4889 76.3788 32.6789 77.0247 33.0589C77.6678 33.4389 78.1754 33.966 78.5449 34.6404C78.8239 35.1515 78.9913 35.7161 79.0498 36.3343H70.4948V36.3316Z" fill="#656D4A"/>
<path d="M87.0069 32.8234V30.5702H84.6974V43.9715H87.1079V37.2976C87.1079 35.8312 87.4853 34.71 88.2374 33.9339C88.9895 33.1579 90.0127 32.7699 91.3017 32.7699H91.5648C91.6551 32.7699 91.7535 32.7779 91.8545 32.794V30.4418C90.5814 30.4418 89.5104 30.6853 88.6413 31.175C87.9264 31.5764 87.3843 32.1276 87.0095 32.8234H87.0069Z" fill="#656D4A"/>
<path d="M103.857 31.3008C102.868 30.7281 101.73 30.4418 100.441 30.4418C99.1524 30.4418 98.0256 30.7335 97.013 31.3141C96.0004 31.8948 95.2058 32.7003 94.6264 33.7279C94.0497 34.7554 93.76 35.9355 93.76 37.2682C93.76 38.6008 94.0577 39.7809 94.6503 40.8085C95.2457 41.8361 96.0828 42.6469 97.1618 43.2356C98.2408 43.827 99.4926 44.1214 100.917 44.1214C102.023 44.1214 103.022 43.9367 103.918 43.5648C104.813 43.1955 105.563 42.6549 106.166 41.9458L104.835 40.3777C104.348 40.9182 103.785 41.3223 103.139 41.5926C102.493 41.8628 101.778 41.9966 100.992 41.9966C100.037 41.9966 99.1923 41.804 98.4561 41.4159C97.7199 41.0279 97.1459 40.4847 96.7366 39.7863C96.4336 39.2698 96.2449 38.6998 96.1652 38.079H106.971C106.987 37.9613 107.001 37.8355 107.009 37.699C107.016 37.5652 107.022 37.4475 107.022 37.3458C107.022 35.965 106.74 34.7554 106.179 33.7172C105.619 32.6816 104.845 31.8761 103.857 31.3034V31.3008ZM96.1599 36.3316C96.229 35.7188 96.4017 35.1568 96.6755 34.6511C97.0449 33.9687 97.5552 33.4362 98.2063 33.0589C98.8601 32.6789 99.6042 32.4889 100.441 32.4889C101.279 32.4889 102.044 32.6789 102.69 33.0589C103.333 33.4389 103.841 33.966 104.21 34.6404C104.489 35.1515 104.656 35.7161 104.715 36.3343H96.1599V36.3316Z" fill="#656D4A"/>
<path d="M120.355 37.4957C120.355 38.4403 120.188 39.2458 119.853 39.9095C119.518 40.5758 119.04 41.0815 118.421 41.4267C117.801 41.7719 117.073 41.9459 116.236 41.9459C115.096 41.9459 114.213 41.6167 113.586 40.9584C112.959 40.3001 112.645 39.3154 112.645 38.0015V30.5676H110.235V38.2798C110.235 39.5937 110.474 40.6855 110.95 41.5552C111.428 42.4222 112.095 43.0671 112.959 43.4899C113.82 43.9127 114.822 44.1214 115.96 44.1214C117.097 44.1214 118.027 43.8779 118.896 43.3882C119.545 43.0243 120.071 42.548 120.478 41.9592V43.9689H122.763V30.5676H120.353V37.4957H120.355Z" fill="#656D4A"/>
<path d="M135.26 37.2682C134.765 37.0166 134.218 36.8186 133.614 36.6741C133.011 36.5323 132.408 36.4119 131.807 36.3209C131.204 36.2299 130.657 36.1148 130.162 35.9784C129.668 35.8446 129.267 35.6546 128.956 35.4084C128.645 35.1649 128.49 34.8143 128.49 34.3594C128.49 33.8215 128.751 33.3773 129.269 33.0321C129.787 32.6869 130.574 32.513 131.629 32.513C132.283 32.513 132.934 32.5879 133.588 32.7404C134.242 32.893 134.869 33.1713 135.472 33.5753L136.501 31.654C135.932 31.266 135.198 30.9663 134.303 30.7575C133.407 30.5461 132.525 30.4418 131.653 30.4418C130.516 30.4418 129.532 30.605 128.703 30.9342C127.874 31.2633 127.233 31.7316 126.782 32.3364C126.33 32.9438 126.104 33.6503 126.104 34.4611C126.104 35.2719 126.255 35.8553 126.556 36.3182C126.856 36.7812 127.26 37.1451 127.762 37.4047C128.265 37.6669 128.817 37.8676 129.421 38.0121C130.024 38.1566 130.627 38.2743 131.228 38.3653C131.831 38.459 132.379 38.5634 132.873 38.6811C133.367 38.7988 133.763 38.9755 134.066 39.2109C134.367 39.4464 134.518 39.7756 134.518 40.1984C134.518 40.771 134.271 41.2179 133.777 41.539C133.282 41.8602 132.474 42.0207 131.353 42.0207C130.481 42.0207 129.628 41.8869 128.791 41.6166C127.954 41.3464 127.249 41.0199 126.681 40.6319L125.676 42.5532C126.245 42.9921 127.029 43.3614 128.025 43.6664C129.022 43.9688 130.072 44.1214 131.177 44.1214C132.365 44.1214 133.386 43.9581 134.242 43.629C135.095 43.2998 135.757 42.8422 136.224 42.2508C136.692 41.6621 136.929 40.961 136.929 40.1529C136.929 39.3956 136.774 38.7881 136.464 38.3332C136.153 37.8783 135.751 37.5251 135.257 37.2709L135.26 37.2682Z" fill="#656D4A"/>
<path d="M150.087 30.2385C150.706 29.6311 151.44 29.1601 152.285 28.8229C153.13 28.4857 154.047 28.3172 155.035 28.3172C156.024 28.3172 156.885 28.4911 157.722 28.8363C158.559 29.1815 159.312 29.7087 159.981 30.4178L161.613 28.8256C160.81 27.9158 159.835 27.228 158.687 26.7651C157.539 26.3021 156.29 26.0693 154.932 26.0693C153.574 26.0693 152.359 26.2941 151.227 26.7383C150.097 27.1852 149.114 27.8167 148.277 28.6356C147.44 29.4544 146.786 30.4098 146.318 31.5042C145.85 32.6014 145.614 33.8056 145.614 35.1195C145.614 36.4334 145.848 37.6402 146.318 38.7347C146.786 39.8319 147.434 40.7872 148.264 41.6034C149.093 42.4222 150.071 43.0537 151.2 43.5006C152.33 43.9475 153.566 44.1696 154.905 44.1696C156.245 44.1696 157.539 43.9341 158.684 43.4605C159.832 42.9895 160.805 42.2964 161.61 41.3866L159.979 39.7944C159.309 40.5196 158.557 41.0548 157.72 41.4C156.882 41.7452 155.987 41.9191 155.033 41.9191C154.079 41.9191 153.127 41.7505 152.282 41.4134C151.437 41.0762 150.703 40.6052 150.084 39.9978C149.465 39.3903 148.984 38.6705 148.641 37.8356C148.298 37.0007 148.125 36.0962 148.125 35.1168C148.125 34.1374 148.295 33.2329 148.641 32.398C148.984 31.5631 149.465 30.8433 150.084 30.2358L150.087 30.2385Z" fill="#656D4A"/>
<path d="M167.162 32.8234V30.5702H164.853V43.9715H167.263V37.2976C167.263 35.8312 167.641 34.71 168.393 33.9339C169.145 33.1579 170.168 32.7699 171.457 32.7699H171.72C171.811 32.7699 171.909 32.7779 172.01 32.794V30.4418C170.737 30.4418 169.666 30.6853 168.797 31.175C168.082 31.5764 167.54 32.1276 167.165 32.8234H167.162Z" fill="#656D4A"/>
<path d="M184.012 31.3008C183.023 30.7281 181.886 30.4418 180.597 30.4418C179.308 30.4418 178.181 30.7335 177.168 31.3141C176.156 31.8948 175.361 32.7003 174.782 33.7279C174.205 34.7554 173.915 35.9355 173.915 37.2682C173.915 38.6008 174.213 39.7809 174.806 40.8085C175.401 41.8361 176.238 42.6469 177.317 43.2356C178.396 43.827 179.648 44.1214 181.073 44.1214C182.178 44.1214 183.177 43.9367 184.073 43.5648C184.969 43.1955 185.718 42.6549 186.321 41.9458L184.99 40.3777C184.504 40.9182 183.94 41.3223 183.294 41.5926C182.649 41.8628 181.934 41.9966 181.147 41.9966C180.193 41.9966 179.348 41.804 178.612 41.4159C177.875 41.0279 177.301 40.4847 176.892 39.7863C176.589 39.2698 176.4 38.6998 176.321 38.079H187.127C187.143 37.9613 187.156 37.8355 187.164 37.699C187.172 37.5652 187.177 37.4475 187.177 37.3458C187.177 35.965 186.895 34.7554 186.335 33.7172C185.774 32.6816 185.001 31.8761 184.012 31.3034V31.3008ZM176.315 36.3316C176.384 35.7188 176.557 35.1568 176.831 34.6511C177.2 33.9687 177.711 33.4362 178.362 33.0589C179.015 32.6789 179.76 32.4889 180.597 32.4889C181.434 32.4889 182.199 32.6789 182.845 33.0589C183.488 33.4389 183.996 33.966 184.365 34.6404C184.644 35.1515 184.812 35.7161 184.87 36.3343H176.315V36.3316Z" fill="#656D4A"/>
<path d="M195.363 30.4418C194.308 30.4418 193.298 30.589 192.336 30.8833C191.374 31.1777 190.547 31.6031 189.861 32.1597L190.866 33.9794C191.384 33.5406 192.022 33.1927 192.774 32.9304C193.526 32.6682 194.297 32.5397 195.084 32.5397C196.272 32.5397 197.165 32.8234 197.757 33.388C198.353 33.9526 198.648 34.7501 198.648 35.7777V36.2593H194.831C193.508 36.2593 192.458 36.436 191.679 36.7892C190.901 37.1424 190.34 37.6161 189.997 38.2048C189.654 38.7962 189.481 39.4518 189.481 40.177C189.481 40.9022 189.683 41.614 190.085 42.2134C190.486 42.8128 191.06 43.2784 191.804 43.6156C192.548 43.9528 193.415 44.1214 194.403 44.1214C195.626 44.1214 196.639 43.8885 197.441 43.4256C198.005 43.0991 198.448 42.6924 198.773 42.2054V43.9715H201.058V35.8794C201.058 34.041 200.564 32.6762 199.578 31.7824C198.589 30.8887 197.183 30.4418 195.36 30.4418H195.363ZM198.653 39.8719C198.353 40.6479 197.861 41.2367 197.183 41.6407C196.506 42.0448 195.714 42.2482 194.81 42.2482C193.906 42.2482 193.17 42.0501 192.649 41.6541C192.131 41.2581 191.871 40.7309 191.871 40.0726C191.871 39.4999 192.081 39.0102 192.498 38.6062C192.915 38.2021 193.728 37.9987 194.932 37.9987H198.648V39.8692L198.653 39.8719Z" fill="#656D4A"/>
<path d="M210.379 42.0716C209.709 42.0716 209.193 41.879 208.835 41.4909C208.476 41.1029 208.295 40.5463 208.295 39.8211V32.5639H212.111V30.5649H208.295V27.6321H205.885V30.5649H203.626V32.5639H205.885V39.9228C205.885 41.2715 206.254 42.3071 206.99 43.0323C207.726 43.7575 208.765 44.1188 210.105 44.1188C210.658 44.1188 211.189 44.0438 211.7 43.8913C212.21 43.7388 212.648 43.5033 213.018 43.1822L212.266 41.4374C211.763 41.8602 211.136 42.069 210.381 42.069L210.379 42.0716Z" fill="#656D4A"/>
<path d="M218.338 30.5676H215.928V43.9689H218.338V30.5676Z" fill="#656D4A"/>
<path d="M217.135 24.8276C216.667 24.8276 216.276 24.9802 215.968 25.2826C215.657 25.5849 215.503 25.9649 215.503 26.4198C215.503 26.8748 215.657 27.228 215.968 27.533C216.276 27.8354 216.667 27.988 217.135 27.988C217.602 27.988 218.014 27.8328 218.315 27.5197C218.615 27.2093 218.766 26.8239 218.766 26.369C218.766 25.9141 218.612 25.5635 218.301 25.2692C217.99 24.9748 217.602 24.8276 217.135 24.8276Z" fill="#656D4A"/>
<path d="M227.685 41.3036L223.109 30.5676H220.6L226.426 43.9689H228.887L234.712 30.5676H232.352L227.685 41.3036Z" fill="#656D4A"/>
<path d="M248.158 33.7145C247.597 32.6789 246.823 31.8734 245.835 31.3008C244.846 30.7281 243.709 30.4418 242.42 30.4418C241.131 30.4418 240.004 30.7335 238.991 31.3141C237.979 31.8948 237.184 32.7003 236.605 33.7279C236.028 34.7554 235.738 35.9355 235.738 37.2682C235.738 38.6008 236.036 39.7809 236.629 40.8085C237.224 41.8361 238.061 42.6469 239.14 43.2356C240.219 43.827 241.471 44.1214 242.895 44.1214C244.001 44.1214 245 43.9367 245.896 43.5648C246.791 43.1955 247.541 42.6549 248.144 41.9458L246.813 40.3777C246.326 40.9182 245.763 41.3223 245.117 41.5926C244.471 41.8628 243.756 41.9966 242.97 41.9966C242.016 41.9966 241.17 41.804 240.434 41.4159C239.698 41.0279 239.124 40.4847 238.715 39.7863C238.412 39.2698 238.223 38.6998 238.143 38.079H248.95C248.965 37.9613 248.979 37.8355 248.987 37.699C248.995 37.5652 249 37.4475 249 37.3458C249 35.965 248.718 34.7554 248.158 33.7172V33.7145ZM238.138 36.3316C238.207 35.7188 238.38 35.1568 238.654 34.6511C239.023 33.9687 239.533 33.4362 240.185 33.0589C240.838 32.6789 241.582 32.4889 242.42 32.4889C243.257 32.4889 244.022 32.6789 244.668 33.0589C245.311 33.4389 245.819 33.966 246.188 34.6404C246.467 35.1515 246.635 35.7161 246.693 36.3343H238.138V36.3316Z" fill="#656D4A"/>
</g>
<defs>
<clipPath id="clip0_40_937">
<rect width="249" height="69" fill="white"/>
</clipPath>
</defs>
</svg>
