<svg width="136" height="136" viewBox="0 0 136 136" fill="none" xmlns="http://www.w3.org/2000/svg">
<circle cx="69" cy="66" r="54" fill="white"/>
<path d="M37.7625 88.3913C37.7349 86.9796 36.7147 85.9208 35.3802 85.9098C34.0347 85.8987 32.9814 86.9465 32.9594 88.3471C32.9373 89.9243 32.9373 91.5014 32.9594 93.0786C32.9759 94.4737 34.0402 95.5325 35.3747 95.5215C36.7092 95.5104 37.7349 94.4572 37.757 93.0399C37.7735 92.2624 37.757 91.4849 37.757 90.7128C37.757 89.9408 37.768 89.1578 37.757 88.3857L37.7625 88.3913Z" fill="#656D4A"/>
<path d="M67.6073 0C30.2689 0 0 30.2689 0 67.6073C0 104.946 30.2689 135.215 67.6073 135.215C104.946 135.215 135.215 104.946 135.215 67.6073C135.215 30.2689 104.946 0 67.6073 0ZM67.2323 40.5368C68.848 39.8034 70.4527 39.0424 72.096 38.3696C72.8019 38.0829 73.5794 37.8347 74.3294 37.8237C79.6398 37.7796 84.9447 37.7961 90.2551 37.8016C90.3544 37.8016 90.4537 37.8126 90.6301 37.8292V52.1999C90.3765 52.2109 90.1338 52.233 89.8912 52.233C84.8069 52.233 79.7225 52.2605 74.6382 52.2109C73.789 52.1999 72.9011 51.9848 72.1071 51.665C70.4582 51.0143 68.859 50.2312 67.2433 49.4978C65.3022 48.621 64.2048 47.1266 64.2159 44.9814C64.2269 42.8694 65.3188 41.4026 67.2268 40.5368H67.2323ZM59.1867 42.4669L59.3411 42.5771V66.8628C58.7841 66.2507 58.3154 65.7434 57.8522 65.2361C55.1887 62.3079 52.5252 59.3852 49.8617 56.457C48.7919 55.2769 48.7533 54.0417 49.7845 52.9002C52.8395 49.5198 55.9166 46.156 58.9826 42.7812C59.0654 42.6874 59.1205 42.5716 59.1867 42.4669ZM35.3477 42.4613C35.3587 39.9137 37.4652 37.8237 40.0239 37.8071C44.9098 37.774 49.7956 37.7851 54.6814 37.8071C55.288 37.8071 55.889 38.0056 56.6886 38.149C54.0748 41.0221 51.6319 43.7131 49.189 46.3987C48.1964 47.4905 47.1927 48.5824 46.2057 49.6798C43.5587 52.6355 43.5697 56.6721 46.2443 59.6223C49.4923 63.2067 52.7513 66.7801 56.0048 70.359C56.1703 70.5409 56.3357 70.7285 56.65 71.0759C55.9387 71.2248 55.3541 71.4453 54.7696 71.4453C49.8342 71.4729 44.8987 71.4949 39.9633 71.4453C37.4487 71.4233 35.3642 69.3223 35.3532 66.8077C35.3201 58.6904 35.3201 50.5676 35.3532 42.4503L35.3477 42.4613ZM59.3852 100.065C59.3797 103.12 57.3504 105.144 54.2954 105.15C49.6632 105.155 45.0311 105.155 40.3989 105.15C37.388 105.15 35.3367 103.109 35.3367 100.115C35.3311 93.8561 35.3311 87.5917 35.3367 81.3328C35.3367 78.3274 37.3825 76.2925 40.3879 76.287C45.0476 76.2815 49.7018 76.2815 54.3615 76.287C57.3228 76.287 59.3797 78.3329 59.3852 81.2831C59.3962 84.4374 59.3852 87.5917 59.3852 90.7514C59.3852 93.8561 59.3852 96.9607 59.3852 100.065ZM88.303 103.413C88.292 103.33 88.2589 103.148 88.2589 102.966C88.2589 99.7621 88.2534 96.5527 88.2589 93.3488C88.2589 91.6999 89.2295 90.7239 90.8672 90.7184C94.2476 90.7128 97.628 90.7184 101.052 90.7184C96.7622 94.9921 92.5271 99.2051 88.303 103.413ZM102.69 85.9098C98.7364 85.9098 94.9038 85.9098 91.0713 85.9098C86.5053 85.9098 83.4503 88.9758 83.4503 93.5528C83.4503 97.3853 83.4503 101.212 83.4503 105.117C83.1746 105.128 82.9374 105.15 82.6948 105.15C79.0387 105.15 75.3771 105.155 71.721 105.15C67.3095 105.144 64.2104 102.04 64.2048 97.6225C64.2048 86.5991 64.2048 75.5757 64.2048 64.5522C64.2048 60.1462 67.3205 57.0471 71.7376 57.0416C79.5295 57.0416 87.3214 57.0416 95.1134 57.0416C99.6242 57.0416 102.69 60.1241 102.69 64.657C102.69 71.4729 102.69 78.2888 102.69 85.0991V85.9098ZM102.674 47.5732C102.619 49.9775 100.766 51.9738 98.3724 52.1943C97.435 52.2826 96.4865 52.2109 95.5049 52.2109V37.8292C97.3026 37.8016 99.1334 37.5204 100.733 38.7391C101.962 39.6765 102.635 40.9228 102.674 42.4669C102.712 44.1653 102.712 45.8693 102.674 47.5732Z" fill="#656D4A"/>
<path d="M78.4316 66.6643C76.1266 66.6588 73.8215 66.6643 71.5165 66.6643C69.2114 66.6643 66.8071 66.6643 64.4525 66.6643C62.9084 66.6643 61.8331 67.6514 61.8221 69.0465C61.811 70.4417 62.8919 71.4729 64.4139 71.4729C69.1011 71.4784 73.7829 71.4784 78.4702 71.4729C79.9867 71.4729 81.073 70.4472 81.0675 69.0521C81.0565 67.6624 79.9701 66.6698 78.4371 66.6643H78.4316Z" fill="#656D4A"/>
<path d="M73.6947 76.287C72.1396 76.276 70.5901 76.287 69.035 76.287C67.4799 76.287 65.9303 76.2815 64.3752 76.287C62.8974 76.298 61.8331 77.3017 61.8221 78.6693C61.811 80.0368 62.8808 81.0846 64.3366 81.0901C67.4689 81.1011 70.6011 81.1011 73.7278 81.0901C75.1836 81.0846 76.2534 80.0368 76.2479 78.6693C76.2368 77.3072 75.1615 76.2925 73.6947 76.287Z" fill="#656D4A"/>
</svg>
