<svg width="48" height="48" viewBox="0 0 48 48" fill="none" xmlns="http://www.w3.org/2000/svg">
<circle cx="24" cy="24.0001" r="23.2941" fill="white"/>
<path d="M24 0C37.2544 0 48 10.7456 48 24C48 37.2544 37.2544 48 24 48C10.7456 48 0 37.2544 0 24C0 10.7456 10.7456 0 24 0ZM37.5394 23.6857C38.4961 21.2921 38.8143 19.3827 38.8143 17.6842C38.8143 17.5222 38.7909 17.3875 38.785 17.2313C37.803 15.0915 36.3739 13.2017 34.609 11.6788C33.2248 11.9307 32.2798 13.2173 32.2798 14.5995C32.2798 15.9818 33.0783 17.1493 33.9276 18.5296C34.568 19.6444 35.3099 21.0793 35.3099 23.1488C35.3099 24.5857 34.8842 26.3877 34.035 28.5645L32.3618 34.1541L26.3077 16.1419C27.3151 16.0872 28.2248 15.9837 28.2248 15.9837C29.1268 15.8764 29.0233 14.5527 28.1175 14.6015C28.1175 14.6015 25.4037 14.8143 23.6525 14.8143C22.0086 14.8143 19.2422 14.6015 19.2422 14.6015C18.3402 14.5468 18.2309 15.9291 19.1367 15.9837C19.1367 15.9837 19.9899 16.0892 20.8938 16.1399L23.5022 23.2952L19.8357 34.2946L13.7346 16.1438C14.744 16.0892 15.6518 15.9857 15.6518 15.9857C16.5538 15.8783 16.4503 14.5546 15.5445 14.6034C15.5445 14.6034 12.8307 14.8162 11.0795 14.8162C10.9331 14.8162 10.7456 14.8104 10.5797 14.8084C9.93151 15.7553 9.38095 16.7725 8.93777 17.8502L16.4425 38.4023C17.3875 38.8982 18.3851 39.3043 19.4257 39.6108L24.2948 25.4623L29.367 39.3473C30.5364 38.9373 31.6453 38.4004 32.6781 37.7444L37.5394 23.6857Z" fill="#656D4A"/>
</svg>
