<svg width="136" height="136" viewBox="0 0 136 136" fill="none" xmlns="http://www.w3.org/2000/svg">
<circle cx="68" cy="68" r="66" fill="white"/>
<path d="M68 0C105.554 0 136 30.4459 136 68C136 105.554 105.554 136 68 136C30.4459 136 0 105.554 0 68C0 30.4459 30.4459 0 68 0ZM106.362 67.1094C109.072 60.3277 109.974 54.9178 109.974 50.1053C109.974 49.6461 109.907 49.2645 109.891 48.8219C107.108 42.7593 103.059 37.4047 98.0587 33.09C94.1368 33.8036 91.4595 37.449 91.4595 41.3653C91.4595 45.2817 93.722 48.5896 96.1282 52.5004C97.9426 55.659 100.045 59.7247 100.045 65.5882C100.045 69.6595 98.8387 74.7651 96.4324 80.9329L91.6918 96.7699L74.5384 45.7353C77.3927 45.5804 79.9704 45.2872 79.9704 45.2872C82.526 44.983 82.2328 41.2326 79.6662 41.3709C79.6662 41.3709 71.9772 41.9738 67.0154 41.9738C62.3578 41.9738 54.5195 41.3709 54.5195 41.3709C51.9639 41.216 51.6541 45.1324 54.2208 45.2872C54.2208 45.2872 56.6381 45.5859 59.1992 45.7298L66.5894 66.0031L56.2011 97.1681L38.9148 45.7408C41.7747 45.5859 44.3469 45.2928 44.3469 45.2928C46.9025 44.9885 46.6093 41.2381 44.0426 41.3764C44.0426 41.3764 36.3537 41.9793 31.3918 41.9793C30.977 41.9793 30.4459 41.9627 29.9758 41.9572C28.1393 44.64 26.5794 47.522 25.3237 50.5754L46.5872 108.807C49.2645 110.212 52.0911 111.362 55.0395 112.231L68.8353 72.1432L83.2064 111.484C86.5198 110.322 89.6618 108.801 92.588 106.942L106.362 67.1094Z" fill="#656D4A"/>
</svg>
